<?xml version="1.0" standalone="no"?>
<svg version="1.0" xmlns="http://www.w3.org/2000/svg"
 width="512px" height="512px" viewBox="0 0 512 512"
 preserveAspectRatio="xMidYMid meet">

<g transform="translate(0.000000,512.000000) scale(0.100000,-0.100000)"
fill="#000000" stroke="none">
<path d="M3701 5103 c-19 -10 -44 -31 -55 -46 -20 -27 -21 -43 -24 -325 -2
-268 -1 -300 15 -331 29 -55 65 -76 133 -76 68 0 105 21 132 76 16 30 18 67
18 319 0 312 -3 330 -62 373 -38 28 -114 33 -157 10z"/>
<path d="M4810 5009 c-31 -12 -406 -383 -427 -423 -35 -66 -8 -161 57 -199 38
-23 107 -24 146 -4 16 9 118 105 226 214 210 212 219 225 204 307 -17 88 -118
140 -206 105z"/>
<path d="M2429 4382 c-36 -10 -87 -32 -115 -49 -27 -18 -213 -196 -413 -397
l-365 -365 -53 49 c-61 56 -139 96 -218 112 l-54 11 -12 56 c-33 164 -168 308
-327 351 -61 16 -188 13 -252 -6 -144 -42 -256 -156 -300 -303 -11 -36 -85
-388 -165 -781 -111 -541 -148 -741 -152 -821 -13 -227 57 -464 195 -659 54
-78 1221 -1253 1337 -1346 101 -82 268 -166 400 -201 89 -24 118 -27 260 -26
140 0 172 3 257 26 112 29 237 86 329 147 78 52 1654 1621 1700 1693 89 136
91 325 6 470 -35 60 -135 150 -191 173 l-47 19 8 40 c15 74 7 196 -17 257 -32
86 -98 169 -172 218 l-65 42 22 62 c32 89 39 160 21 243 -36 172 -157 304
-320 348 -85 23 -212 17 -281 -14 -26 -11 -51 -21 -54 -21 -4 0 -26 29 -49 64
-66 100 -163 165 -285 189 l-62 13 -8 53 c-18 128 -117 260 -239 320 -107 53
-204 63 -319 33z m199 -309 c47 -35 64 -68 64 -120 0 -28 -4 -59 -10 -69 -6
-10 -265 -273 -576 -583 l-564 -564 13 69 c7 38 27 152 45 254 l33 185 411
412 c226 227 424 420 441 428 38 20 108 14 143 -12z m-1783 -237 c70 -46 85
-167 27 -213 -43 -33 -110 -136 -127 -197 -31 -106 -315 -1528 -315 -1576 0
-27 -4 -51 -9 -54 -10 -7 -74 129 -98 209 -13 44 -17 94 -17 185 0 121 5 146
147 840 81 393 155 730 164 749 43 82 149 109 228 57z m2225 -201 c37 -36 55
-90 46 -142 -7 -34 -62 -93 -496 -528 -421 -423 -490 -496 -499 -531 -18 -67
12 -140 70 -170 37 -19 108 -21 141 -4 12 7 286 274 608 595 322 321 595 588
607 594 51 26 149 2 179 -44 23 -35 35 -87 28 -125 -5 -30 -93 -122 -604 -635
-646 -648 -623 -620 -606 -709 17 -92 124 -143 209 -100 18 9 248 232 513 496
404 403 486 481 517 488 108 24 203 -67 182 -177 -6 -34 -62 -94 -500 -533
-527 -530 -518 -519 -499 -597 18 -73 73 -113 156 -113 l52 0 416 414 c228
228 429 421 447 430 62 31 145 11 186 -45 27 -37 33 -108 13 -151 -9 -19 -352
-368 -804 -819 -580 -578 -802 -793 -844 -818 -139 -81 -287 -117 -438 -108
-111 7 -204 33 -315 90 -76 38 -103 63 -525 486 -325 325 -455 462 -480 504
-78 135 -117 311 -100 457 17 145 299 1504 318 1529 66 89 194 93 254 8 38
-54 34 -95 -56 -595 -47 -260 -86 -487 -86 -505 0 -41 31 -92 72 -117 39 -24
107 -26 146 -6 15 8 356 344 757 746 402 403 744 741 760 752 46 30 135 21
175 -17z"/>
<path d="M4401 3902 c-55 -27 -76 -64 -76 -132 0 -68 21 -105 76 -132 30 -16
67 -18 319 -18 252 0 289 2 319 18 55 27 76 64 76 132 0 68 -21 105 -76 132
-30 16 -67 18 -319 18 -252 0 -289 -2 -319 -18z"/>
</g>
</svg>
