<svg width="375" height="667" viewBox="0 0 375 667" fill="none" xmlns="http://www.w3.org/2000/svg">
<g clip-path="url(#clip0_0_1298)">
<rect width="375" height="667" fill="#34B99B"/>
<path d="M10.1331 -205.137L463.997 -39.9435L300.172 410.162C299.417 412.238 297.121 413.308 295.045 412.552L-155.06 248.728L10.1331 -205.137Z" fill="url(#paint0_linear_0_1298)"/>
<mask id="mask0_0_1298" style="mask-type:luminance" maskUnits="userSpaceOnUse" x="-156" y="-206" width="620" height="619">
<path d="M10.1331 -205.137L463.997 -39.9435L300.172 410.162C299.417 412.238 297.121 413.308 295.045 412.552L-155.06 248.728L10.1331 -205.137Z" fill="white"/>
</mask>
<g mask="url(#mask0_0_1298)">
<rect opacity="0.4" x="78.5459" y="-43.3803" width="29" height="384" transform="rotate(20 78.5459 -43.3803)" fill="#34B99B"/>
<rect opacity="0.6" x="-98" y="69.6255" width="14.5" height="619.057" transform="rotate(-70 -98 69.6255)" fill="#34B99B"/>
<rect opacity="0.6" x="-155" y="159.626" width="14.5" height="619.057" transform="rotate(-70 -155 159.626)" fill="#34B99B"/>
<rect opacity="0.6" x="-82" y="-138.374" width="14.5" height="619.057" transform="rotate(-70 -82 -138.374)" fill="#34B99B"/>
<rect opacity="0.6" x="-97.9236" y="-36.5045" width="14.5" height="619.057" transform="rotate(-70 -97.9236 -36.5045)" fill="#34B99B"/>
<rect opacity="0.5" x="64.5457" y="-262.38" width="29" height="384" transform="rotate(20 64.5457 -262.38)" fill="#34B99B"/>
<rect opacity="0.4" x="172.546" y="-39.3803" width="29" height="384" transform="rotate(20 172.546 -39.3803)" fill="#34B99B"/>
<rect opacity="0.4" x="258.546" y="-7.38" width="29" height="384" transform="rotate(20 258.546 -7.38)" fill="#34B99B"/>
<rect opacity="0.4" x="350.884" y="0.710037" width="29" height="408.38" transform="rotate(20 350.884 0.710037)" fill="#34B99B"/>
</g>
<circle cx="191.5" cy="199.5" r="112.5" fill="#4FB8FF" fill-opacity="0.2" style="mix-blend-mode:multiply"/>
<g filter="url(#filter0_d_0_1298)">
<circle cx="181.5" cy="174.5" r="112.5" fill="url(#paint1_linear_0_1298)"/>
</g>
<circle cx="182" cy="175" r="73" fill="url(#paint2_linear_0_1298)"/>
<path fill-rule="evenodd" clip-rule="evenodd" d="M223.688 177C220.69 205.66 196.454 228 167 228C135.52 228 110 202.48 110 171C110 139.52 135.52 114 167 114C195.069 114 218.399 134.288 223.126 161H238C242.418 161 246 164.582 246 169C246 173.418 242.418 177 238 177H223.688Z" fill="#44556B" fill-opacity="0.299677" style="mix-blend-mode:multiply"/>
<rect x="206" y="155" width="41" height="16" rx="8" fill="url(#paint3_linear_0_1298)"/>
<circle cx="158" cy="155" r="57" fill="url(#paint4_radial_0_1298)"/>
<circle opacity="0.612432" cx="158" cy="155" r="31" fill="#FCFCFC"/>
<path fill-rule="evenodd" clip-rule="evenodd" d="M136.395 167.356L136.323 167.353L136.256 167.207L136.329 167.173L136.395 167.356ZM139.657 139.949C139.608 139.995 139.582 140.042 139.58 140.09L139.223 140.006L139.41 139.796C139.434 139.797 139.476 139.816 139.534 139.855C139.593 139.893 139.634 139.924 139.657 139.949ZM146.6 145.378C146.54 145.713 146.452 146.178 146.335 146.774C146.334 146.798 146.282 146.928 146.177 147.165C146.1 147.33 146.096 147.438 146.166 147.489C146.069 147.509 145.905 147.57 145.673 147.67C145.442 147.77 145.302 147.819 145.254 147.817C144.99 147.808 144.777 147.716 144.615 147.543C144.547 147.444 144.505 147.275 144.489 147.034C144.473 146.793 144.449 146.63 144.416 146.545C144.383 146.46 144.302 146.379 144.172 146.302C144.043 146.226 143.98 146.128 143.984 146.008C143.997 145.648 144.171 145.474 144.507 145.485C144.603 145.489 144.709 145.553 144.825 145.677C145.388 145.36 145.79 145.206 146.029 145.214C146.125 145.218 146.316 145.272 146.6 145.378ZM139.244 140.439L139.028 140.431L139.108 140.218C139.2 140.317 139.246 140.391 139.244 140.439ZM141.841 144.456C141.77 144.429 141.675 144.414 141.555 144.41C141.556 144.362 141.583 144.291 141.634 144.196C141.635 144.172 141.704 144.259 141.841 144.456ZM145.423 149.156L145.352 149.153L145.285 149.007L145.358 148.973L145.423 149.156ZM141.567 145.095L141.351 145.087L141.355 144.979L141.571 144.987L141.567 145.095ZM136.429 139.548L136.208 139.684L136.175 139.611L136.396 139.475L136.429 139.548ZM141.213 144.902L140.962 144.893L140.965 144.785L141.217 144.794L141.213 144.902ZM145.403 149.731L145.295 149.728L145.312 149.26L145.42 149.264L145.403 149.731ZM141.133 145.152L141.023 145.184C140.951 145.205 140.89 145.215 140.842 145.213C140.674 145.208 140.594 145.109 140.6 144.917C140.644 145.038 140.822 145.117 141.133 145.152ZM140.763 145.427L140.58 145.492L140.584 145.385L140.731 145.318L140.763 145.427ZM140.208 144.795C140.037 144.885 139.856 144.927 139.664 144.92C139.69 144.849 139.801 144.781 139.995 144.716L140.208 144.795ZM141.695 146.576C141.524 146.666 141.288 146.886 140.988 147.236C140.847 147.135 140.691 147.129 140.52 147.219C140.428 147.096 140.385 146.951 140.391 146.783C140.4 146.519 140.602 146.262 140.995 146.011C141.066 146.014 141.15 146.029 141.245 146.056C141.32 145.987 141.417 145.954 141.537 145.958C141.487 146.004 141.389 146.073 141.241 146.164C141.241 146.188 141.263 146.237 141.308 146.31L141.494 146.137C141.542 146.138 141.613 146.177 141.707 146.252L141.695 146.576ZM139.611 146.431L139.503 146.427L139.509 146.248L139.617 146.251L139.611 146.431ZM144.369 152.541C144.271 152.586 144.21 152.607 144.186 152.607C144.187 152.583 144.201 152.535 144.227 152.464C144.254 152.393 144.267 152.345 144.268 152.321C144.267 152.345 144.284 152.382 144.318 152.431C144.353 152.48 144.37 152.517 144.369 152.541ZM139.995 147.813L139.813 147.879L139.815 147.807L139.962 147.74L139.995 147.813ZM133.743 142.192L133.376 142.395L133.344 142.286L133.71 142.119L133.743 142.192ZM140.271 164.121C140.265 164.139 140.258 164.157 140.252 164.176C140.26 164.125 140.266 164.107 140.271 164.121ZM131.238 152.054L131.237 152.082C131.227 152.082 131.227 152.072 131.238 152.054ZM140.736 148.306C140.735 148.306 140.735 148.307 140.734 148.308L140.732 148.38C140.733 148.357 140.734 148.332 140.736 148.306ZM144.555 150.332C144.542 150.35 144.529 150.368 144.516 150.385L144.535 150.349C144.539 150.342 144.546 150.337 144.555 150.332ZM140.739 148.277C140.751 148.14 140.781 147.959 140.826 147.734C140.927 147.594 141.127 147.385 141.425 147.107L141.778 147.299C141.754 147.299 141.853 147.23 142.073 147.094C142.169 147.097 142.302 147.078 142.472 147.035C142.564 147.135 142.608 147.244 142.604 147.364C142.599 147.508 142.512 147.613 142.341 147.679C142.171 147.745 142.013 147.8 141.867 147.843C141.913 147.916 141.983 147.955 142.079 147.958C142.103 147.959 142.152 147.949 142.224 147.927C142.297 147.906 142.358 147.896 142.406 147.898C142.501 147.901 142.785 148.031 143.256 148.288C143.328 148.29 143.366 148.255 143.368 148.183C143.53 148.357 143.694 148.471 143.861 148.525C143.908 148.55 143.895 148.574 143.822 148.595C143.868 148.669 143.962 148.708 144.106 148.713C144.101 148.857 144.061 148.964 143.987 149.034C144.105 149.086 144.201 149.101 144.273 149.08C144.224 149.126 144.126 149.182 143.979 149.249C143.975 149.369 144.009 149.431 144.081 149.433L144.189 149.437L144.262 149.403C144.257 149.547 144.207 149.618 144.111 149.614C144.063 149.613 144.039 149.594 144.041 149.558C144.042 149.522 144.03 149.503 144.007 149.502C143.982 149.526 143.968 149.573 143.966 149.645C143.958 149.861 144.128 150.155 144.475 150.527C144.547 150.53 144.62 150.497 144.695 150.427C144.769 150.358 144.758 150.321 144.662 150.318C144.612 150.316 144.576 150.321 144.555 150.332C144.666 150.172 144.769 149.953 144.865 149.677C144.845 149.556 144.829 149.339 144.816 149.026L145.031 149.034C145.163 149.399 145.259 149.75 145.319 150.089C145.273 150.039 145.237 150.038 145.211 150.085C145.104 150.393 144.997 150.72 144.889 151.064C144.78 151.409 144.63 151.602 144.436 151.643C144.236 151.876 144.049 152.23 143.877 152.704C143.704 153.178 143.625 153.548 143.64 153.812C143.518 153.856 143.455 153.938 143.451 154.058C143.497 154.132 143.543 154.193 143.589 154.243C143.656 154.389 143.605 154.459 143.437 154.454C143.413 154.453 143.378 154.428 143.332 154.378C143.104 154.73 142.995 155.087 143.006 155.447C142.697 156.061 142.219 157.353 141.574 159.324C141.52 159.514 141.5 159.717 141.517 159.934L141.368 160.073C141.392 160.074 141.422 160.087 141.457 160.112C141.492 160.137 141.521 160.162 141.544 160.187C141.494 160.257 141.441 160.382 141.387 160.56C141.333 160.738 141.28 160.874 141.229 160.969C141.283 160.778 141.282 160.466 141.225 160.032C141.067 160.435 140.819 161.362 140.48 162.816C140.471 163.055 140.448 163.391 140.409 163.822C140.364 163.884 140.318 163.983 140.271 164.121C140.282 164.159 140.279 164.441 140.26 164.969C140.254 165.161 140.192 165.567 140.074 166.187C140.083 165.924 140.083 165.251 140.072 164.17C140.026 164.12 139.98 164.047 139.936 163.949C139.918 163.78 139.927 163.529 139.962 163.194C139.914 163.192 139.877 163.215 139.852 163.262L139.602 164.226L139.314 164.216L139.281 164.124C139.259 164.064 139.249 164.021 139.25 163.997L139.43 164.004C139.478 163.981 139.504 163.934 139.507 163.862C139.507 163.838 139.481 163.729 139.428 163.535C139.375 163.341 139.362 163.197 139.389 163.102C139.343 163.052 139.297 162.978 139.253 162.881C139.181 162.878 139.132 162.889 139.108 162.912C139.105 162.984 139.15 163.069 139.243 163.169C139.238 163.288 139.256 163.469 139.296 163.711L139.224 163.708C139.188 164.043 139.125 164.485 139.033 165.034C139.032 165.082 138.986 164.685 138.895 163.841C138.867 163.96 138.789 164.137 138.66 164.373C138.683 164.398 138.743 164.412 138.839 164.415L138.8 165.531C138.684 165.406 138.629 165.272 138.634 165.128C138.519 164.98 138.459 164.978 138.454 165.122L138.458 165.014C138.483 164.967 138.448 164.942 138.352 164.939C138.208 164.934 138.134 165.003 138.129 165.147C138.127 165.195 138.153 165.496 138.205 166.05C138.258 166.604 138.292 167.002 138.308 167.242C138.234 167.288 138.173 167.31 138.126 167.308C138.015 166.344 137.916 165.067 137.827 163.479C137.879 163.361 137.911 163.134 137.923 162.798C137.876 162.749 137.769 162.733 137.6 162.751C137.614 162.367 137.67 161.793 137.768 161.028C137.769 161.004 137.814 160.927 137.903 160.798C137.991 160.669 138.037 160.569 138.039 160.497C138.023 160.28 138.121 159.539 138.333 158.274C138.31 158.249 138.274 158.236 138.226 158.234C138.177 158.28 138.15 158.363 138.146 158.483C138.151 158.316 138.194 158.125 138.274 157.912C138.25 157.887 138.233 157.856 138.223 157.82C138.212 157.783 138.195 157.753 138.172 157.728C138.147 157.751 138.098 157.785 138.024 157.831C137.959 158.309 137.974 158.573 138.069 158.625C138.066 158.697 138.017 158.731 137.921 158.728C137.918 158.8 137.939 158.896 137.983 159.018L137.975 159.234L137.723 159.225C137.699 159.248 137.665 159.523 137.623 160.05C137.599 160.049 137.573 160.084 137.547 160.156C137.52 160.227 137.49 160.4 137.457 160.675C137.423 160.95 137.404 161.147 137.4 161.267L137.392 161.483C137.394 161.435 137.372 161.374 137.327 161.301C137.25 161.442 137.185 161.584 137.132 161.726L137.064 161.616C137.015 161.638 136.963 161.732 136.91 161.898L136.979 161.973C137.053 161.903 137.103 161.869 137.127 161.87C137.075 161.988 136.984 162.165 136.856 162.401C136.832 162.4 136.797 162.369 136.751 162.307C136.705 162.245 136.67 162.214 136.646 162.213C136.704 161.951 136.736 161.712 136.744 161.496C136.815 161.499 136.937 161.455 137.108 161.365C137.111 161.293 137.1 161.257 137.076 161.256C137.027 161.278 137.002 161.301 137.002 161.325C137.003 161.277 136.981 161.228 136.935 161.179C136.811 161.295 136.737 161.352 136.713 161.351L136.729 160.883C136.75 160.98 136.787 160.945 136.841 160.779C136.85 160.515 136.946 160.159 137.13 159.709C137.235 159.448 137.289 159.282 137.292 159.21C137.297 159.066 137.217 158.943 137.052 158.841C137.126 158.796 137.189 158.714 137.241 158.596C137.266 158.573 137.255 158.548 137.208 158.523C137.088 158.519 137.026 158.564 137.023 158.66C137.028 158.516 137.103 158.411 137.25 158.344C137.227 158.319 137.167 158.305 137.071 158.302C137.178 157.993 137.235 157.743 137.241 157.551C137.172 157.477 137.101 157.438 137.029 157.436L137.055 157.725C137.026 157.868 136.912 158.056 136.711 158.289C136.709 158.361 136.742 158.446 136.811 158.545C136.76 158.615 136.66 158.732 136.51 158.895L136.616 158.97L136.436 158.964L136.477 157.777C136.383 157.725 136.202 157.743 135.935 157.83L136.048 157.69L135.943 157.614L135.905 157.649L135.62 157.567C135.74 157.571 135.825 157.55 135.874 157.504C135.803 157.477 135.697 157.425 135.556 157.348L136.167 157.37C136.051 157.27 135.896 157.216 135.704 157.209L135.485 157.31C135.383 157.474 135.218 157.721 134.991 158.049C134.989 158.097 134.975 158.169 134.947 158.264C134.946 158.288 134.958 158.312 134.981 158.337C135.026 158.41 135.001 158.446 134.905 158.442C134.904 158.466 134.913 158.563 134.931 158.731C134.885 158.682 134.789 158.654 134.646 158.649C134.645 158.673 134.672 158.59 134.726 158.4L134.738 158.076C134.765 157.981 134.818 157.839 134.897 157.65C134.975 157.46 135.015 157.341 135.017 157.294C135.026 157.03 134.887 156.893 134.599 156.883C134.527 156.88 134.442 156.913 134.344 156.982C134.325 156.837 134.214 156.749 134.011 156.718C133.808 156.687 133.611 156.656 133.419 156.625L133.281 156.476C133.378 156.432 133.527 156.305 133.726 156.096L132.647 156.058C132.653 155.89 132.716 155.808 132.835 155.812C132.907 155.815 132.943 155.828 132.942 155.852C132.941 155.876 132.965 155.889 133.013 155.891C133.181 155.897 133.393 155.838 133.649 155.715C133.906 155.592 134.048 155.471 134.076 155.351C133.885 155.321 133.526 155.296 132.998 155.278C132.95 155.276 132.933 155.252 132.947 155.204C132.96 155.156 132.943 155.132 132.895 155.13C132.847 155.128 132.829 155.14 132.84 155.164C132.851 155.189 132.833 155.2 132.785 155.198C132.737 155.197 132.702 155.165 132.68 155.105C132.658 155.044 132.623 155.013 132.575 155.011C132.527 155.009 132.503 155.02 132.502 155.044L132.43 155.042C132.199 154.77 131.988 154.63 131.796 154.623C131.844 154.625 131.906 154.591 131.98 154.522L131.712 153.936C131.808 153.939 131.927 153.98 132.068 154.057L132.14 154.059C131.958 153.765 131.772 153.614 131.58 153.607C131.532 153.606 131.483 153.628 131.433 153.674C131.388 153.601 131.367 153.516 131.37 153.42C131.394 153.421 131.435 153.44 131.494 153.478C131.553 153.516 131.594 153.536 131.618 153.537C131.643 153.513 131.656 153.478 131.658 153.43C131.673 152.998 131.518 152.633 131.192 152.333C131.287 152.36 131.42 152.329 131.591 152.239C131.568 152.214 131.528 152.165 131.471 152.091C131.413 152.017 131.373 151.955 131.351 151.906C131.291 151.976 131.253 152.025 131.238 152.054L131.249 151.723C131.296 151.772 131.377 151.835 131.495 151.911C131.501 151.743 131.545 151.493 131.629 151.16C131.713 150.826 131.755 150.648 131.756 150.624C131.758 150.576 131.725 150.49 131.657 150.368C131.612 150.27 131.63 150.115 131.709 149.902C131.663 149.852 131.58 149.825 131.46 149.821C131.482 149.87 131.479 149.966 131.45 150.109C131.379 150.058 131.307 150.056 131.234 150.101C131.314 149.864 131.428 149.514 131.577 149.05C131.725 148.587 131.899 147.903 132.099 146.997C132.147 146.975 132.275 146.775 132.48 146.398C132.41 146.324 132.35 146.322 132.3 146.392C132.169 146.7 131.978 147.029 131.725 147.381C131.486 148.045 131.258 148.709 131.043 149.374C130.721 150.347 130.587 151.087 130.641 151.593C130.538 151.806 130.487 151.888 130.489 151.84C130.485 151.96 130.503 152.129 130.543 152.346C130.564 152.443 130.633 152.53 130.75 152.606C130.752 152.558 130.677 152.639 130.525 152.85C130.475 152.92 130.447 153.027 130.442 153.171C130.433 153.435 130.59 153.741 130.914 154.088C130.845 154.014 130.752 153.939 130.634 153.862C130.6 154.149 130.584 154.281 130.584 154.257C130.488 154.254 130.37 154.201 130.23 154.1C130.238 153.861 130.239 153.476 130.234 152.948C130.228 152.419 130.226 152.131 130.228 152.083C130.249 151.484 130.412 150.601 130.717 149.435C130.801 149.077 130.849 148.905 130.861 148.917C130.872 148.93 130.891 148.912 130.917 148.865C131.001 148.508 131.044 148.323 131.044 148.311C131.045 148.299 131.137 148.056 131.322 147.583C131.451 147.323 131.621 146.933 131.831 146.412C131.91 146.198 132.042 145.879 132.225 145.453C132.323 145.384 132.435 145.268 132.561 145.104C132.567 144.936 132.611 144.698 132.694 144.389C132.718 144.389 132.753 144.415 132.8 144.464C132.923 144.373 132.998 144.279 133.025 144.184C132.979 144.134 132.906 144.156 132.807 144.248C132.994 143.703 133.176 143.325 133.351 143.115C134.156 142.062 134.607 141.538 134.703 141.541C134.775 141.543 134.822 141.569 134.844 141.618L134.878 141.691C134.902 141.668 134.955 141.55 135.034 141.336C135.157 141.245 135.299 141.147 135.458 141.045C135.618 140.943 135.689 140.807 135.671 140.638C135.934 140.671 136.103 140.641 136.178 140.548C136.147 140.763 136.131 140.882 136.13 140.906C136.326 140.793 136.548 140.621 136.796 140.389L136.868 140.392C136.915 140.417 136.963 140.431 137.011 140.433L138.598 139.336C138.466 139.667 138.202 140.006 137.806 140.353C137.856 140.306 137.878 140.367 137.872 140.535L137.692 140.529C137.617 140.598 137.58 140.645 137.579 140.669C137.7 140.649 137.904 140.656 138.191 140.69C138.054 141.166 137.984 141.451 137.98 141.547C137.976 141.667 137.986 141.74 138.009 141.764C138.084 141.671 138.186 141.518 138.313 141.307C138.387 141.261 138.486 141.181 138.61 141.065C138.637 140.97 138.738 140.829 138.913 140.643C138.779 141.023 138.604 141.569 138.387 142.282C138.406 142.427 138.411 142.631 138.402 142.895C138.244 143.298 138.167 143.439 138.171 143.319C138.168 143.391 138.19 143.464 138.235 143.537C138.26 143.514 138.303 143.498 138.363 143.488C138.423 143.478 138.454 143.461 138.455 143.437C138.483 143.318 138.425 143.256 138.281 143.251C138.41 142.991 138.566 142.672 138.747 142.295C138.745 142.342 138.771 142.463 138.824 142.657C138.878 142.851 138.903 142.984 138.9 143.056C138.899 143.104 138.853 143.217 138.763 143.394C138.672 143.571 138.614 143.695 138.587 143.766C138.502 144.147 138.233 144.642 137.779 145.251C137.223 146.048 136.906 146.529 136.828 146.694C136.674 146.977 136.544 147.261 136.438 147.545L136.504 147.728C136.408 147.724 136.336 147.71 136.289 147.684C136.187 147.849 136.17 148.004 136.237 148.151C136.188 148.173 136.141 148.159 136.094 148.109C135.743 148.553 135.474 149.012 135.29 149.486C135.144 150.226 134.866 151.297 134.457 152.699C134.297 153.15 134.219 153.327 134.222 153.231C134.215 153.447 134.295 153.57 134.462 153.6C134.629 153.63 134.784 153.659 134.927 153.688C134.809 153.636 134.651 153.679 134.454 153.816C134.452 153.864 134.463 153.912 134.485 153.961C134.533 153.963 134.623 153.954 134.756 153.934C134.889 153.915 134.991 153.907 135.063 153.909C135.062 153.933 135.013 153.979 134.914 154.048C135.03 154.172 135.112 154.235 135.16 154.237C135.328 154.242 135.619 154.157 136.033 153.979C136.448 153.801 136.704 153.69 136.802 153.646C137.144 153.465 137.391 153.258 137.544 153.023C137.712 153.029 137.842 153.082 137.934 153.181C137.857 153.322 137.745 153.438 137.598 153.529L137.26 153.914L137.258 153.986C137.356 153.941 137.526 153.875 137.769 153.787C137.796 153.716 137.871 153.611 137.996 153.471C138.265 153.336 138.474 153.2 138.623 153.061C138.544 152.578 138.504 152.348 138.503 152.372C138.695 151.682 138.985 150.6 139.373 149.125C139.398 149.101 139.387 149.065 139.341 149.015C139.291 149.062 139.254 149.084 139.23 149.084L139.24 148.796C139.334 148.871 139.392 148.909 139.416 148.91C139.497 148.673 139.479 148.492 139.363 148.368C139.651 148.378 139.84 148.456 139.931 148.604C140.003 148.606 140.041 148.548 140.046 148.428C140.382 148.415 140.6 148.363 140.699 148.27C140.718 148.271 140.731 148.273 140.739 148.277ZM131.472 150.506L131.397 150.575L131.259 150.426L131.333 150.357L131.472 150.506ZM141.282 161.511L141.174 161.507L141.19 161.039L141.298 161.043L141.282 161.511ZM131.351 150.862L131.243 150.858L131.252 150.606L131.36 150.61L131.351 150.862ZM131.267 151.147C131.173 151.144 131.112 151.166 131.087 151.213C131.137 151.142 131.164 151.083 131.165 151.035C131.214 151.067 131.248 151.104 131.267 151.147ZM131.269 151.151C131.295 151.211 131.292 151.282 131.262 151.363L131.269 151.151ZM131.269 151.151C131.269 151.15 131.268 151.148 131.267 151.147C131.268 151.147 131.269 151.147 131.269 151.147L131.269 151.151ZM137.297 158.022L137.148 158.16L137.182 158.234L137.368 158.06L137.297 158.022ZM131.099 151.897L130.991 151.894L130.997 151.714L131.105 151.718L131.099 151.897ZM131.43 152.738C131.333 152.758 131.284 152.78 131.284 152.804L131.29 152.625C131.287 152.697 131.334 152.734 131.43 152.738ZM139.956 162.329L139.872 162.686L139.98 162.69L140.064 162.333L139.956 162.329ZM136.924 159.413L136.816 159.41L136.821 159.266L136.929 159.269L136.924 159.413ZM140.012 162.799C139.988 162.798 139.941 162.773 139.871 162.722C139.869 162.77 139.879 162.831 139.9 162.903C139.922 162.976 139.932 163.025 139.931 163.049C139.935 162.929 139.962 162.845 140.012 162.799ZM140.12 163.848L140.012 163.844L140.004 164.06L140.112 164.063L140.12 163.848ZM139.551 164.656L139.443 164.652L139.451 164.437L139.558 164.44L139.551 164.656ZM138.678 163.869C138.523 163.504 138.424 163.224 138.383 163.03C138.394 163.391 138.398 163.643 138.393 163.787C138.394 163.739 138.42 163.692 138.47 163.646C138.514 163.743 138.533 163.888 138.526 164.08C138.527 164.056 138.547 164.021 138.584 163.974C138.622 163.927 138.653 163.892 138.678 163.869ZM136.484 161.703L136.376 161.7L136.381 161.556L136.489 161.559L136.484 161.703ZM137.742 162.828L137.586 163.147L137.517 163.072L137.67 162.825L137.742 162.828ZM138.452 164.15L138.344 164.146L138.338 164.326L138.446 164.329L138.452 164.15ZM136.385 162.492C136.333 162.587 136.269 162.692 136.193 162.81L136.2 162.63C136.203 162.534 136.265 162.488 136.385 162.492ZM137.652 164.374L137.544 164.37L137.55 164.19L137.658 164.194L137.652 164.374ZM138.522 165.233L138.444 165.41L138.373 165.372L138.451 165.194L138.522 165.233ZM136.262 162.92C136.26 162.968 136.221 163.039 136.146 163.132C136.077 163.058 136.043 162.997 136.044 162.949C136.188 162.954 136.261 162.944 136.262 162.92ZM136.455 165.629C136.381 165.698 136.342 165.769 136.34 165.841C136.342 165.769 136.307 165.732 136.235 165.729L136.214 166.341C136.217 166.269 136.194 166.22 136.147 166.194L136.073 166.264C136.116 166.409 136.18 166.64 136.265 166.955L136.261 167.063C136.197 166.82 136.11 166.577 135.998 166.333L136.026 165.542C136.214 165.644 136.357 165.673 136.455 165.629ZM141.342 148.437L141.31 148.328L141.091 148.392L141.088 148.5L141.342 148.437ZM132.751 147.921L132.758 147.705L132.65 147.701L132.643 147.917L132.751 147.921ZM138.347 153.736C138.227 153.731 138.155 153.741 138.13 153.764C138.014 153.64 137.969 153.578 137.993 153.579C137.991 153.627 138.013 153.676 138.06 153.726C138.011 153.748 137.884 153.924 137.681 154.253C137.755 154.183 137.815 154.185 137.861 154.259C137.961 154.142 138.123 153.968 138.347 153.736ZM134.236 149.738L134.13 149.698L134.014 149.91L134.12 149.986L134.236 149.738ZM133.213 149.126L133.219 148.946L133.111 148.942L133.105 149.122L133.213 149.126ZM132.583 148.599L132.598 148.168L132.49 148.164L132.475 148.595L132.583 148.599ZM134.183 150.24L134.147 150.239C134.122 150.262 134.074 150.272 134.002 150.27C133.954 150.268 133.931 150.231 133.933 150.159C133.936 150.087 133.926 150.039 133.902 150.014C133.8 150.203 133.76 150.321 133.782 150.37L134.034 150.379L134.183 150.24ZM132.538 148.85L132.545 148.67L132.437 148.666L132.43 148.846L132.538 148.85ZM137.654 154C137.532 154.043 137.431 154.184 137.351 154.421C137.4 154.375 137.473 154.353 137.569 154.357C137.576 154.165 137.604 154.046 137.654 154ZM133.833 150.984L133.846 150.589L133.738 150.585L133.725 150.981L133.833 150.984ZM132.419 149.17C132.368 149.264 132.276 149.477 132.145 149.809C132.284 149.934 132.357 149.912 132.363 149.744C132.365 149.672 132.356 149.588 132.336 149.491C132.392 149.253 132.42 149.146 132.419 149.17ZM133.7 151.7C133.7 151.676 133.69 151.628 133.669 151.555C133.647 151.482 133.637 151.434 133.638 151.41L133.621 151.877C133.625 151.782 133.651 151.722 133.7 151.7ZM137.539 156.265L137.468 156.226L137.391 156.368L137.462 156.406L137.539 156.265ZM136.948 155.632L136.879 155.557L136.583 155.763L136.653 155.838L136.948 155.632ZM134.051 151.965C134.027 151.964 133.991 151.95 133.944 151.925C134.018 151.855 134.058 151.761 134.062 151.641L133.615 152.057C133.569 152.008 133.522 151.982 133.474 151.98C133.505 152.462 133.512 152.942 133.495 153.422C133.52 153.399 133.597 153.269 133.725 153.034C133.797 153.036 133.831 153.086 133.828 153.181C133.83 153.134 133.774 153 133.662 152.779C133.758 152.783 133.804 152.832 133.801 152.928C133.969 152.238 134.052 151.917 134.051 151.965ZM133.424 149.277L132.981 149.586C133 149.73 132.981 149.934 132.924 150.196C132.743 150.55 132.662 150.799 132.681 150.944C132.556 151.108 132.488 151.31 132.48 151.549C132.478 151.597 132.597 151.974 132.837 152.679C132.811 152.726 132.785 152.791 132.758 152.874C132.731 152.957 132.717 153.011 132.716 153.035C132.71 153.226 132.738 153.444 132.802 153.686C132.845 153.832 132.946 154.027 133.105 154.273C132.983 153.644 132.921 153.378 132.917 153.474C132.915 153.522 132.979 153.428 133.107 153.192C132.948 152.923 132.869 152.8 132.868 152.824C132.892 152.825 132.95 152.875 133.043 152.974C133.044 152.926 133.083 152.855 133.158 152.762C133.018 152.661 132.974 152.539 133.027 152.397C133.082 152.183 133.109 152.1 133.108 152.148C133.037 152.097 133.003 152.048 133.005 152C133.037 151.065 133.084 150.406 133.146 150.024C133.224 149.858 133.316 149.609 133.424 149.277ZM134.152 153.193L134.161 152.941C133.993 152.935 133.906 153.016 133.9 153.184L134.152 153.193ZM132.354 149.996C132.306 149.994 132.247 149.968 132.177 149.918C132.176 149.942 132.144 149.995 132.081 150.077C132.018 150.158 131.986 150.211 131.986 150.235C131.923 150.665 131.882 151.132 131.865 151.636C131.864 151.66 131.87 151.828 131.883 152.141C131.896 152.454 131.901 152.67 131.896 152.79C131.94 152.215 132.031 151.354 132.167 150.206C132.216 150.159 132.279 150.09 132.354 149.996ZM137.414 156.729C137.342 156.75 137.256 156.795 137.157 156.864L137.146 157.188C137.147 157.164 137.219 157.154 137.363 157.159C137.365 157.111 137.379 157.04 137.407 156.945L137.414 156.729ZM133.431 153.204L133.373 152.805L133.265 152.802L133.323 153.2L133.431 153.204ZM141.113 162.225L141.005 162.221L141.088 161.9L141.196 161.904L141.113 162.225ZM136.77 156.598L136.231 156.579C136.108 156.671 135.936 156.773 135.716 156.886L136.278 157.301L136.601 157.313C136.632 157.122 136.688 156.884 136.77 156.598ZM136.9 162.186L136.795 162.074L136.757 162.145L136.825 162.256L136.9 162.186ZM136.662 162.79L136.592 162.752L136.671 162.538L136.779 162.542L136.662 162.79ZM137.555 164.046L137.565 163.758L137.673 163.762L137.663 164.05L137.555 164.046ZM137.036 164.46C136.987 164.507 136.938 164.529 136.89 164.527C136.813 164.669 136.761 164.775 136.735 164.846C136.826 164.969 136.896 165.032 136.944 165.033C136.943 165.057 136.906 165.104 136.831 165.174C136.829 165.246 136.887 165.284 137.007 165.288L136.964 165.502C136.963 165.526 136.881 165.476 136.717 165.35C136.634 164.29 136.597 163.64 136.605 163.401C136.607 163.353 136.621 163.281 136.648 163.186C136.676 163.091 136.69 163.019 136.692 162.971C136.668 162.971 136.715 163.008 136.832 163.084L137.016 162.983C136.935 163.22 136.881 163.398 136.853 163.517C136.827 163.564 136.85 163.601 136.921 163.628C136.873 163.626 136.848 163.673 136.844 163.769C136.838 163.961 136.857 164.094 136.902 164.167C136.948 164.241 136.992 164.339 137.036 164.46ZM136.388 165.482C136.27 165.43 136.213 165.344 136.217 165.224C136.148 165.15 136.101 165.112 136.077 165.111C136.025 165.23 135.997 165.337 135.994 165.433C135.997 165.337 135.984 165.186 135.955 164.981C135.927 164.776 135.913 164.649 135.915 164.601C135.913 164.649 135.976 164.555 136.105 164.32C136.13 164.273 136.149 164.081 136.161 163.745C136.182 163.818 136.186 164.046 136.173 164.43C136.159 164.814 136.231 165.165 136.388 165.482ZM133.774 152.675L133.666 152.672L133.682 152.204L133.79 152.208L133.774 152.675Z" fill="url(#paint5_linear_0_1298)"/>
<path fill-rule="evenodd" clip-rule="evenodd" d="M181.724 158.768L181.655 158.8L181.522 158.694L181.575 158.628L181.724 158.768ZM171.659 131.428C171.634 131.495 171.633 131.552 171.654 131.598L171.277 131.69L171.353 131.403C171.376 131.392 171.424 131.39 171.498 131.398C171.571 131.406 171.625 131.416 171.659 131.428ZM180.79 133.208C180.894 133.55 181.034 134.03 181.21 134.647C181.221 134.67 181.234 134.818 181.249 135.09C181.255 135.283 181.303 135.386 181.393 135.4C181.312 135.466 181.187 135.601 181.017 135.806C180.847 136.011 180.739 136.125 180.693 136.146C180.44 136.264 180.196 136.28 179.961 136.194C179.849 136.134 179.728 135.995 179.598 135.776C179.468 135.557 179.367 135.416 179.295 135.351C179.223 135.287 179.108 135.25 178.95 135.24C178.791 135.23 178.685 135.167 178.632 135.053C178.471 134.708 178.552 134.461 178.873 134.311C178.965 134.268 179.095 134.278 179.263 134.339C179.641 133.771 179.945 133.434 180.175 133.327C180.267 133.284 180.472 133.244 180.79 133.208ZM171.505 132.087L171.298 132.183L171.271 131.944C171.405 131.993 171.483 132.041 171.505 132.087ZM175.873 134.62C175.793 134.629 175.696 134.661 175.581 134.714C175.56 134.668 175.55 134.589 175.553 134.476C175.543 134.453 175.649 134.501 175.873 134.62ZM181.494 137.324L181.425 137.356L181.292 137.25L181.345 137.184L181.494 137.324ZM175.921 135.353L175.714 135.449L175.666 135.346L175.872 135.249L175.921 135.353ZM168.431 132.598L168.288 132.832L168.222 132.779L168.364 132.545L168.431 132.598ZM175.496 135.341L175.255 135.453L175.207 135.35L175.448 135.238L175.496 135.341ZM181.751 137.875L181.647 137.923L181.439 137.475L181.542 137.427L181.751 137.875ZM175.539 135.614L175.452 135.697C175.394 135.752 175.342 135.79 175.296 135.812C175.135 135.886 175.012 135.832 174.926 135.648C175.026 135.742 175.23 135.73 175.539 135.614ZM175.323 136.05L175.183 136.199L175.135 136.096L175.241 135.963L175.323 136.05ZM174.499 135.722C174.381 135.889 174.231 136.015 174.047 136.1C174.038 136.021 174.109 135.904 174.261 135.749L174.499 135.722ZM176.751 136.684C176.633 136.851 176.517 137.171 176.402 137.644C176.221 137.616 176.072 137.686 175.954 137.853C175.809 137.781 175.699 137.664 175.624 137.504C175.506 137.251 175.572 136.913 175.821 136.489C175.89 136.457 175.976 136.431 176.079 136.411C176.115 136.31 176.191 136.233 176.306 136.179C176.281 136.246 176.222 136.358 176.127 136.514C176.137 136.537 176.182 136.572 176.26 136.62L176.352 136.367C176.398 136.346 176.483 136.348 176.607 136.374L176.751 136.684ZM174.722 137.547L174.618 137.595L174.538 137.423L174.641 137.375L174.722 137.547ZM182.124 141.013C182.054 141.102 182.007 141.152 181.984 141.162C181.973 141.139 181.963 141.088 181.954 141.009C181.945 140.929 181.935 140.878 181.924 140.855C181.935 140.878 181.968 140.904 182.024 140.934C182.08 140.964 182.113 140.99 182.124 141.013ZM175.745 138.663L175.605 138.812L175.573 138.743L175.679 138.61L175.745 138.663ZM167.171 136.372L166.923 136.739L166.841 136.652L167.105 136.319L167.171 136.372ZM169.541 146.847L169.554 146.875C169.544 146.879 169.54 146.87 169.541 146.847ZM176.678 138.771C176.678 138.772 176.677 138.772 176.677 138.773L176.709 138.842C176.699 138.82 176.689 138.797 176.678 138.771ZM181.24 138.846C181.237 138.87 181.233 138.893 181.229 138.915L181.23 138.872C181.231 138.864 181.234 138.855 181.24 138.846ZM176.667 138.742C176.681 138.742 176.684 138.752 176.678 138.771C176.674 138.762 176.67 138.752 176.667 138.742ZM176.667 138.742C176.613 138.607 176.554 138.423 176.489 138.19C176.517 138.01 176.604 137.717 176.751 137.313L177.176 137.325C177.153 137.336 177.212 137.224 177.355 136.99C177.447 136.947 177.562 136.865 177.702 136.744C177.836 136.793 177.93 136.875 177.984 136.99C178.048 137.128 178.016 137.269 177.887 137.412C177.759 137.556 177.636 137.683 177.52 137.793C177.598 137.841 177.683 137.843 177.775 137.8C177.798 137.79 177.838 137.757 177.896 137.702C177.955 137.647 178.007 137.608 178.053 137.587C178.144 137.544 178.473 137.53 179.04 137.546C179.109 137.514 179.127 137.463 179.095 137.394C179.33 137.48 179.539 137.508 179.722 137.479C179.778 137.481 179.777 137.509 179.719 137.564C179.797 137.612 179.905 137.603 180.043 137.539C180.107 137.677 180.121 137.796 180.084 137.897C180.22 137.89 180.318 137.858 180.376 137.803C180.351 137.871 180.286 137.971 180.18 138.104C180.234 138.219 180.295 138.26 180.364 138.228L180.467 138.18L180.52 138.113C180.584 138.251 180.571 138.341 180.479 138.384C180.433 138.406 180.402 138.399 180.386 138.365C180.37 138.33 180.35 138.318 180.327 138.329C180.315 138.363 180.325 138.414 180.357 138.483C180.453 138.689 180.754 138.885 181.259 139.069C181.328 139.036 181.381 138.97 181.418 138.869C181.454 138.768 181.427 138.739 181.335 138.782C181.287 138.804 181.255 138.826 181.24 138.846C181.268 138.642 181.261 138.387 181.218 138.081C181.142 137.977 181.022 137.781 180.86 137.494L181.067 137.397C181.365 137.677 181.624 137.962 181.842 138.251C181.775 138.227 181.741 138.243 181.739 138.3C181.786 138.641 181.842 138.999 181.905 139.375C181.969 139.751 181.919 140.005 181.757 140.136C181.68 140.451 181.674 140.873 181.739 141.402C181.804 141.931 181.907 142.316 182.048 142.558C181.954 142.658 181.935 142.765 181.988 142.88C182.066 142.927 182.139 142.963 182.206 142.987C182.339 143.093 182.325 143.183 182.165 143.258C182.142 143.269 182.097 143.262 182.029 143.238C181.983 143.678 182.052 144.066 182.236 144.399C182.238 145.125 182.409 146.569 182.746 148.731C182.786 148.936 182.865 149.137 182.985 149.333L182.911 149.535C182.934 149.524 182.968 149.522 183.013 149.529C183.059 149.536 183.098 149.546 183.132 149.558C183.118 149.648 183.128 149.79 183.162 149.984C183.197 150.177 183.212 150.331 183.209 150.444C183.17 150.239 183.019 149.946 182.757 149.565C182.802 150.019 183.013 151.011 183.39 152.54C183.497 152.77 183.636 153.096 183.805 153.52C183.793 153.6 183.798 153.716 183.819 153.868C183.848 153.898 183.98 154.166 184.216 154.671C184.302 154.854 184.438 155.266 184.624 155.906C184.506 155.653 184.184 155.021 183.656 154.009C183.589 153.985 183.511 153.937 183.422 153.867C183.324 153.717 183.212 153.476 183.085 153.144C183.039 153.165 183.015 153.204 183.013 153.261L183.24 154.287L182.965 154.416L182.89 154.345C182.841 154.299 182.81 154.264 182.8 154.241L182.972 154.161C183.007 154.116 183.009 154.06 182.976 153.991C182.966 153.968 182.889 153.878 182.746 153.721C182.603 153.564 182.521 153.434 182.501 153.332C182.434 153.307 182.356 153.26 182.267 153.189C182.198 153.222 182.158 153.254 182.146 153.288C182.178 153.357 182.261 153.416 182.396 153.465C182.449 153.58 182.553 153.741 182.706 153.949L182.637 153.982C182.764 154.314 182.916 154.76 183.093 155.32C183.115 155.366 182.881 155.014 182.391 154.264C182.422 154.389 182.433 154.594 182.425 154.877C182.459 154.889 182.522 154.874 182.614 154.831L183.111 155.899C182.943 155.837 182.827 155.738 182.763 155.6C182.583 155.516 182.526 155.543 182.59 155.68L182.542 155.577C182.544 155.52 182.499 155.513 182.407 155.556C182.269 155.621 182.232 155.722 182.296 155.859C182.318 155.905 182.486 156.176 182.801 156.672C183.116 157.168 183.339 157.526 183.469 157.744C183.421 157.822 183.375 157.872 183.329 157.894C182.763 157.039 182.058 155.887 181.213 154.436C181.206 154.299 181.127 154.071 180.977 153.749C180.91 153.725 180.801 153.761 180.651 153.859C180.48 153.492 180.257 152.925 179.983 152.158C179.973 152.135 179.978 152.042 180 151.878C180.021 151.714 180.016 151.598 179.984 151.529C179.864 151.333 179.601 150.589 179.195 149.297C179.161 149.285 179.121 149.29 179.075 149.311C179.051 149.378 179.065 149.47 179.119 149.584C179.044 149.424 178.993 149.224 178.965 148.985C178.931 148.973 178.901 148.952 178.873 148.923C178.846 148.894 178.815 148.873 178.782 148.861C178.769 148.895 178.739 148.951 178.692 149.029C178.86 149.509 179.001 149.751 179.114 149.754C179.146 149.823 179.116 149.879 179.025 149.922C179.057 149.991 179.122 150.072 179.222 150.165L179.318 150.372L179.077 150.484C179.065 150.518 179.165 150.793 179.378 151.308C179.355 151.319 179.348 151.364 179.357 151.444C179.366 151.523 179.421 151.701 179.521 151.975C179.621 152.25 179.698 152.445 179.751 152.56L179.848 152.766C179.826 152.72 179.777 152.674 179.699 152.626C179.694 152.796 179.701 152.961 179.719 153.12L179.602 153.049C179.567 153.093 179.564 153.206 179.593 153.388L179.694 153.425C179.731 153.324 179.76 153.268 179.783 153.258C179.791 153.394 179.791 153.603 179.783 153.887C179.76 153.897 179.712 153.885 179.64 153.849C179.567 153.813 179.519 153.8 179.496 153.811C179.424 153.537 179.34 153.296 179.244 153.09C179.313 153.058 179.406 152.958 179.524 152.791C179.492 152.723 179.464 152.694 179.442 152.704C179.406 152.749 179.394 152.782 179.405 152.805C179.383 152.759 179.339 152.724 179.272 152.7C179.21 152.868 179.168 152.957 179.145 152.968L178.937 152.52C179.002 152.602 179.021 152.551 178.992 152.369C178.874 152.116 178.794 151.734 178.751 151.223C178.725 150.928 178.696 150.746 178.664 150.677C178.6 150.539 178.466 150.462 178.262 150.445C178.31 150.367 178.33 150.26 178.322 150.124C178.334 150.09 178.312 150.072 178.255 150.071C178.141 150.124 178.105 150.197 178.147 150.289C178.083 150.151 178.104 150.016 178.21 149.882C178.176 149.87 178.113 149.886 178.021 149.928C177.974 149.587 177.908 149.325 177.822 149.141C177.721 149.104 177.636 149.102 177.567 149.134L177.73 149.393C177.771 149.542 177.754 149.774 177.677 150.089C177.709 150.158 177.781 150.222 177.893 150.282C177.879 150.372 177.841 150.53 177.778 150.755L177.913 150.775L177.741 150.856L177.211 149.719C177.098 149.716 176.936 149.819 176.727 150.029L176.766 149.843L176.63 149.822L176.612 149.873L176.304 149.932C176.419 149.879 176.489 149.818 176.513 149.751C176.434 149.76 176.309 149.763 176.139 149.758L176.724 149.485C176.567 149.447 176.396 149.47 176.212 149.556L176.054 149.756C176.037 149.959 176 150.27 175.944 150.688C175.965 150.734 175.986 150.808 176.005 150.91C176.016 150.933 176.038 150.951 176.072 150.963C176.15 151.011 176.143 151.056 176.051 151.099C176.062 151.122 176.116 151.208 176.214 151.358C176.147 151.334 176.044 151.353 175.907 151.418C175.917 151.441 175.903 151.35 175.863 151.144L175.719 150.834C175.699 150.732 175.68 150.573 175.664 150.357C175.647 150.141 175.628 150.01 175.606 149.964C175.489 149.712 175.292 149.65 175.016 149.778C174.947 149.81 174.883 149.882 174.823 149.994C174.736 149.867 174.59 149.837 174.384 149.905C174.178 149.974 173.978 150.039 173.783 150.102L173.581 150.028C173.652 149.939 173.731 149.749 173.818 149.456L172.785 149.938C172.71 149.778 172.73 149.67 172.845 149.617C172.914 149.585 172.953 149.58 172.964 149.603C172.975 149.626 173.003 149.627 173.049 149.605C173.21 149.531 173.381 149.374 173.563 149.135C173.746 148.896 173.821 148.714 173.791 148.589C173.596 148.651 173.247 148.801 172.742 149.036C172.696 149.057 172.668 149.043 172.658 148.991C172.648 148.94 172.62 148.925 172.574 148.946C172.528 148.968 172.516 148.987 172.538 149.005C172.561 149.023 172.549 149.042 172.503 149.064C172.457 149.085 172.409 149.072 172.359 149.026C172.31 148.979 172.262 148.966 172.216 148.988C172.17 149.009 172.152 149.031 172.163 149.054L172.094 149.086C171.747 148.941 171.481 148.911 171.298 148.997C171.344 148.975 171.385 148.914 171.422 148.813L170.889 148.39C170.981 148.348 171.112 148.329 171.282 148.333L171.351 148.301C171.038 148.111 170.791 148.059 170.607 148.145C170.561 148.166 170.526 148.211 170.501 148.278C170.423 148.23 170.363 148.161 170.32 148.069C170.343 148.058 170.391 148.057 170.465 148.064C170.538 148.072 170.586 148.07 170.609 148.06C170.621 148.026 170.617 147.986 170.595 147.94C170.403 147.527 170.081 147.258 169.632 147.132C169.734 147.112 169.844 147.019 169.962 146.852C169.929 146.84 169.867 146.813 169.777 146.771C169.688 146.728 169.621 146.69 169.577 146.655C169.554 146.749 169.542 146.813 169.541 146.847L169.393 146.531C169.46 146.555 169.567 146.575 169.714 146.59C169.639 146.43 169.561 146.172 169.48 145.819C169.399 145.465 169.354 145.277 169.343 145.254C169.321 145.208 169.249 145.144 169.127 145.061C169.038 144.991 168.98 144.836 168.953 144.597C168.885 144.573 168.794 144.587 168.68 144.641C168.724 144.676 168.767 144.768 168.808 144.916C168.718 144.903 168.649 144.935 168.601 145.013C168.563 144.751 168.503 144.367 168.42 143.86C168.338 143.354 168.174 142.627 167.927 141.679C167.963 141.635 167.986 141.386 167.999 140.933C167.898 140.897 167.84 140.923 167.827 141.014C167.851 141.366 167.829 141.767 167.76 142.219C167.853 142.958 167.957 143.692 168.074 144.42C168.237 145.49 168.466 146.25 168.759 146.7C168.764 146.95 168.755 147.051 168.734 147.006C168.787 147.12 168.885 147.27 169.028 147.456C169.093 147.537 169.2 147.585 169.347 147.6C169.325 147.554 169.294 147.667 169.252 147.938C169.239 148.028 169.264 148.142 169.328 148.28C169.446 148.532 169.74 148.744 170.212 148.916C170.111 148.879 169.987 148.853 169.84 148.838C169.945 149.124 169.993 149.256 169.982 149.233C169.89 149.276 169.754 149.283 169.573 149.256C169.466 149.026 169.284 148.664 169.025 148.17C168.767 147.675 168.627 147.405 168.605 147.359C168.338 146.785 168.068 145.877 167.796 144.634C167.704 144.257 167.667 144.072 167.683 144.078C167.7 144.084 167.709 144.059 167.711 144.002C167.619 143.626 167.571 143.432 167.565 143.42C167.56 143.409 167.531 143.136 167.477 142.602C167.474 142.296 167.447 141.848 167.395 141.257C167.367 141.018 167.338 140.655 167.306 140.166C167.365 140.055 167.415 139.892 167.455 139.677C167.38 139.517 167.308 139.271 167.237 138.94C167.26 138.93 167.305 138.937 167.373 138.961C167.445 138.816 167.471 138.692 167.451 138.589C167.384 138.565 167.325 138.62 167.276 138.754C167.191 138.151 167.18 137.709 167.245 137.428C167.498 136.052 167.67 135.342 167.762 135.3C167.831 135.268 167.887 135.269 167.932 135.304L167.998 135.357C168.01 135.323 168.003 135.187 167.975 134.948C168.047 134.803 168.134 134.644 168.235 134.471C168.336 134.298 168.338 134.137 168.24 133.987C168.503 133.892 168.648 133.782 168.674 133.659C168.747 133.876 168.789 133.996 168.8 134.019C168.93 133.819 169.056 133.55 169.179 133.213L169.248 133.181C169.304 133.183 169.356 133.173 169.401 133.151L170.368 131.359C170.404 131.734 170.318 132.179 170.111 132.695C170.135 132.627 170.185 132.674 170.26 132.835L170.088 132.915C170.051 133.016 170.038 133.078 170.049 133.101C170.153 133.025 170.348 132.934 170.634 132.828C170.734 133.341 170.805 133.643 170.848 133.735C170.901 133.85 170.945 133.913 170.978 133.925C171.004 133.802 171.027 133.609 171.045 133.349C171.093 133.271 171.147 133.148 171.208 132.98C171.188 132.877 171.216 132.697 171.291 132.438C171.348 132.859 171.445 133.457 171.582 134.231C171.669 134.358 171.772 134.548 171.889 134.8C171.934 135.255 171.929 135.425 171.876 135.31C171.908 135.379 171.963 135.437 172.041 135.485C172.053 135.451 172.085 135.415 172.137 135.377C172.189 135.338 172.21 135.308 172.199 135.285C172.169 135.159 172.085 135.129 171.947 135.193C171.944 134.887 171.937 134.513 171.926 134.07C171.948 134.116 172.03 134.218 172.173 134.375C172.316 134.532 172.404 134.644 172.436 134.713C172.457 134.759 172.468 134.887 172.468 135.097C172.468 135.306 172.472 135.451 172.482 135.531C172.584 135.93 172.568 136.525 172.433 137.314C172.292 138.33 172.224 138.935 172.23 139.128C172.221 139.468 172.235 139.797 172.271 140.115L172.42 140.255C172.329 140.298 172.254 140.319 172.198 140.317C172.181 140.521 172.239 140.675 172.372 140.781C172.337 140.825 172.286 140.835 172.218 140.811C172.1 141.397 172.068 141.957 172.121 142.491C172.338 143.256 172.591 144.396 172.878 145.912C172.944 146.412 172.955 146.617 172.912 146.525C173.009 146.731 173.142 146.809 173.314 146.757C173.485 146.705 173.645 146.658 173.794 146.617C173.657 146.624 173.53 146.74 173.41 146.963C173.432 147.009 173.465 147.05 173.509 147.085C173.555 147.064 173.636 147.012 173.751 146.93C173.867 146.848 173.959 146.791 174.028 146.759C174.039 146.782 174.014 146.849 173.954 146.961C174.123 147.022 174.23 147.042 174.276 147.021C174.436 146.946 174.669 146.726 174.974 146.36C175.278 145.994 175.466 145.767 175.536 145.678C175.772 145.345 175.905 145.031 175.936 144.737C176.097 144.662 176.245 144.649 176.379 144.698C176.375 144.868 176.325 145.031 176.23 145.187L176.097 145.711L176.129 145.78C176.199 145.691 176.328 145.547 176.514 145.348C176.505 145.268 176.526 145.133 176.577 144.942C176.765 144.686 176.896 144.457 176.969 144.255C176.663 143.839 176.516 143.642 176.526 143.665C176.377 142.925 176.131 141.767 175.788 140.194C175.8 140.16 175.773 140.131 175.706 140.107C175.681 140.174 175.657 140.213 175.634 140.224L175.506 139.948C175.63 139.974 175.703 139.982 175.726 139.971C175.688 139.71 175.585 139.548 175.417 139.487C175.692 139.358 175.908 139.342 176.064 139.437C176.133 139.404 176.14 139.331 176.087 139.216C176.398 139.043 176.578 138.89 176.627 138.755C176.644 138.747 176.657 138.743 176.667 138.742ZM169.019 145.279L168.982 145.38L168.78 145.307L168.817 145.206L169.019 145.279ZM183.519 150.929L183.416 150.977L183.207 150.529L183.31 150.481L183.519 150.929ZM169.076 145.672L168.973 145.72L168.861 145.479L168.964 145.431L169.076 145.672ZM169.134 145.98C169.043 146.023 168.997 146.072 168.996 146.129C169.01 146.038 169.006 145.97 168.984 145.924C169.045 145.931 169.095 145.949 169.134 145.98ZM169.138 145.984C169.19 146.028 169.222 146.095 169.232 146.186L169.138 145.984ZM169.138 145.984C169.137 145.983 169.135 145.982 169.134 145.98C169.135 145.98 169.135 145.98 169.136 145.979L169.138 145.984ZM178.1 149.556L178.026 149.758L178.093 149.811L178.184 149.559L178.1 149.556ZM169.335 146.767L169.232 146.815L169.152 146.643L169.255 146.595L169.335 146.767ZM170.049 147.398C169.968 147.464 169.933 147.509 169.944 147.532L169.863 147.359C169.895 147.428 169.957 147.441 170.049 147.398ZM182.665 152.333L182.756 152.71L182.86 152.662L182.768 152.285L182.665 152.333ZM178.416 151.044L178.313 151.092L178.248 150.955L178.352 150.906L178.416 151.044ZM182.942 152.749C182.919 152.76 182.863 152.758 182.773 152.744C182.794 152.79 182.832 152.842 182.887 152.9C182.942 152.959 182.975 152.999 182.986 153.022C182.932 152.907 182.918 152.816 182.942 152.749ZM183.546 153.683L183.443 153.732L183.539 153.938L183.642 153.89L183.546 153.683ZM183.399 154.716L183.295 154.765L183.199 154.558L183.302 154.51L183.399 154.716ZM182.2 154.395C181.879 154.125 181.653 153.909 181.521 153.747C181.705 154.081 181.829 154.316 181.893 154.454C181.871 154.408 181.873 154.352 181.897 154.284C181.986 154.355 182.073 154.482 182.159 154.666C182.148 154.643 182.149 154.6 182.163 154.538C182.176 154.476 182.188 154.428 182.2 154.395ZM179.099 153.409L178.996 153.457L178.932 153.319L179.035 153.271L179.099 153.409ZM180.821 153.864L180.828 154.238L180.727 154.201L180.752 153.896L180.821 153.864ZM182.122 154.767L182.019 154.815L182.099 154.987L182.203 154.939L182.122 154.767ZM179.384 154.199C179.381 154.312 179.371 154.442 179.356 154.589L179.276 154.417C179.233 154.325 179.269 154.252 179.384 154.199ZM181.477 155.361L181.374 155.409L181.293 155.237L181.397 155.189L181.477 155.361ZM182.707 155.752L182.719 155.956L182.634 155.954L182.622 155.749L182.707 155.752ZM179.473 154.66C179.495 154.706 179.492 154.791 179.466 154.915C179.365 154.878 179.304 154.837 179.283 154.791C179.42 154.727 179.484 154.683 179.473 154.66ZM180.953 157.115C180.916 157.216 180.914 157.301 180.946 157.369C180.914 157.301 180.864 157.282 180.795 157.314L181.068 157.9C181.036 157.831 180.991 157.796 180.935 157.794L180.898 157.895C181.008 158.011 181.179 158.197 181.41 158.453L181.458 158.556C181.282 158.359 181.083 158.172 180.861 157.996L180.508 157.238C180.734 157.245 180.883 157.203 180.953 157.115ZM177.311 138.604L177.228 138.516L177.054 138.682L177.102 138.785L177.311 138.604ZM168.983 142.235L168.887 142.029L168.784 142.077L168.88 142.283L168.983 142.235ZM177.033 145.022C176.919 145.076 176.855 145.119 176.843 145.153C176.674 145.092 176.602 145.056 176.625 145.045C176.646 145.091 176.691 145.126 176.758 145.151C176.723 145.195 176.688 145.421 176.654 145.828C176.691 145.727 176.748 145.7 176.827 145.748C176.865 145.59 176.934 145.348 177.033 145.022ZM171.251 143.232L171.132 143.246L171.125 143.501L171.26 143.521L171.251 143.232ZM169.995 143.147L169.915 142.975L169.812 143.023L169.892 143.195L169.995 143.147ZM169.151 142.954L168.958 142.541L168.855 142.589L169.047 143.002L169.151 142.954ZM171.441 143.73L171.407 143.746C171.395 143.78 171.354 143.813 171.285 143.845C171.239 143.867 171.2 143.843 171.168 143.774C171.136 143.705 171.103 143.664 171.07 143.652C171.063 143.879 171.083 144.01 171.127 144.045L171.368 143.932L171.441 143.73ZM169.229 143.211L169.148 143.039L169.045 143.087L169.125 143.259L169.229 143.211ZM176.507 145.603C176.414 145.702 176.386 145.883 176.425 146.145C176.449 146.077 176.507 146.022 176.599 145.979C176.514 145.796 176.483 145.67 176.507 145.603ZM171.469 144.598L171.292 144.219L171.189 144.268L171.365 144.646L171.469 144.598ZM169.27 143.569C169.267 143.682 169.283 143.926 169.318 144.301C169.509 144.352 169.567 144.297 169.492 144.136C169.46 144.067 169.411 143.992 169.346 143.911C169.284 143.66 169.259 143.546 169.27 143.569ZM171.687 145.335C171.676 145.312 171.643 145.272 171.588 145.213C171.533 145.155 171.5 145.115 171.489 145.092L171.698 145.539C171.655 145.448 171.651 145.38 171.687 145.335ZM177.485 147.789L177.4 147.786L177.395 147.956L177.48 147.959L177.485 147.789ZM176.626 147.476L176.525 147.439L176.346 147.775L176.447 147.811L176.626 147.476ZM172.143 145.416C172.121 145.426 172.081 145.431 172.024 145.429C172.061 145.328 172.052 145.22 171.999 145.106L171.778 145.712C171.711 145.687 171.654 145.686 171.609 145.707C171.869 146.145 172.106 146.593 172.32 147.052C172.332 147.019 172.342 146.86 172.35 146.577C172.419 146.545 172.474 146.575 172.517 146.667C172.496 146.621 172.38 146.521 172.168 146.368C172.26 146.326 172.328 146.35 172.37 146.442C172.198 145.712 172.122 145.37 172.143 145.416ZM170.266 143.188L169.998 143.691C170.085 143.818 170.164 144.019 170.236 144.292C170.236 144.712 170.28 144.985 170.367 145.112C170.327 145.326 170.36 145.548 170.468 145.778C170.489 145.824 170.781 146.121 171.344 146.669C171.343 146.725 171.349 146.799 171.364 146.89C171.378 146.981 171.391 147.038 171.401 147.061C171.487 147.245 171.618 147.436 171.794 147.633C171.904 147.749 172.093 147.885 172.361 148.04C171.945 147.507 171.758 147.286 171.801 147.378C171.822 147.424 171.837 147.306 171.845 147.023C171.566 146.845 171.432 146.768 171.443 146.791C171.466 146.78 171.545 146.799 171.679 146.848C171.658 146.802 171.66 146.717 171.686 146.593C171.506 146.566 171.406 146.472 171.388 146.313C171.338 146.085 171.323 145.994 171.344 146.04C171.254 146.026 171.198 145.996 171.177 145.95C170.759 145.055 170.488 144.413 170.362 144.024C170.356 143.831 170.324 143.553 170.266 143.188ZM172.827 146.522L172.715 146.281C172.554 146.356 172.511 146.474 172.586 146.635L172.827 146.522ZM169.605 144.377C169.559 144.399 169.491 144.402 169.4 144.389C169.411 144.412 169.407 144.477 169.387 144.584C169.367 144.691 169.362 144.756 169.373 144.779C169.52 145.214 169.705 145.672 169.93 146.154C169.941 146.177 170.027 146.333 170.19 146.62C170.352 146.908 170.459 147.109 170.513 147.224C170.279 146.662 169.951 145.809 169.529 144.664C169.553 144.597 169.579 144.501 169.605 144.377ZM177.59 148.285C177.532 148.34 177.473 148.423 177.413 148.535L177.558 148.845C177.547 148.822 177.611 148.778 177.749 148.714C177.727 148.668 177.706 148.594 177.687 148.491L177.59 148.285ZM172.155 146.878L171.909 146.531L171.806 146.579L172.051 146.926L172.155 146.878ZM183.703 151.682L183.599 151.73L183.524 151.388L183.627 151.34L183.703 151.682ZM176.922 148.47L176.406 148.711C176.334 148.857 176.221 149.035 176.068 149.246L176.796 149.368L177.106 149.223C177.043 149.029 176.982 148.778 176.922 148.47ZM179.721 153.664L179.57 153.609L179.568 153.694L179.685 153.765L179.721 153.664ZM179.788 154.346L179.703 154.343L179.675 154.105L179.779 154.056L179.788 154.346ZM181.229 155.099L181.101 154.824L181.204 154.775L181.332 155.051L181.229 155.099ZM180.94 155.737C180.915 155.805 180.88 155.849 180.834 155.87C180.829 156.04 180.832 156.165 180.841 156.245C180.986 156.317 181.082 156.342 181.128 156.32C181.138 156.343 181.125 156.405 181.089 156.506C181.121 156.575 181.194 156.583 181.309 156.529L181.371 156.752C181.382 156.775 181.28 156.767 181.066 156.727C180.48 155.77 180.133 155.177 180.026 154.947C180.005 154.901 179.984 154.827 179.964 154.725C179.944 154.622 179.924 154.548 179.902 154.502C179.879 154.513 179.941 154.526 180.088 154.541L180.212 154.357C180.251 154.619 180.285 154.813 180.316 154.938C180.314 154.995 180.353 155.019 180.433 155.009C180.387 155.031 180.385 155.087 180.428 155.179C180.514 155.363 180.595 155.478 180.673 155.526C180.752 155.573 180.84 155.644 180.94 155.737ZM180.82 157.009C180.684 157.017 180.589 156.963 180.535 156.848C180.434 156.811 180.372 156.798 180.349 156.809C180.357 156.945 180.382 157.059 180.425 157.151C180.382 157.059 180.298 156.924 180.173 156.745C180.047 156.566 179.974 156.453 179.952 156.407C179.974 156.453 179.988 156.335 179.996 156.051C179.998 155.995 179.923 155.806 179.774 155.484C179.829 155.543 179.942 155.755 180.113 156.123C180.284 156.49 180.52 156.785 180.82 157.009ZM172.224 146.217L172.12 146.265L171.911 145.817L172.015 145.769L172.224 146.217Z" fill="url(#paint6_linear_0_1298)"/>
<path fill-rule="evenodd" clip-rule="evenodd" d="M167.023 153.311L166.911 153.381L166.772 153.157L166.883 153.087L167.023 153.311ZM153.651 150.966L153.546 151.109L153.511 151.053L153.57 150.9L153.651 150.966ZM167.614 154.381L167.502 154.451L167.415 154.311L167.527 154.241L167.614 154.381ZM151.265 156.737L151.296 156.912L151.195 156.937L151.191 156.744L151.265 156.737ZM151.506 157.56L151.527 157.78L151.408 157.776L151.404 157.584L151.506 157.56ZM151.464 158.053L151.296 158.158L151.243 158.074L151.411 157.969L151.464 158.053ZM166.128 151.691C166.081 151.617 166.077 151.671 166.114 151.856C166.156 151.881 166.242 152.061 166.373 152.394C166.37 152.474 166.387 152.541 166.422 152.597C166.27 152.355 166.023 152.042 165.68 151.66C165.627 151.615 165.564 151.577 165.491 151.544C164.596 150.444 163.435 149.665 162.008 149.207L161.955 149.435C162.004 149.43 162.068 149.429 162.148 149.431C162.628 149.702 163.118 149.966 163.617 150.225C164.116 150.484 164.498 150.764 164.764 151.065C164.96 151.254 165.522 151.966 166.45 153.202C166.657 153.202 166.796 153.258 166.866 153.37C166.878 153.389 166.943 153.556 167.062 153.871C167.181 154.185 167.277 154.423 167.352 154.584C167.382 154.591 167.424 154.617 167.478 154.661C167.744 155.17 168.128 155.993 168.632 157.131C169.066 158.157 169.34 159.011 169.454 159.692C169.475 159.808 169.563 159.908 169.72 159.992C169.964 161.007 169.984 162.305 169.779 163.886C169.711 164.525 169.683 165.061 169.695 165.495L169.296 166.911C169.298 166.002 169.322 165.001 169.366 163.91L169.23 163.879C169.223 163.909 169.248 163.971 169.307 164.064C169.216 164.043 169.151 164.044 169.114 164.067C169.133 164.056 169.143 164.01 169.146 163.931C169.148 163.852 169.162 163.791 169.188 163.749L168.95 163.431C168.931 163.442 168.844 163.614 168.687 163.945C168.767 163.947 168.895 163.945 169.072 163.938C168.965 164.057 168.831 164.257 168.67 164.54C168.495 165.505 168.297 166.329 168.075 167.013C168.035 167.115 167.926 167.313 167.746 167.607C167.643 167.775 167.612 168.015 167.652 168.328C167.635 168.26 167.608 168.134 167.571 167.95C167.522 167.955 167.404 168.015 167.218 168.132C167.162 168.167 167.113 168.275 167.071 168.457L167.123 168.23C167.144 168.139 167.101 168.049 166.994 167.961C166.968 168.003 166.921 168.071 166.851 168.167C166.832 168.386 166.729 169.177 166.542 170.539C166.561 170.527 166.582 170.54 166.605 170.577C166.638 170.712 166.556 170.997 166.361 171.43C166.384 171.26 166.446 171.027 166.546 170.731C166.553 170.701 166.526 170.678 166.466 170.664C166.319 170.886 166.212 171.069 166.147 171.214C165.753 171.953 165.429 172.596 165.175 173.144C165.217 173.17 165.267 173.23 165.325 173.323C165.269 173.358 165.168 173.486 165.021 173.708C164.874 173.929 164.772 174.057 164.716 174.092C164.679 174.116 164.639 174.114 164.597 174.089C164.555 174.063 164.506 174.068 164.45 174.103C164.226 174.243 164.09 174.419 164.041 174.631C164.158 174.61 164.263 174.57 164.356 174.512C164.3 174.547 164.2 174.636 164.055 174.778L164.282 174.83C164.432 174.737 164.608 174.666 164.811 174.617L164.111 175.054C164.011 174.935 163.891 174.868 163.751 174.851C163.636 175.001 163.45 175.117 163.191 175.201C163.172 175.213 163.133 175.263 163.072 175.353C163.011 175.443 162.962 175.499 162.925 175.523C162.888 175.546 162.757 175.544 162.532 175.516C162.307 175.488 162.136 175.484 162.019 175.505C161.569 175.657 161.363 175.721 161.4 175.698C161.363 175.721 161.315 175.79 161.257 175.904C161.198 176.018 161.141 176.093 161.085 176.128C161.029 176.163 160.918 176.141 160.753 176.063C160.587 175.985 160.443 175.952 160.321 175.963C160.198 175.975 160.009 175.983 159.752 175.988C159.487 175.894 159.033 175.439 158.392 174.62C158.334 174.527 158.002 174.267 157.398 173.84C157.352 173.765 157.278 173.668 157.178 173.549C156.95 173.433 156.661 173.23 156.312 172.942C155.964 172.654 155.716 172.414 155.569 172.22C155.117 171.621 154.826 171.218 154.698 171.013C154.617 170.883 154.164 169.972 153.341 168.281C153.325 168.213 153.298 168.191 153.261 168.215C153.259 168.086 153.235 167.945 153.191 167.791C153.123 167.6 153.018 167.536 152.876 167.599C152.993 167.37 152.881 166.921 152.54 166.252C152.505 166.196 152.454 166.073 152.387 165.881C152.319 165.69 152.262 165.557 152.215 165.483C152.227 165.501 152.269 165.527 152.341 165.56L152.394 165.332C152.186 165.332 152.026 165.367 151.914 165.437C151.716 164.29 151.595 163.016 151.551 161.617C151.532 161.214 151.532 160.591 151.551 159.749C151.588 159.518 151.627 159.04 151.667 158.315C151.711 158.261 151.745 158.15 151.768 157.979C151.791 157.809 151.865 157.491 151.989 157.024C152.033 156.971 152.09 156.896 152.16 156.801C152.407 156.075 152.779 154.948 153.276 153.418C153.283 153.388 153.278 153.307 153.261 153.175C153.243 153.043 153.262 152.96 153.318 152.925C153.356 152.902 153.375 152.902 153.378 152.927C153.38 152.951 153.409 152.946 153.465 152.911C153.596 152.829 153.578 152.614 153.411 152.264C153.244 151.914 153.254 151.681 153.441 151.564C153.478 151.541 153.531 151.521 153.598 151.505C153.666 151.488 153.728 151.463 153.784 151.428C153.84 151.393 153.864 151.39 153.857 151.421C153.843 151.481 153.851 151.515 153.882 151.522L153.955 150.893C153.999 150.839 154.053 150.78 154.116 150.714C154.198 150.222 154.416 149.865 154.77 149.644C154.808 149.621 154.884 149.598 155.001 149.577C155.118 149.556 155.204 149.529 155.26 149.494C155.297 149.47 155.385 149.403 155.522 149.291C155.66 149.179 155.747 149.111 155.785 149.088C156.867 148.412 158.31 148.314 160.115 148.794C160.113 148.874 160.183 148.986 160.325 149.13C160.666 149.177 161.163 149.268 161.819 149.403C161.784 149.347 161.765 149.255 161.763 149.127C161.66 149.087 161.497 149.066 161.275 149.062C161.052 149.059 160.917 149.019 160.871 148.945C160.847 148.908 160.837 148.849 160.839 148.77C160.926 148.742 161.046 148.706 161.2 148.662C163.235 149.179 164.738 150.069 165.708 151.331C165.72 151.35 165.784 151.4 165.901 151.483C166.017 151.566 166.093 151.635 166.128 151.691ZM169.121 164.452L169.069 164.68L168.978 164.659L169.03 164.431L169.121 164.452ZM172.727 165.74C172.898 165.971 172.871 166.156 172.647 166.296L172.395 166.453C172.19 166.582 172.023 166.543 171.895 166.338C171.906 166.357 171.911 166.302 171.909 166.174C171.844 166.111 171.723 165.939 171.549 165.659L171.744 165.537C172.108 165.621 172.327 165.64 172.402 165.593C172.439 165.57 172.465 165.528 172.479 165.467L172.5 165.376L172.727 165.74ZM171.486 166.555C171.474 166.536 171.475 166.704 171.489 167.058C171.536 167.133 171.578 167.263 171.615 167.447C171.545 167.957 171.379 168.294 171.118 168.458C171.099 168.469 171.013 168.497 170.859 168.542C170.736 168.593 170.652 168.645 170.607 168.699C170.579 168.613 170.483 168.511 170.319 168.393C170.154 168.275 170.055 168.188 170.02 168.132C170.066 168.207 170.02 167.925 169.88 167.286C169.938 167.171 169.966 167.05 169.964 166.922C169.854 166.913 169.783 166.944 169.75 167.016C170.026 166.585 170.173 166.363 170.191 166.352C170.247 166.317 170.352 166.277 170.506 166.233C170.66 166.189 170.765 166.149 170.821 166.114L170.891 166.226C170.968 166.308 170.997 166.354 170.978 166.366C171.281 166.436 171.451 166.499 171.486 166.555ZM151.026 159.844C151.138 159.981 151.183 160.343 151.159 160.928C151.143 161.276 151.123 161.638 151.1 162.016C151.1 162.223 151.133 162.63 151.201 163.237C151.276 163.605 151.351 164.142 151.428 164.846C151.426 164.925 151.433 165.05 151.449 165.222C151.465 165.393 151.529 165.671 151.64 166.056C151.75 166.441 151.823 166.681 151.857 166.777C151.89 166.872 151.861 166.949 151.767 167.008L151.645 166.812C151.668 166.849 151.54 166.229 151.26 164.951C150.936 163.311 150.858 161.609 151.026 159.844ZM169.866 168.384L169.81 168.419L169.638 168.332L169.705 168.251L169.866 168.384ZM151.055 157.024C151.069 157.171 151.071 157.403 151.062 157.72C150.933 158.345 150.818 159.261 150.715 160.466C150.715 160.674 150.696 160.893 150.659 161.124C150.573 161.567 150.555 162.058 150.606 162.597C150.667 163.026 150.718 163.461 150.76 163.901C150.867 165.443 151.239 166.806 151.876 167.991C152.02 168.263 152.239 168.717 152.531 169.351C152.824 169.986 152.982 170.322 153.005 170.359C153.029 170.396 153.171 170.541 153.432 170.793C153.693 171.045 153.841 171.198 153.876 171.254C153.958 171.385 153.999 171.482 154 171.547C154.002 171.611 153.992 171.688 153.971 171.779C154.057 171.959 154.165 172.111 154.296 172.237C154.224 172.205 154.105 172.097 153.939 171.916C153.927 171.897 153.814 171.903 153.6 171.933C153.243 171.611 153.018 171.376 152.925 171.226C153.03 171.394 152.728 170.766 152.019 169.341C151.886 169.087 151.681 168.592 151.403 167.858C151.326 167.776 151.241 167.661 151.148 167.511C150.596 165.963 150.287 163.912 150.222 161.358C150.236 161.09 150.284 160.71 150.365 160.218C150.526 159.521 150.756 158.456 151.055 157.024ZM166.235 171.665L166.154 171.91L166.046 171.861L166.126 171.616L166.235 171.665ZM156.408 173.875C156.348 173.861 156.298 173.905 156.258 174.008C156.414 174.092 156.527 174.189 156.597 174.301C156.488 174.292 156.164 174.002 155.625 173.43C155.616 173.54 155.522 173.598 155.345 173.605C155.182 173.344 154.906 172.985 154.516 172.528C154.609 172.469 154.686 172.447 154.747 172.461C154.784 172.438 154.804 172.387 154.807 172.307C154.772 172.251 154.701 172.159 154.595 172.031C154.489 171.903 154.413 171.801 154.366 171.727C153.48 170.309 153.035 169.472 153.03 169.215C154.464 171.51 155.514 173.046 156.181 173.822C156.344 173.876 156.42 173.893 156.408 173.875ZM158.079 153.258C157.746 153.181 157.56 153.154 157.523 153.177L157.243 153.352C157.409 153.326 157.687 153.295 158.079 153.258ZM155.078 155.367C154.966 155.644 154.82 156.034 154.64 156.535C154.633 156.565 154.644 156.624 154.672 156.71C154.7 156.796 154.686 156.857 154.63 156.892L154.833 156.843C154.793 156.53 154.856 156.257 155.021 156.024C155.187 155.791 155.206 155.572 155.078 155.367ZM154.738 157.252L154.609 157.294C154.578 157.495 154.542 157.79 154.5 158.179L154.616 157.679C154.665 157.467 154.705 157.324 154.738 157.252ZM169.107 162.126C169.058 162.131 169.006 162.151 168.95 162.186C168.894 162.221 168.853 162.259 168.827 162.301C168.888 162.315 168.945 162.344 168.999 162.388C169.006 162.358 169.024 162.314 169.053 162.257C169.082 162.2 169.1 162.156 169.107 162.126ZM154.325 159.144L154.206 159.141L154.217 159.407L154.308 159.428L154.325 159.144ZM154.224 159.48L154.14 159.533L154.189 159.736L154.308 159.739L154.224 159.48ZM154.024 160.344C153.984 160.447 153.936 160.555 153.877 160.669L154.052 160.949C154.115 160.677 154.106 160.475 154.024 160.344ZM154.052 160.949C153.921 161.238 153.867 161.441 153.888 161.558C153.948 161.572 154.012 161.571 154.08 161.554C154.026 161.303 154.017 161.101 154.052 160.949ZM161.79 155.958C161.382 155.305 160.759 154.683 159.922 154.09C159.719 153.932 159.456 153.759 159.132 153.573C158.91 153.633 158.615 153.701 158.247 153.775C158.149 153.785 157.931 153.778 157.593 153.756C157.255 153.734 157.067 153.734 157.03 153.758C156.936 153.816 156.841 154.057 156.743 154.482C156.677 154.419 156.582 154.349 156.456 154.272C156.432 154.65 156.456 154.895 156.526 155.006C156.465 154.992 156.416 154.997 156.379 155.02C156.136 155.172 155.798 156.188 155.364 158.067C155.301 158.34 155.212 158.862 155.098 159.634C154.939 160.875 154.992 162.1 155.255 163.311C155.355 163.637 155.471 164.071 155.601 164.612L155.741 164.836C155.737 164.994 155.755 165.19 155.797 165.423C155.97 165.99 156.12 166.376 156.248 166.581C156.265 166.649 156.276 166.771 156.283 166.949C156.223 166.935 156.169 166.89 156.122 166.816L156.423 167.484C156.442 167.472 156.464 167.445 156.49 167.403C156.515 167.361 156.556 167.323 156.612 167.288C156.631 167.276 156.685 167.281 156.776 167.302L157.773 168.897C157.824 169.021 157.795 169.285 157.686 169.691C157.469 169.593 157.273 169.352 157.098 168.969C156.923 168.585 156.775 168.379 156.654 168.351C156.98 169.289 157.132 169.739 157.108 169.702C157.167 169.795 157.295 169.896 157.493 170.006C157.619 170.083 157.68 170.201 157.675 170.359L158.221 170.485L158.182 170.548L158.501 170.622C158.913 170.909 159.476 171.374 160.19 172.018C160.579 172.475 160.933 172.604 161.25 172.406C161.287 172.383 161.488 172.205 161.852 171.874C162.215 171.543 162.416 171.366 162.453 171.343C162.509 171.308 162.579 171.284 162.661 171.271L162.786 171.252C162.683 171.212 162.603 171.146 162.544 171.052C162.311 170.679 162.418 170.353 162.866 170.073C162.903 170.05 162.961 170.027 163.038 170.005C163.115 169.983 163.172 169.96 163.209 169.937C163.228 169.925 163.545 169.415 164.161 168.408L164.038 168.212C164.001 168.235 163.904 168.413 163.748 168.744L163.52 168.691C163.607 168.456 163.843 167.88 164.231 166.963C164.147 166.704 164.111 166.584 164.122 166.603C164.029 166.661 163.967 166.687 163.937 166.68C163.944 166.65 164.013 166.594 164.143 166.512C164.05 166.363 163.959 166.134 163.87 165.826C163.871 165.411 163.939 164.94 164.077 164.413C163.984 164.472 163.922 164.497 163.892 164.49C163.943 164.406 164.011 164.286 164.095 164.13C164.055 162.157 163.802 160.694 163.336 159.74C163.324 159.721 163.134 159.23 162.766 158.267C162.414 157.372 162.197 156.859 162.115 156.728C162.092 156.691 162.02 156.658 161.898 156.63C161.777 156.602 161.705 156.569 161.682 156.532C161.577 156.364 161.613 156.173 161.79 155.958ZM165.238 169.136L165.157 169.069L165.098 169.223L165.15 169.307L165.238 169.136ZM156.497 167.788L156.374 167.592L156.262 167.662L156.385 167.858L156.497 167.788ZM165.105 169.297L164.909 169.419C164.419 170.296 164.025 170.827 163.727 171.014C163.671 171.049 163.636 171.045 163.622 171.002C163.608 170.959 163.582 170.949 163.545 170.972C163.507 170.995 163.378 171.193 163.156 171.565C162.935 171.937 162.805 172.134 162.768 172.158L162.096 172.577L162.289 172.885L162.562 172.948C162.618 172.913 162.686 172.857 162.768 172.78C162.85 172.703 162.909 172.653 162.946 172.63C163.208 172.467 163.417 172.18 163.576 171.77L163.618 172.21C163.637 172.199 163.737 172.214 163.919 172.256C164.101 172.09 164.299 171.785 164.514 171.339C164.677 170.978 164.831 170.622 164.975 170.273C164.959 170.205 164.946 170.122 164.937 170.024C165.021 169.868 165.077 169.625 165.105 169.297ZM158.413 170.793L158.361 170.709L158.221 170.797L158.273 170.881L158.413 170.793ZM159.704 172.672L159.473 172.427L159.361 172.497L159.62 172.724L159.704 172.672ZM155.114 172.738L154.887 172.374L154.803 172.426L155.03 172.79L155.114 172.738ZM156.235 158.029L156.141 158.438L156.05 158.417L156.144 158.008L156.235 158.029ZM156.074 158.518L155.98 158.928L155.889 158.907L155.983 158.497L156.074 158.518ZM163.108 160.621L163.143 160.989L163.07 160.996L163.024 160.674L163.108 160.621ZM155.69 160.079C155.665 160.27 155.648 160.411 155.64 160.502C155.482 160.29 155.449 160.154 155.542 160.096C155.598 160.061 155.632 160.053 155.644 160.071C155.652 160.085 155.668 160.088 155.69 160.079ZM155.693 160.054C155.675 160.046 155.647 160.033 155.609 160.016C155.583 159.85 155.644 159.656 155.791 159.435C155.77 159.526 155.742 159.699 155.707 159.954C155.702 159.989 155.697 160.022 155.693 160.054ZM155.693 160.054C155.709 160.061 155.717 160.065 155.717 160.065C155.707 160.071 155.698 160.076 155.69 160.079C155.691 160.07 155.692 160.062 155.693 160.054ZM155.637 160.621L155.64 160.813L155.567 160.82L155.535 160.645L155.637 160.621ZM155.441 161.988C155.415 162.03 155.431 162.098 155.49 162.191L155.241 162.23C155.335 162.171 155.401 162.091 155.441 161.988ZM155.615 163.202L155.532 163.255L155.444 163.115L155.528 163.062L155.615 163.202ZM163.164 167.98C163.117 168.071 163.073 168.151 163.031 168.219C163.077 168.086 163.119 168.008 163.157 167.985C163.159 167.983 163.162 167.982 163.164 167.98ZM163.164 167.98C163.29 167.737 163.434 167.413 163.598 167.009C163.458 167.615 163.36 167.936 163.304 167.971C163.266 167.994 163.246 167.993 163.244 167.969C163.242 167.946 163.215 167.949 163.164 167.98ZM162.968 169.114C163.073 169.282 163.099 169.408 163.048 169.492L162.74 169.685C162.743 169.605 162.818 169.415 162.968 169.114ZM157.77 169.95L157.686 170.002L157.542 169.898L157.581 169.835L157.77 169.95ZM159.27 169.674C159.375 169.842 159.362 169.966 159.232 170.048C159.194 170.071 159.115 170.069 158.994 170.041C158.973 170.132 158.98 170.205 159.015 170.261C159.166 170.504 159.515 170.896 160.061 171.437C159.858 171.486 159.697 171.457 159.578 171.349C159.191 171.021 158.828 170.586 158.49 170.045C158.467 170.007 158.43 169.927 158.378 169.803C158.327 169.68 158.278 169.58 158.231 169.506C158.362 169.424 158.416 169.365 158.392 169.327C158.908 169.446 159.2 169.562 159.27 169.674Z" fill="url(#paint7_linear_0_1298)"/>
<path fill-rule="evenodd" clip-rule="evenodd" d="M148.427 136.383C148.318 137.206 147.889 137.538 147.141 137.379L146.299 137.201C145.614 137.055 145.344 136.639 145.49 135.954C145.477 136.016 145.596 135.911 145.85 135.639C145.84 135.377 145.935 134.778 146.134 133.843L146.788 133.983C147.377 134.889 147.796 135.369 148.045 135.422C148.17 135.449 148.308 135.413 148.459 135.315L148.686 135.168L148.427 136.383Z" fill="url(#paint8_linear_0_1298)"/>
<path fill-rule="evenodd" clip-rule="evenodd" d="M154.563 137.322C154.301 136.837 154.402 136.491 154.865 136.285L155.386 136.053C155.811 135.864 156.118 135.982 156.307 136.407C156.289 136.368 156.266 136.471 156.236 136.716C156.343 136.853 156.526 137.211 156.784 137.79L156.378 137.971C155.709 137.713 155.297 137.619 155.142 137.688C155.065 137.723 155.005 137.795 154.962 137.907L154.898 138.074L154.563 137.322Z" fill="url(#paint9_linear_0_1298)"/>
<path fill-rule="evenodd" clip-rule="evenodd" d="M179.317 162.606C178.894 163.093 178.964 163.546 179.526 163.964L180.318 164.651L180.302 164.424C180.291 164.272 180.321 164.156 180.392 164.075C180.533 163.912 181.058 163.799 181.968 163.736L182.339 163.31C181.73 162.781 181.327 162.466 181.129 162.365C181.032 162.067 181.004 161.936 181.045 161.971C180.598 161.583 180.181 161.612 179.793 162.059L179.317 162.606ZM174.885 162.493C175.171 163.311 175.293 163.703 175.253 163.667C175.374 163.773 175.814 163.799 176.573 163.746C176.537 163.787 176.639 163.875 176.877 164.011L177.12 164.223C177.226 164.101 177.443 163.933 177.771 163.72C178.099 163.506 178.316 163.339 178.422 163.217C178.456 163.178 178.631 162.592 178.946 161.461C178.962 161.427 178.972 161.389 178.977 161.349C178.967 161.387 178.956 161.424 178.946 161.461C178.887 161.59 178.754 161.678 178.546 161.722C178.449 161.424 178.428 161.121 178.482 160.812C177.699 159.419 177.389 158.793 177.551 158.934C177.429 158.828 177.134 158.696 176.666 158.539C176.198 158.381 175.9 158.211 175.773 158.03C175.708 158.187 175.549 158.369 175.297 158.577C174.969 158.791 174.787 158.918 174.752 158.958C174.258 159.526 174.112 160.432 174.313 161.675C174.532 162.079 174.722 162.352 174.885 162.493Z" fill="url(#paint10_linear_0_1298)"/>
<path fill-rule="evenodd" clip-rule="evenodd" d="M144.162 167.613C144.17 167.621 144.144 167.538 144.083 167.364C144.049 167.334 144.008 167.276 143.962 167.19C143.919 166.926 143.95 166.733 144.055 166.612C144.063 166.604 144.101 166.577 144.171 166.531C144.225 166.487 144.258 166.448 144.272 166.415C144.299 166.453 144.363 166.489 144.462 166.523C144.562 166.557 144.624 166.585 144.65 166.607C144.616 166.577 144.682 166.71 144.848 167.006C144.837 167.072 144.841 167.136 144.862 167.2C144.918 167.188 144.948 167.161 144.953 167.121C144.882 167.377 144.843 167.509 144.835 167.518C144.813 167.544 144.767 167.579 144.697 167.625C144.627 167.67 144.581 167.706 144.559 167.731L144.507 167.686C144.456 167.658 144.435 167.639 144.442 167.63C144.281 167.641 144.187 167.636 144.162 167.613Z" fill="url(#paint11_linear_0_1298)"/>
<path fill-rule="evenodd" clip-rule="evenodd" d="M144.846 170.54C144.845 170.572 144.986 170.368 145.27 169.926C145.277 169.795 145.336 169.603 145.447 169.347C145.966 168.787 146.453 168.519 146.909 168.543C146.942 168.545 147.07 168.584 147.295 168.661C147.488 168.704 147.635 168.711 147.734 168.684C147.695 168.812 147.725 169.018 147.824 169.301C147.923 169.583 147.971 169.773 147.965 169.871C147.972 169.741 147.789 170.123 147.416 171.017C147.248 171.106 147.111 171.23 147.005 171.387C147.13 171.492 147.243 171.514 147.344 171.454C146.643 171.744 146.277 171.888 146.244 171.886C146.147 171.881 145.986 171.84 145.761 171.763C145.537 171.686 145.376 171.645 145.278 171.64L145.288 171.444C145.264 171.28 145.269 171.198 145.301 171.2C144.993 170.858 144.841 170.637 144.846 170.54Z" fill="url(#paint12_linear_0_1298)"/>
<circle cx="158" cy="155" r="53.5" stroke="url(#paint13_linear_0_1298)" stroke-width="7"/>
<path fill-rule="evenodd" clip-rule="evenodd" d="M176.272 266.854C169.997 259.863 174.385 239.636 188.649 228.332C202.913 217.029 213.562 224.956 213.562 224.956L283.374 150.318C287.295 146.126 294.037 146.442 297.548 150.983C300.654 155 299.971 160.765 296.012 163.945L224.647 221.264C224.647 221.264 223.919 246.581 213.562 259.428C203.204 272.275 182.546 273.845 176.272 266.854Z" fill="#44556B" fill-opacity="0.299677" style="mix-blend-mode:multiply"/>
<path fill-rule="evenodd" clip-rule="evenodd" d="M175.312 266.766C168.565 260.23 168.484 242.228 181.925 229.957C195.365 217.685 213.831 219.481 213.831 219.481L281.27 141.657C284.459 137.978 290.065 137.679 293.626 141C297.235 144.365 297.275 150.072 293.714 153.487L219.241 224.918C219.241 224.918 221.428 243.218 211.993 256.757C202.557 270.295 182.059 273.302 175.312 266.766Z" fill="url(#paint14_linear_0_1298)"/>
<mask id="mask1_0_1298" style="mask-type:luminance" maskUnits="userSpaceOnUse" x="170" y="138" width="127" height="133">
<path fill-rule="evenodd" clip-rule="evenodd" d="M175.312 266.766C168.565 260.23 168.484 242.228 181.925 229.957C195.365 217.685 213.831 219.481 213.831 219.481L281.27 141.657C284.459 137.978 290.065 137.679 293.626 141C297.235 144.365 297.275 150.072 293.714 153.487L219.241 224.918C219.241 224.918 221.428 243.218 211.993 256.757C202.557 270.295 182.059 273.302 175.312 266.766Z" fill="white"/>
</mask>
<g mask="url(#mask1_0_1298)">
<ellipse opacity="0.188406" cx="193.087" cy="257.974" rx="22.4154" ry="26.075" transform="rotate(-158 193.087 257.974)" fill="white"/>
</g>
<circle cx="428.5" cy="6.5" r="103.5" fill="#4FB8FF" fill-opacity="0.2" style="mix-blend-mode:multiply"/>
<g filter="url(#filter1_d_0_1298)">
<circle cx="412.5" cy="-17.5" r="103.5" fill="url(#paint15_linear_0_1298)"/>
</g>
<mask id="mask2_0_1298" style="mask-type:luminance" maskUnits="userSpaceOnUse" x="309" y="-121" width="207" height="207">
<circle cx="412.5" cy="-17.5" r="103.5" fill="white"/>
</mask>
<g mask="url(#mask2_0_1298)">
<circle cx="370.5" cy="-80.5" r="103.5" fill="#F4F9FF"/>
</g>
<circle cx="412.5" cy="-17.5" r="68.5" fill="#F4E78C"/>
<g filter="url(#filter2_d_0_1298)">
<path d="M406.738 -91.8242C415.099 -83.9081 418.258 -70.6497 404.749 -59.8603C391.24 -49.0709 355.863 -30.3853 349.525 -22.8054C343.186 -15.2256 343.869 -3.13883 361.702 -2.36729C379.535 -1.59576 430.6 -33.8322 430.6 -33.8322C430.6 -33.8322 447.478 -43.2475 457.635 -28.692C467.791 -14.1366 398.042 15.7549 391.686 24.4553C385.331 33.1558 394.125 52.2275 411.5 46.3612C428.875 40.4948 408.26 4.3827 418.575 -6.72666C428.89 -17.836 471.686 -35.1557 457.635 -52.768C443.584 -70.3803 397.535 -33.5425 381.26 -27.1895C364.985 -20.8365 351.551 -40.4272 351.551 -52.768" stroke="#FFFABE" stroke-width="5" stroke-linecap="round" stroke-linejoin="round"/>
</g>
<g filter="url(#filter3_d_0_1298)">
<path d="M347.784 -50.0625C347.871 -38.549 355.413 -27.1961 372.517 -29.7179C389.621 -32.2397 427.414 -45.369 437.28 -44.8351C447.147 -44.3013 455.521 -35.5586 443.923 -21.9904C432.325 -8.42217 373.922 6.93963 373.922 6.93963C373.922 6.93963 347.095 18.4766 361.444 34.3286C375.793 50.1807 418.448 13.7972 443.091 18.2318C467.733 22.6664 467.125 48.1924 447.01 48.0363C426.895 47.8802 417.107 16.6636 401.947 16.631C386.788 16.5983 344.934 36.0851 341.636 13.7972C338.338 -8.49071 396.685 -17.045 412.431 -24.6151C428.176 -32.1852 423.011 -55.371 413.985 -63.7874" stroke="#FFFABE" stroke-width="5" stroke-linecap="round" stroke-linejoin="round"/>
</g>
<g filter="url(#filter4_d_0_1298)">
<path d="M466.712 -10.3086C457.953 -4.86532 444.476 -4.23717 435.278 -16.3143C426.08 -28.3914 411.469 -58.6858 404.66 -64.7025C397.851 -70.7193 385.807 -71.8668 383.081 -58.0142C380.355 -44.1616 406.659 0.300406 406.659 0.300406C406.659 0.300406 415.356 22.8642 394.059 21.3138C372.762 19.7634 372.57 -24.728 353.22 -38.2746C333.871 -51.8211 314.972 -39.2435 328.149 -26.5313C341.326 -13.8191 371.274 -22.5065 381.141 -12.8855C391.007 -3.26452 403.45 32.6475 422.437 24.0991C441.423 15.5506 410.01 -25.6241 405.51 -39.2489C401.009 -52.8736 421.887 -60.6636 434.108 -58.9461" stroke="#FFFABE" stroke-width="5" stroke-linecap="round" stroke-linejoin="round"/>
</g>
<g filter="url(#filter5_d_0_1298)">
<path d="M433.61 66.413C424.763 58.8009 421.062 45.6637 434.533 34.3973C448.005 23.1309 483.616 3.19029 489.848 -4.61181C496.081 -12.4139 494.959 -24.4689 476.653 -24.6016C458.346 -24.7343 407.126 9.31045 407.126 9.31045C407.126 9.31045 380.132 22.0127 377.536 0.784812C374.94 -20.443 431.812 -28.8151 444.981 -50.3345C458.149 -71.854 437.996 -88.1249 424.567 -72.8291C411.139 -57.5333 428.692 -29.6809 418.506 -18.209C408.32 -6.73721 365.057 12.1038 380.074 29.2024C395.092 46.301 441.009 7.8373 457.47 0.905586C473.932 -6.02612 488.386 13.0718 488.817 25.4051" stroke="#FFFABE" stroke-width="5" stroke-linecap="round" stroke-linejoin="round"/>
</g>
<path fill-rule="evenodd" clip-rule="evenodd" d="M372.721 31.3446C371.651 30.1563 371.828 28.4157 373.116 27.4568L377.595 24.1228L374.204 23.8462C372.603 23.7157 371.531 22.3333 371.808 20.7586C372.086 19.1839 373.567 18.2517 375.115 18.6765L381.587 20.4515C381.729 20.4904 381.867 20.5352 382.002 20.585C382.498 20.5579 383.003 20.8817 383.407 21.4229C383.903 21.8817 384.172 22.4168 384.093 22.9081C384.129 23.0468 384.159 23.1892 384.183 23.3346L385.272 29.9561C385.532 31.5408 384.45 32.9158 382.855 33.0274C381.26 33.1389 379.997 31.9278 380.035 30.3223L380.099 27.5923L376.629 31.3579C375.54 32.5388 373.791 32.5329 372.721 31.3446Z" fill="url(#paint16_linear_0_1298)"/>
<circle cx="371.5" cy="-4.5" r="12.5" fill="#FF8A5A"/>
<circle cx="372" cy="-4" r="7" fill="#FF9C73"/>
<g clip-path="url(#clip1_0_1298)">
<circle cx="-40.5" cy="-18.5" r="112.5" fill="#4FB8FF" fill-opacity="0.2" style="mix-blend-mode:multiply"/>
<g filter="url(#filter6_d_0_1298)">
<circle cx="-50.5" cy="-43.5" r="112.5" fill="url(#paint17_linear_0_1298)"/>
</g>
<circle cx="-50" cy="-43" r="73" fill="url(#paint18_linear_0_1298)"/>
<path fill-rule="evenodd" clip-rule="evenodd" d="M-8.31203 -41C-11.3102 -12.34 -35.5462 10 -65 10C-96.4802 10 -122 -15.5198 -122 -47C-122 -78.4802 -96.4802 -104 -65 -104C-36.9314 -104 -13.6014 -83.7119 -8.87428 -57H6C10.4183 -57 14 -53.4183 14 -49C14 -44.5817 10.4183 -41 6 -41H-8.31203Z" fill="#44556B" fill-opacity="0.299677" style="mix-blend-mode:multiply"/>
<path fill-rule="evenodd" clip-rule="evenodd" d="M-55.7281 48.8539C-62.0026 41.8631 -57.6146 21.6361 -43.351 10.3323C-29.0873 -0.971485 -18.4385 6.95623 -18.4385 6.95623L51.3743 -67.6821C55.295 -71.8738 62.0369 -71.5575 65.5479 -67.0172C68.6545 -62.9999 67.9714 -57.2347 64.012 -54.0546L-7.35306 3.26424C-7.35306 3.26424 -8.08138 28.5805 -18.4385 41.4278C-28.7956 54.2751 -49.4536 55.8447 -55.7281 48.8539Z" fill="#44556B" fill-opacity="0.299677" style="mix-blend-mode:multiply"/>
<path fill-rule="evenodd" clip-rule="evenodd" d="M-56.6882 48.7658C-63.435 42.2297 -63.5155 24.2277 -50.0751 11.9565C-36.6348 -0.314706 -18.1685 1.48087 -18.1685 1.48087L49.2702 -76.3427C52.4589 -80.0224 58.0648 -80.3206 61.6258 -76.9999C65.2347 -73.6346 65.2748 -67.9283 61.7136 -64.5126L-12.7587 6.91765C-12.7587 6.91765 -10.5717 25.2182 -20.0074 38.7566C-29.4431 52.2951 -49.9413 55.3019 -56.6882 48.7658Z" fill="url(#paint19_linear_0_1298)"/>
<mask id="mask3_0_1298" style="mask-type:luminance" maskUnits="userSpaceOnUse" x="-62" y="-80" width="127" height="133">
<path fill-rule="evenodd" clip-rule="evenodd" d="M-56.6882 48.7658C-63.435 42.2297 -63.5155 24.2277 -50.0751 11.9565C-36.6348 -0.314706 -18.1685 1.48087 -18.1685 1.48087L49.2702 -76.3427C52.4589 -80.0224 58.0648 -80.3206 61.6258 -76.9999C65.2347 -73.6346 65.2748 -67.9283 61.7136 -64.5126L-12.7587 6.91765C-12.7587 6.91765 -10.5717 25.2182 -20.0074 38.7566C-29.4431 52.2951 -49.9413 55.3019 -56.6882 48.7658Z" fill="white"/>
</mask>
<g mask="url(#mask3_0_1298)">
</g>
</g>
<g opacity="0.200068">
<rect width="375" height="22" fill="#302C48" style="mix-blend-mode:multiply"/>
</g>
</g>
<defs>
<filter id="filter0_d_0_1298" x="62" y="61" width="241" height="241" filterUnits="userSpaceOnUse" color-interpolation-filters="sRGB">
<feFlood flood-opacity="0" result="BackgroundImageFix"/>
<feColorMatrix in="SourceAlpha" type="matrix" values="0 0 0 0 0 0 0 0 0 0 0 0 0 0 0 0 0 0 127 0" result="hardAlpha"/>
<feOffset dx="1" dy="7"/>
<feGaussianBlur stdDeviation="4"/>
<feColorMatrix type="matrix" values="0 0 0 0 0 0 0 0 0 0 0 0 0 0 0 0 0 0 0.158769 0"/>
<feBlend mode="normal" in2="BackgroundImageFix" result="effect1_dropShadow_0_1298"/>
<feBlend mode="normal" in="SourceGraphic" in2="effect1_dropShadow_0_1298" result="shape"/>
</filter>
<filter id="filter1_d_0_1298" x="302" y="-122" width="223" height="223" filterUnits="userSpaceOnUse" color-interpolation-filters="sRGB">
<feFlood flood-opacity="0" result="BackgroundImageFix"/>
<feColorMatrix in="SourceAlpha" type="matrix" values="0 0 0 0 0 0 0 0 0 0 0 0 0 0 0 0 0 0 127 0" result="hardAlpha"/>
<feOffset dx="1" dy="7"/>
<feGaussianBlur stdDeviation="4"/>
<feColorMatrix type="matrix" values="0 0 0 0 0 0 0 0 0 0 0 0 0 0 0 0 0 0 0.158769 0"/>
<feBlend mode="normal" in2="BackgroundImageFix" result="effect1_dropShadow_0_1298"/>
<feBlend mode="normal" in="SourceGraphic" in2="effect1_dropShadow_0_1298" result="shape"/>
</filter>
<filter id="filter2_d_0_1298" x="343.378" y="-94.3242" width="121.561" height="148.287" filterUnits="userSpaceOnUse" color-interpolation-filters="sRGB">
<feFlood flood-opacity="0" result="BackgroundImageFix"/>
<feColorMatrix in="SourceAlpha" type="matrix" values="0 0 0 0 0 0 0 0 0 0 0 0 0 0 0 0 0 0 127 0" result="hardAlpha"/>
<feOffset dx="2" dy="4"/>
<feColorMatrix type="matrix" values="0 0 0 0 0.212311 0 0 0 0 0.219121 0 0 0 0 0.221328 0 0 0 1 0"/>
<feBlend mode="normal" in2="BackgroundImageFix" result="effect1_dropShadow_0_1298"/>
<feBlend mode="normal" in="SourceGraphic" in2="effect1_dropShadow_0_1298" result="shape"/>
</filter>
<filter id="filter3_d_0_1298" x="339" y="-66.2874" width="127.357" height="120.824" filterUnits="userSpaceOnUse" color-interpolation-filters="sRGB">
<feFlood flood-opacity="0" result="BackgroundImageFix"/>
<feColorMatrix in="SourceAlpha" type="matrix" values="0 0 0 0 0 0 0 0 0 0 0 0 0 0 0 0 0 0 127 0" result="hardAlpha"/>
<feOffset dx="2" dy="4"/>
<feColorMatrix type="matrix" values="0 0 0 0 0.212311 0 0 0 0 0.219121 0 0 0 0 0.221328 0 0 0 1 0"/>
<feBlend mode="normal" in2="BackgroundImageFix" result="effect1_dropShadow_0_1298"/>
<feBlend mode="normal" in="SourceGraphic" in2="effect1_dropShadow_0_1298" result="shape"/>
</filter>
<filter id="filter4_d_0_1298" x="321.262" y="-71.4586" width="149.951" height="103.362" filterUnits="userSpaceOnUse" color-interpolation-filters="sRGB">
<feFlood flood-opacity="0" result="BackgroundImageFix"/>
<feColorMatrix in="SourceAlpha" type="matrix" values="0 0 0 0 0 0 0 0 0 0 0 0 0 0 0 0 0 0 127 0" result="hardAlpha"/>
<feOffset dx="2" dy="4"/>
<feColorMatrix type="matrix" values="0 0 0 0 0.212311 0 0 0 0 0.219121 0 0 0 0 0.221328 0 0 0 1 0"/>
<feBlend mode="normal" in2="BackgroundImageFix" result="effect1_dropShadow_0_1298"/>
<feBlend mode="normal" in="SourceGraphic" in2="effect1_dropShadow_0_1298" result="shape"/>
</filter>
<filter id="filter5_d_0_1298" x="374.439" y="-81.334" width="123.334" height="154.247" filterUnits="userSpaceOnUse" color-interpolation-filters="sRGB">
<feFlood flood-opacity="0" result="BackgroundImageFix"/>
<feColorMatrix in="SourceAlpha" type="matrix" values="0 0 0 0 0 0 0 0 0 0 0 0 0 0 0 0 0 0 127 0" result="hardAlpha"/>
<feOffset dx="2" dy="4"/>
<feColorMatrix type="matrix" values="0 0 0 0 0.212311 0 0 0 0 0.219121 0 0 0 0 0.221328 0 0 0 1 0"/>
<feBlend mode="normal" in2="BackgroundImageFix" result="effect1_dropShadow_0_1298"/>
<feBlend mode="normal" in="SourceGraphic" in2="effect1_dropShadow_0_1298" result="shape"/>
</filter>
<filter id="filter6_d_0_1298" x="-170" y="-157" width="241" height="241" filterUnits="userSpaceOnUse" color-interpolation-filters="sRGB">
<feFlood flood-opacity="0" result="BackgroundImageFix"/>
<feColorMatrix in="SourceAlpha" type="matrix" values="0 0 0 0 0 0 0 0 0 0 0 0 0 0 0 0 0 0 127 0" result="hardAlpha"/>
<feOffset dx="1" dy="7"/>
<feGaussianBlur stdDeviation="4"/>
<feColorMatrix type="matrix" values="0 0 0 0 0 0 0 0 0 0 0 0 0 0 0 0 0 0 0.158769 0"/>
<feBlend mode="normal" in2="BackgroundImageFix" result="effect1_dropShadow_0_1298"/>
<feBlend mode="normal" in="SourceGraphic" in2="effect1_dropShadow_0_1298" result="shape"/>
</filter>
<linearGradient id="paint0_linear_0_1298" x1="-256.798" y1="176.569" x2="149.466" y2="635.908" gradientUnits="userSpaceOnUse">
<stop stop-color="#34B99B"/>
<stop offset="1" stop-color="#4BDABA"/>
</linearGradient>
<linearGradient id="paint1_linear_0_1298" x1="52.6381" y1="160.256" x2="147.598" y2="228.061" gradientUnits="userSpaceOnUse">
<stop stop-color="white"/>
<stop offset="1" stop-color="white"/>
</linearGradient>
<linearGradient id="paint2_linear_0_1298" x1="270.028" y1="217.343" x2="223.584" y2="84.9228" gradientUnits="userSpaceOnUse">
<stop stop-color="#FDFDFD"/>
<stop offset="1" stop-color="#E3EAEF"/>
</linearGradient>
<linearGradient id="paint3_linear_0_1298" x1="232.34" y1="159.078" x2="212.238" y2="159.078" gradientUnits="userSpaceOnUse">
<stop stop-color="white"/>
<stop offset="1" stop-color="#E3E3E3"/>
</linearGradient>
<radialGradient id="paint4_radial_0_1298" cx="0" cy="0" r="1" gradientUnits="userSpaceOnUse" gradientTransform="translate(158 155) rotate(95.8354) scale(44.741)">
<stop stop-color="white"/>
<stop offset="1" stop-color="#F0E8D8"/>
</radialGradient>
<linearGradient id="paint5_linear_0_1298" x1="145.168" y1="165.618" x2="128.134" y2="139.631" gradientUnits="userSpaceOnUse">
<stop stop-color="#5A573D"/>
<stop offset="1" stop-color="#9F7165"/>
</linearGradient>
<linearGradient id="paint6_linear_0_1298" x1="189.142" y1="152.93" x2="160.669" y2="136.652" gradientUnits="userSpaceOnUse">
<stop stop-color="#5A573D"/>
<stop offset="1" stop-color="#9F7165"/>
</linearGradient>
<linearGradient id="paint7_linear_0_1298" x1="174.218" y1="166.466" x2="146.82" y2="149.691" gradientUnits="userSpaceOnUse">
<stop stop-color="#5A573D"/>
<stop offset="1" stop-color="#9F7165"/>
</linearGradient>
<linearGradient id="paint8_linear_0_1298" x1="148.095" y1="137.341" x2="147.262" y2="133.404" gradientUnits="userSpaceOnUse">
<stop stop-color="#5A573D"/>
<stop offset="1" stop-color="#9F7165"/>
</linearGradient>
<linearGradient id="paint9_linear_0_1298" x1="154.368" y1="136.678" x2="156.35" y2="138.466" gradientUnits="userSpaceOnUse">
<stop stop-color="#5A573D"/>
<stop offset="1" stop-color="#9F7165"/>
</linearGradient>
<linearGradient id="paint10_linear_0_1298" x1="173.257" y1="161.63" x2="182.783" y2="162.727" gradientUnits="userSpaceOnUse">
<stop stop-color="#5A573D"/>
<stop offset="1" stop-color="#9F7165"/>
</linearGradient>
<linearGradient id="paint11_linear_0_1298" x1="143.702" y1="167.15" x2="145.102" y2="167.579" gradientUnits="userSpaceOnUse">
<stop stop-color="#5A573D"/>
<stop offset="1" stop-color="#9F7165"/>
</linearGradient>
<linearGradient id="paint12_linear_0_1298" x1="145.082" y1="168.693" x2="146.576" y2="172.593" gradientUnits="userSpaceOnUse">
<stop stop-color="#5A573D"/>
<stop offset="1" stop-color="#9F7165"/>
</linearGradient>
<linearGradient id="paint13_linear_0_1298" x1="234.313" y1="147.161" x2="141.87" y2="77.7021" gradientUnits="userSpaceOnUse">
<stop stop-color="white"/>
<stop offset="1" stop-color="#F1F2F4"/>
</linearGradient>
<linearGradient id="paint14_linear_0_1298" x1="164.895" y1="223.153" x2="184.763" y2="248.893" gradientUnits="userSpaceOnUse">
<stop stop-color="#939BA1"/>
<stop offset="1" stop-color="#627381"/>
</linearGradient>
<linearGradient id="paint15_linear_0_1298" x1="293.947" y1="-30.6045" x2="381.31" y2="31.7758" gradientUnits="userSpaceOnUse">
<stop stop-color="white"/>
<stop offset="1" stop-color="white"/>
</linearGradient>
<linearGradient id="paint16_linear_0_1298" x1="377.887" y1="26.3935" x2="378.121" y2="26.6541" gradientUnits="userSpaceOnUse">
<stop stop-color="#46AB5F"/>
<stop offset="1" stop-color="#479735"/>
</linearGradient>
<linearGradient id="paint17_linear_0_1298" x1="-179.362" y1="-57.7441" x2="-84.4023" y2="10.0606" gradientUnits="userSpaceOnUse">
<stop stop-color="white"/>
<stop offset="1" stop-color="white"/>
</linearGradient>
<linearGradient id="paint18_linear_0_1298" x1="38.028" y1="-0.656987" x2="-8.41626" y2="-133.077" gradientUnits="userSpaceOnUse">
<stop stop-color="#FDFDFD"/>
<stop offset="1" stop-color="#E3EAEF"/>
</linearGradient>
<linearGradient id="paint19_linear_0_1298" x1="-67.1046" y1="5.1528" x2="-47.237" y2="30.8934" gradientUnits="userSpaceOnUse">
<stop stop-color="#939BA1"/>
<stop offset="1" stop-color="#627381"/>
</linearGradient>
<clipPath id="clip0_0_1298">
<rect width="375" height="667" fill="white"/>
</clipPath>
<clipPath id="clip1_0_1298">
<rect width="254" height="250" fill="white" transform="translate(-163 -156)"/>
</clipPath>
</defs>
</svg>
