<svg width="375" height="667" viewBox="0 0 375 667" fill="none" xmlns="http://www.w3.org/2000/svg">
<g clip-path="url(#clip0_0_151)">
<rect width="375" height="667" fill="#EFF1F3"/>
<path opacity="0.715466" fill-rule="evenodd" clip-rule="evenodd" d="M91.6174 199.221C146.372 198.715 208.605 242.282 242.914 252.838C279.272 264.025 385.137 279.44 385.137 279.44C385.137 279.44 185.344 370.924 83.0586 370.258C-19.2268 369.592 -35.6475 242.282 -35.6475 242.282C-35.6475 242.282 38.9895 199.707 91.6174 199.221Z" fill="#CCD3DC"/>
<path fill-rule="evenodd" clip-rule="evenodd" d="M-105 289.671C-105 289.671 69.9472 560.66 183.648 560.66C297.349 560.66 494.252 276.218 494.252 276.218C494.252 276.218 408.528 214.512 310.293 184.409C238.098 162.286 180.421 216.767 60.9336 269.282C13.1945 290.264 -105 289.671 -105 289.671Z" fill="url(#paint0_linear_0_151)"/>
<path fill-rule="evenodd" clip-rule="evenodd" d="M216.259 366.769L445.458 375.011L332.858 349.4L232.003 358.06L216.259 366.769Z" fill="url(#paint1_linear_0_151)" fill-opacity="0.21" style="mix-blend-mode:multiply"/>
<path fill-rule="evenodd" clip-rule="evenodd" d="M282.587 308.203C282.587 308.203 288.514 317.414 286.538 329.454C284.563 341.494 284.81 359.223 284.81 359.223H278.262L270.088 305.55C270.088 305.55 279.371 302.041 282.587 302.724C285.804 303.406 282.587 308.203 282.587 308.203Z" fill="#9EA4B8"/>
<path fill-rule="evenodd" clip-rule="evenodd" d="M247.922 309.729C247.922 309.729 251.624 320.037 246.991 331.324C242.358 342.611 238.61 359.941 238.61 359.941L232.23 358.468L236.339 304.332L252.731 300.742L247.922 309.729Z" fill="#9EA4B8"/>
<path fill-rule="evenodd" clip-rule="evenodd" d="M285 359L276.988 356.582L271.601 359L264.003 359.791C262.793 359.917 261.781 360.766 261.447 361.936C260.722 364.474 262.627 367 265.266 367H281C283.209 367 285 365.209 285 363V359Z" fill="#302C48"/>
<path fill-rule="evenodd" clip-rule="evenodd" d="M239 359L230.988 356.582L225.601 359L218.003 359.791C216.793 359.917 215.781 360.766 215.447 361.936C214.722 364.474 216.627 367 219.266 367H235C237.209 367 239 365.209 239 363V359Z" fill="#302C48"/>
<path fill-rule="evenodd" clip-rule="evenodd" d="M287 307.717V254H239.049L232.894 307.717H254.781L261.521 280.06L266.269 307.717H287Z" fill="#302C48"/>
<g style="mix-blend-mode:multiply" opacity="0.195312">
<path fill-rule="evenodd" clip-rule="evenodd" d="M266.298 307.793L265.115 269.49L261.606 280.127L266.298 307.793Z" fill="#3B3C45"/>
</g>
<path fill-rule="evenodd" clip-rule="evenodd" d="M185.804 197.879C187.132 198.465 187.304 196.632 188.181 195.794C190.207 193.858 190.081 187.535 189.967 186.604C189.584 183.462 188.86 179.213 187.286 180.121C185.741 181.88 187.602 184.247 187.148 186.056C187.048 186.451 185.798 187.778 184.824 186.597C183.813 185.37 184.001 197.085 185.804 197.879Z" fill="#9EA4B8"/>
<rect width="3.03571" height="108" rx="1.51786" transform="matrix(-1 0 0 1 186.636 67)" fill="#CACBD5"/>
<path d="M183.357 172C183.357 171.006 184.173 170.2 185.179 170.2C186.185 170.2 187 171.006 187 172V184.023L186.995 184.159C186.585 189.471 183.763 192.459 178.91 192.459C174.059 192.459 171.235 189.472 170.82 184.161C170.743 183.17 171.494 182.304 172.497 182.228C173.5 182.151 174.375 182.893 174.453 183.884C174.728 187.423 176.087 188.859 178.91 188.859C181.716 188.859 183.073 187.442 183.357 183.952V172Z" fill="#302C48"/>
<path d="M285.912 238.036C295.64 226.709 295.931 226.974 299.999 220.081C301.941 216.79 304.292 214.128 304.112 213.783C301.446 208.68 293.561 203.498 280.893 190.292L286.295 177.151C304.219 191.025 310.367 202.143 313.5 208.14C314.26 209.593 315.605 212.235 315.523 214.044C315.16 222.012 305.497 232.189 287.323 244.412L285.912 238.036Z" fill="#9EA4B8"/>
<path fill-rule="evenodd" clip-rule="evenodd" d="M184.271 183.631C183.677 181.881 184.271 178.043 183.677 177.172C181.98 176.256 180.024 182.649 180.024 182.649C180.024 182.649 179.009 192.01 183.004 194.67C187 197.33 187 194.67 187 194.67C187 194.67 189.929 184.735 187.629 185.009C185.33 185.284 184.553 185.009 184.271 183.631Z" fill="#9EA4B8"/>
<path d="M189.594 192.91C201.244 202.171 200.99 202.47 208.017 206.266C211.371 208.078 214.112 210.319 214.45 210.128C219.459 207.298 224.368 199.282 237.134 186.229L250.45 191.127C237.196 209.425 226.295 215.927 220.409 219.253C212.701 223.608 199.018 216.158 183.271 194.539L189.594 192.91Z" fill="#9EA4B8"/>
<path fill-rule="evenodd" clip-rule="evenodd" d="M261.257 131C261.257 131 261.472 134.865 258.743 137.016C255.695 139.419 252.285 142.195 251.497 143.187C250.005 145.067 252.99 145.067 252.99 145.067L251.497 157.206L263.91 162.723L261.257 173H276.128L278 162.723C278 162.723 273.671 143.424 270.944 138.257C267.249 131.256 261.257 131 261.257 131Z" fill="#9EA4B8"/>
<ellipse cx="17" cy="21.5" rx="17" ry="21.5" transform="matrix(-1 0 0 1 296 121)" fill="#302C48"/>
<ellipse cx="7" cy="6.5" rx="7" ry="6.5" transform="matrix(-1 0 0 1 278 118)" fill="#302C48"/>
<ellipse cx="4.5" cy="4" rx="4.5" ry="4" transform="matrix(-1 0 0 1 283 118)" fill="#302C48"/>
<ellipse cx="7" cy="6.5" rx="7" ry="6.5" transform="matrix(-1 0 0 1 293 122)" fill="#302C48"/>
<ellipse cx="7" cy="6.5" rx="7" ry="6.5" transform="matrix(-1 0 0 1 297 129)" fill="#302C48"/>
<circle cx="3.5" cy="3.5" r="3.5" transform="matrix(-1 0 0 1 288 120)" fill="#302C48"/>
<circle cx="3.5" cy="3.5" r="3.5" transform="matrix(-1 0 0 1 268 122)" fill="#302C48"/>
<circle cx="3.5" cy="3.5" r="3.5" transform="matrix(-1 0 0 1 266 127)" fill="#302C48"/>
<ellipse cx="4" cy="4.5" rx="4" ry="4.5" transform="matrix(-1 0 0 1 267 142)" fill="#9EA4B8"/>
<path fill-rule="evenodd" clip-rule="evenodd" d="M309 193.366L287.68 173.665C287.68 173.665 277.421 170 270.746 170C267.497 170 272.198 170 260.881 170C256.699 170 244.751 173.665 244.751 173.665L229 193.366L238.998 207.511L249.934 193.366L237.737 260.887C237.737 260.887 250.12 265 260.881 265C271.643 265 287.68 261.006 287.68 261.006V198.176L295.556 207.511L309 193.366Z" fill="white"/>
<g style="mix-blend-mode:multiply" opacity="0.549819">
<path fill-rule="evenodd" clip-rule="evenodd" d="M242 234L255 190C255 190 249.661 191.657 249.366 193.782C249.071 195.907 242 234 242 234Z" fill="#DEEAF4"/>
</g>
<path fill-rule="evenodd" clip-rule="evenodd" d="M87.2781 337.562C90.8395 346.928 107.632 353.569 126.504 352.931C145.376 352.292 158.923 348.008 162.058 338.425C165.193 328.841 120.511 325.451 120.511 325.451C120.511 325.451 84.8458 328.119 87.2781 337.562Z" fill="url(#paint2_linear_0_151)" fill-opacity="0.21" style="mix-blend-mode:multiply"/>
<path fill-rule="evenodd" clip-rule="evenodd" d="M103.601 348.009C129.983 355.078 155.151 346.696 159.816 329.287C160.833 325.492 160.791 321.581 159.831 317.713C151.686 322.019 132.85 321.623 112.071 316.055C91.4114 310.52 74.9712 301.516 69.9667 293.745C67.245 296.596 65.284 299.932 64.2775 303.688C59.6128 321.097 77.2184 340.94 103.601 348.009ZM120.458 284.957C120.537 284.978 120.616 284.999 120.695 285.021C120.628 285.002 120.56 284.984 120.493 284.966C120.481 284.963 120.469 284.96 120.458 284.957Z" fill="#686B89"/>
<mask id="mask0_0_151" style="mask-type:luminance" maskUnits="userSpaceOnUse" x="63" y="284" width="98" height="67">
<path fill-rule="evenodd" clip-rule="evenodd" d="M103.601 348.009C129.983 355.078 155.151 346.696 159.816 329.287C160.833 325.492 160.791 321.581 159.831 317.713C151.686 322.019 132.85 321.623 112.071 316.055C91.4114 310.52 74.9712 301.516 69.9667 293.745C67.245 296.596 65.284 299.932 64.2775 303.688C59.6128 321.097 77.2184 340.94 103.601 348.009ZM120.458 284.957C120.537 284.978 120.616 284.999 120.695 285.021C120.628 285.002 120.56 284.984 120.493 284.966C120.481 284.963 120.469 284.96 120.458 284.957Z" fill="white"/>
</mask>
<g mask="url(#mask0_0_151)">
<path fill-rule="evenodd" clip-rule="evenodd" d="M68.5553 303.54C68.5553 303.54 72.4324 337.919 100.336 346.738C90.0742 337.917 89.9873 329.008 91.5766 318.099C93.1659 307.191 68.5553 303.54 68.5553 303.54Z" fill="#606484"/>
<path fill-rule="evenodd" clip-rule="evenodd" d="M154.207 326.49C154.207 326.49 133.44 355.143 104.866 348.829C118.163 346.321 122.912 337.83 126.99 327.588C131.068 317.346 154.207 326.49 154.207 326.49Z" fill="#606484"/>
</g>
<ellipse cx="114.623" cy="306.532" rx="49.3433" ry="21.5021" transform="rotate(15 114.623 306.532)" fill="#373855"/>
<mask id="mask1_0_151" style="mask-type:luminance" maskUnits="userSpaceOnUse" x="66" y="282" width="97" height="49">
<ellipse cx="114.623" cy="306.532" rx="49.3433" ry="21.5021" transform="rotate(15 114.623 306.532)" fill="white"/>
</mask>
<g mask="url(#mask1_0_151)">
<path fill-rule="evenodd" clip-rule="evenodd" d="M76.0598 286.679C76.0598 286.679 80.4451 315.116 103.336 331.545C98.9386 322.744 100.021 298.953 103.951 286.153C107.882 273.353 76.0598 286.679 76.0598 286.679Z" fill="#32334D"/>
<path fill-rule="evenodd" clip-rule="evenodd" d="M159.31 307.348C159.31 307.348 139.293 330.884 111.254 333.666C119.463 328.243 130.421 307.099 133.417 294.049C136.413 280.998 159.31 307.348 159.31 307.348Z" fill="#32334D"/>
</g>
<g style="mix-blend-mode:multiply">
<path fill-rule="evenodd" clip-rule="evenodd" d="M-18.667 107.784L0.17015 149.833C0.607373 150.809 0.146744 151.952 -0.844817 152.353C-1.8415 152.756 -2.9727 152.246 -3.33051 151.232L-18.667 107.784Z" fill="url(#paint3_linear_0_151)"/>
<path fill-rule="evenodd" clip-rule="evenodd" d="M8.30463 174.541L27.1418 216.59C27.5791 217.566 27.1184 218.71 26.1269 219.11C25.1302 219.513 23.999 219.003 23.6412 217.989L8.30463 174.541Z" fill="url(#paint4_linear_0_151)"/>
<path fill-rule="evenodd" clip-rule="evenodd" d="M34.5273 239.444L53.3645 281.493C53.8017 282.469 53.3411 283.613 52.3495 284.013C51.3528 284.416 50.2216 283.906 49.8638 282.892L34.5273 239.444Z" fill="url(#paint5_linear_0_151)"/>
<path fill-rule="evenodd" clip-rule="evenodd" d="M-14.5079 21.9779L4.32933 64.0265C4.76655 65.0024 4.30592 66.1463 3.31436 66.5469C2.31768 66.9496 1.18648 66.4394 0.828673 65.4257L-14.5079 21.9779Z" fill="url(#paint6_linear_0_151)"/>
<path fill-rule="evenodd" clip-rule="evenodd" d="M10.2167 83.172L29.0539 125.221C29.4912 126.197 29.0305 127.34 28.039 127.741C27.0423 128.144 25.9111 127.633 25.5533 126.62L10.2167 83.172Z" fill="url(#paint7_linear_0_151)"/>
<path fill-rule="evenodd" clip-rule="evenodd" d="M34.1914 142.512L53.0285 184.56C53.4658 185.536 53.0051 186.68 52.0136 187.081C51.0169 187.484 49.8857 186.973 49.5279 185.96L34.1914 142.512Z" fill="url(#paint8_linear_0_151)"/>
<path fill-rule="evenodd" clip-rule="evenodd" d="M61.163 209.269L80.0002 251.318C80.4375 252.294 79.9768 253.437 78.9853 253.838C77.9886 254.241 76.8574 253.73 76.4996 252.717L61.163 209.269Z" fill="url(#paint9_linear_0_151)"/>
<path fill-rule="evenodd" clip-rule="evenodd" d="M87.3857 274.172L106.223 316.22C106.66 317.196 106.199 318.34 105.208 318.741C104.211 319.144 103.08 318.633 102.722 317.62L87.3857 274.172Z" fill="url(#paint10_linear_0_151)"/>
<path fill-rule="evenodd" clip-rule="evenodd" d="M3.88666 -28.5953L22.7239 13.4533C23.1611 14.4292 22.7005 15.5731 21.7089 15.9737C20.7122 16.3764 19.581 15.8662 19.2232 14.8525L3.88666 -28.5953Z" fill="url(#paint11_linear_0_151)"/>
<path fill-rule="evenodd" clip-rule="evenodd" d="M28.6103 32.5989L47.4475 74.6474C47.8847 75.6234 47.4241 76.7673 46.4325 77.1679C45.4358 77.5706 44.3046 77.0603 43.9468 76.0466L28.6103 32.5989Z" fill="url(#paint12_linear_0_151)"/>
<path fill-rule="evenodd" clip-rule="evenodd" d="M52.5859 91.9386L71.4231 133.987C71.8603 134.963 71.3997 136.107 70.4081 136.508C69.4114 136.91 68.2802 136.4 67.9224 135.386L52.5859 91.9386Z" fill="url(#paint13_linear_0_151)"/>
<path fill-rule="evenodd" clip-rule="evenodd" d="M79.5576 158.696L98.3948 200.744C98.832 201.72 98.3714 202.864 97.3798 203.265C96.3831 203.668 95.2519 203.157 94.8941 202.144L79.5576 158.696Z" fill="url(#paint14_linear_0_151)"/>
<path fill-rule="evenodd" clip-rule="evenodd" d="M105.78 223.599L124.617 265.647C125.055 266.623 124.594 267.767 123.602 268.168C122.606 268.57 121.475 268.06 121.117 267.047L105.78 223.599Z" fill="url(#paint15_linear_0_151)"/>
<path fill-rule="evenodd" clip-rule="evenodd" d="M45.4697 -32.4533L64.3069 9.59521C64.7441 10.5712 64.2835 11.7151 63.2919 12.1157C62.2952 12.5184 61.164 12.0081 60.8062 10.9945L45.4697 -32.4533Z" fill="url(#paint16_linear_0_151)"/>
<path fill-rule="evenodd" clip-rule="evenodd" d="M69.4443 26.8864L88.2815 68.935C88.7187 69.9109 88.2581 71.0548 87.2665 71.4554C86.2698 71.8581 85.1386 71.3479 84.7808 70.3342L69.4443 26.8864Z" fill="url(#paint17_linear_0_151)"/>
<path fill-rule="evenodd" clip-rule="evenodd" d="M96.416 93.6437L115.253 135.692C115.69 136.668 115.23 137.812 114.238 138.213C113.242 138.615 112.11 138.105 111.753 137.091L96.416 93.6437Z" fill="url(#paint18_linear_0_151)"/>
<path fill-rule="evenodd" clip-rule="evenodd" d="M122.639 158.547L141.476 200.595C141.913 201.571 141.452 202.715 140.461 203.116C139.464 203.518 138.333 203.008 137.975 201.994L122.639 158.547Z" fill="url(#paint19_linear_0_151)"/>
<path fill-rule="evenodd" clip-rule="evenodd" d="M92.3339 -12.5606L111.171 29.488C111.608 30.464 111.148 31.6078 110.156 32.0085C109.159 32.4111 108.028 31.9009 107.67 30.8872L92.3339 -12.5606Z" fill="url(#paint20_linear_0_151)"/>
<path fill-rule="evenodd" clip-rule="evenodd" d="M119.306 54.1967L138.143 96.2452C138.58 97.2212 138.119 98.3651 137.128 98.7657C136.131 99.1684 135 98.6581 134.642 97.6445L119.306 54.1967Z" fill="url(#paint21_linear_0_151)"/>
<path fill-rule="evenodd" clip-rule="evenodd" d="M145.528 119.1L164.365 161.148C164.803 162.124 164.342 163.268 163.35 163.669C162.354 164.071 161.223 163.561 160.865 162.547L145.528 119.1Z" fill="url(#paint22_linear_0_151)"/>
<path fill-rule="evenodd" clip-rule="evenodd" d="M132.455 -9.35708L151.292 32.6915C151.729 33.6674 151.269 34.8113 150.277 35.2119C149.281 35.6146 148.149 35.1044 147.792 34.0907L132.455 -9.35708Z" fill="url(#paint23_linear_0_151)"/>
<path fill-rule="evenodd" clip-rule="evenodd" d="M156.431 49.9827L175.268 92.0312C175.705 93.0072 175.244 94.1511 174.253 94.5517C173.256 94.9544 172.125 94.4441 171.767 93.4305L156.431 49.9827Z" fill="url(#paint24_linear_0_151)"/>
<path fill-rule="evenodd" clip-rule="evenodd" d="M183.402 116.74L202.239 158.788C202.677 159.764 202.216 160.908 201.225 161.309C200.228 161.712 199.097 161.201 198.739 160.188L183.402 116.74Z" fill="url(#paint25_linear_0_151)"/>
<path fill-rule="evenodd" clip-rule="evenodd" d="M209.624 181.643L228.461 223.691C228.898 224.667 228.438 225.811 227.446 226.212C226.45 226.615 225.318 226.104 224.961 225.091L209.624 181.643Z" fill="url(#paint26_linear_0_151)"/>
<path fill-rule="evenodd" clip-rule="evenodd" d="M176.679 -1.33972L195.516 40.7088C195.953 41.6848 195.492 42.8287 194.501 43.2293C193.504 43.632 192.373 43.1217 192.015 42.1081L176.679 -1.33972Z" fill="url(#paint27_linear_0_151)"/>
<path fill-rule="evenodd" clip-rule="evenodd" d="M203.65 65.4175L222.488 107.466C222.925 108.442 222.464 109.586 221.473 109.987C220.476 110.389 219.345 109.879 218.987 108.865L203.65 65.4175Z" fill="url(#paint28_linear_0_151)"/>
<path fill-rule="evenodd" clip-rule="evenodd" d="M229.873 130.32L248.71 172.369C249.147 173.345 248.687 174.489 247.695 174.889C246.699 175.292 245.567 174.782 245.21 173.768L229.873 130.32Z" fill="url(#paint29_linear_0_151)"/>
<path fill-rule="evenodd" clip-rule="evenodd" d="M221.651 8.532L240.489 50.5805C240.926 51.5565 240.465 52.7004 239.474 53.101C238.477 53.5037 237.346 52.9935 236.988 51.9798L221.651 8.532Z" fill="url(#paint30_linear_0_151)"/>
<path fill-rule="evenodd" clip-rule="evenodd" d="M248.623 75.2892L267.46 117.338C267.897 118.314 267.437 119.458 266.445 119.858C265.449 120.261 264.317 119.751 263.96 118.737L248.623 75.2892Z" fill="url(#paint31_linear_0_151)"/>
<path fill-rule="evenodd" clip-rule="evenodd" d="M274.846 140.192L293.683 182.241C294.12 183.217 293.659 184.361 292.668 184.761C291.671 185.164 290.54 184.654 290.182 183.64L274.846 140.192Z" fill="url(#paint32_linear_0_151)"/>
<path fill-rule="evenodd" clip-rule="evenodd" d="M243.043 -34.6237L261.88 7.42483C262.317 8.4008 261.857 9.54469 260.865 9.9453C259.868 10.348 258.737 9.83773 258.379 8.82408L243.043 -34.6237Z" fill="url(#paint33_linear_0_151)"/>
<path fill-rule="evenodd" clip-rule="evenodd" d="M270.015 32.1335L288.852 74.1821C289.289 75.158 288.828 76.3019 287.837 76.7025C286.84 77.1052 285.709 76.595 285.351 75.5813L270.015 32.1335Z" fill="url(#paint34_linear_0_151)"/>
<path fill-rule="evenodd" clip-rule="evenodd" d="M296.237 97.0364L315.074 139.085C315.512 140.061 315.051 141.205 314.059 141.605C313.063 142.008 311.932 141.498 311.574 140.484L296.237 97.0364Z" fill="url(#paint35_linear_0_151)"/>
<path fill-rule="evenodd" clip-rule="evenodd" d="M286.91 -22.1484L305.747 19.9001C306.185 20.8761 305.724 22.02 304.732 22.4206C303.736 22.8233 302.604 22.313 302.247 21.2994L286.91 -22.1484Z" fill="url(#paint36_linear_0_151)"/>
<path fill-rule="evenodd" clip-rule="evenodd" d="M313.882 44.6088L332.719 86.6574C333.156 87.6334 332.696 88.7772 331.704 89.1779C330.707 89.5805 329.576 89.0703 329.218 88.0566L313.882 44.6088Z" fill="url(#paint37_linear_0_151)"/>
<path fill-rule="evenodd" clip-rule="evenodd" d="M340.104 109.512L358.942 151.56C359.379 152.536 358.918 153.68 357.927 154.081C356.93 154.483 355.799 153.973 355.441 152.959L340.104 109.512Z" fill="url(#paint38_linear_0_151)"/>
<path fill-rule="evenodd" clip-rule="evenodd" d="M335.629 -3.00483L354.466 39.0437C354.903 40.0197 354.443 41.1636 353.451 41.5642C352.454 41.9669 351.323 41.4566 350.965 40.443L335.629 -3.00483Z" fill="url(#paint39_linear_0_151)"/>
<path fill-rule="evenodd" clip-rule="evenodd" d="M361.852 61.898L380.689 103.947C381.126 104.923 380.665 106.066 379.674 106.467C378.677 106.87 377.546 106.359 377.188 105.346L361.852 61.898Z" fill="url(#paint40_linear_0_151)"/>
</g>
<g style="mix-blend-mode:multiply" opacity="0.8">
<path fill-rule="evenodd" clip-rule="evenodd" d="M-9.15628 5.27532L0.262321 26.2996C0.480933 26.7876 0.250618 27.3595 -0.245162 27.5598C-0.743503 27.7612 -1.3091 27.506 -1.48801 26.9992L-9.15628 5.27532Z" fill="url(#paint41_linear_0_151)"/>
<path fill-rule="evenodd" clip-rule="evenodd" d="M2.082 33.0908L11.5006 54.1151C11.7192 54.6031 11.4889 55.175 10.9931 55.3753C10.4948 55.5767 9.92918 55.3216 9.75027 54.8147L2.082 33.0908Z" fill="url(#paint42_linear_0_151)"/>
<path fill-rule="evenodd" clip-rule="evenodd" d="M14.8183 64.6151L24.2369 85.6394C24.4555 86.1273 24.2252 86.6993 23.7294 86.8996C23.2311 87.1009 22.6655 86.8458 22.4866 86.339L14.8183 64.6151Z" fill="url(#paint43_linear_0_151)"/>
<path fill-rule="evenodd" clip-rule="evenodd" d="M27.1806 95.2122L36.5992 116.236C36.8178 116.724 36.5875 117.296 36.0918 117.497C35.5934 117.698 35.0278 117.443 34.8489 116.936L27.1806 95.2122Z" fill="url(#paint44_linear_0_151)"/>
<path fill-rule="evenodd" clip-rule="evenodd" d="M39.1679 124.882L48.5865 145.906C48.8052 146.394 48.5748 146.966 48.0791 147.167C47.5807 147.368 47.0151 147.113 46.8362 146.606L39.1679 124.882Z" fill="url(#paint45_linear_0_151)"/>
<path fill-rule="evenodd" clip-rule="evenodd" d="M52.6543 158.261L62.0729 179.285C62.2915 179.773 62.0612 180.345 61.5654 180.545C61.067 180.747 60.5014 180.491 60.3225 179.985L52.6543 158.261Z" fill="url(#paint46_linear_0_151)"/>
<path fill-rule="evenodd" clip-rule="evenodd" d="M65.7646 190.712L75.1832 211.736C75.4018 212.224 75.1715 212.796 74.6757 212.997C74.1774 213.198 73.6118 212.943 73.4329 212.436L65.7646 190.712Z" fill="url(#paint47_linear_0_151)"/>
<path fill-rule="evenodd" clip-rule="evenodd" d="M6.03513 -5.17634L15.4537 15.8479C15.6723 16.3359 15.442 16.9079 14.9462 17.1082C14.4479 17.3095 13.8823 17.0544 13.7034 16.5476L6.03513 -5.17634Z" fill="url(#paint48_linear_0_151)"/>
<path fill-rule="evenodd" clip-rule="evenodd" d="M17.2724 22.6392L26.691 43.6635C26.9096 44.1514 26.6793 44.7234 26.1835 44.9237C25.6852 45.125 25.1196 44.8699 24.9407 44.3631L17.2724 22.6392Z" fill="url(#paint49_linear_0_151)"/>
<path fill-rule="evenodd" clip-rule="evenodd" d="M28.5107 50.4547L37.9293 71.479C38.1479 71.9669 37.9176 72.5389 37.4218 72.7392C36.9235 72.9405 36.3579 72.6854 36.179 72.1786L28.5107 50.4547Z" fill="url(#paint50_linear_0_151)"/>
<path fill-rule="evenodd" clip-rule="evenodd" d="M41.248 81.9789L50.6666 103.003C50.8852 103.491 50.6549 104.063 50.1591 104.263C49.6608 104.465 49.0952 104.21 48.9163 103.703L41.248 81.9789Z" fill="url(#paint51_linear_0_151)"/>
<path fill-rule="evenodd" clip-rule="evenodd" d="M53.6093 112.576L63.0279 133.6C63.2466 134.088 63.0162 134.66 62.5205 134.861C62.0221 135.062 61.4565 134.807 61.2776 134.3L53.6093 112.576Z" fill="url(#paint52_linear_0_151)"/>
<path fill-rule="evenodd" clip-rule="evenodd" d="M65.5967 142.246L75.0153 163.27C75.2339 163.758 75.0035 164.33 74.5078 164.53C74.0094 164.732 73.4438 164.477 73.2649 163.97L65.5967 142.246Z" fill="url(#paint53_linear_0_151)"/>
<path fill-rule="evenodd" clip-rule="evenodd" d="M79.083 175.625L88.5016 196.649C88.7202 197.137 88.4899 197.709 87.9941 197.909C87.4958 198.11 86.9302 197.855 86.7513 197.348L79.083 175.625Z" fill="url(#paint54_linear_0_151)"/>
<path fill-rule="evenodd" clip-rule="evenodd" d="M92.1943 208.076L101.613 229.1C101.832 229.588 101.601 230.16 101.105 230.36C100.607 230.562 100.041 230.307 99.8626 229.8L92.1943 208.076Z" fill="url(#paint55_linear_0_151)"/>
<path fill-rule="evenodd" clip-rule="evenodd" d="M26.4697 -2.64742L35.8883 18.3769C36.1069 18.8648 35.8766 19.4368 35.3808 19.6371C34.8825 19.8384 34.3169 19.5833 34.138 19.0765L26.4697 -2.64742Z" fill="url(#paint56_linear_0_151)"/>
<path fill-rule="evenodd" clip-rule="evenodd" d="M37.708 25.1681L47.1266 46.1924C47.3452 46.6804 47.1149 47.2523 46.6191 47.4526C46.1208 47.654 45.5552 47.3988 45.3763 46.892L37.708 25.1681Z" fill="url(#paint57_linear_0_151)"/>
<path fill-rule="evenodd" clip-rule="evenodd" d="M50.4453 56.6924L59.8639 77.7166C60.0825 78.2046 59.8522 78.7766 59.3564 78.9769C58.8581 79.1782 58.2925 78.9231 58.1136 78.4162L50.4453 56.6924Z" fill="url(#paint58_linear_0_151)"/>
<path fill-rule="evenodd" clip-rule="evenodd" d="M62.8066 87.2894L72.2252 108.314C72.4438 108.802 72.2135 109.374 71.7177 109.574C71.2194 109.775 70.6538 109.52 70.4749 109.013L62.8066 87.2894Z" fill="url(#paint59_linear_0_151)"/>
<path fill-rule="evenodd" clip-rule="evenodd" d="M74.7939 116.959L84.2125 137.984C84.4311 138.472 84.2008 139.044 83.705 139.244C83.2067 139.445 82.6411 139.19 82.4622 138.683L74.7939 116.959Z" fill="url(#paint60_linear_0_151)"/>
<path fill-rule="evenodd" clip-rule="evenodd" d="M88.2802 150.338L97.6988 171.362C97.9175 171.85 97.6871 172.422 97.1914 172.622C96.693 172.824 96.1274 172.569 95.9485 172.062L88.2802 150.338Z" fill="url(#paint61_linear_0_151)"/>
<path fill-rule="evenodd" clip-rule="evenodd" d="M101.392 182.789L110.81 203.814C111.029 204.302 110.798 204.874 110.303 205.074C109.804 205.275 109.239 205.02 109.06 204.513L101.392 182.789Z" fill="url(#paint62_linear_0_151)"/>
<path fill-rule="evenodd" clip-rule="evenodd" d="M46.1377 -7.358L55.5563 13.6663C55.7749 14.1543 55.5446 14.7262 55.0488 14.9265C54.5504 15.1279 53.9848 14.8727 53.8059 14.3659L46.1377 -7.358Z" fill="url(#paint63_linear_0_151)"/>
<path fill-rule="evenodd" clip-rule="evenodd" d="M58.874 24.1663L68.2926 45.1905C68.5112 45.6785 68.2809 46.2505 67.7851 46.4508C67.2868 46.6521 66.7212 46.397 66.5423 45.8902L58.874 24.1663Z" fill="url(#paint64_linear_0_151)"/>
<path fill-rule="evenodd" clip-rule="evenodd" d="M71.2363 54.7633L80.6549 75.7876C80.8735 76.2756 80.6432 76.8475 80.1474 77.0478C79.6491 77.2492 79.0835 76.994 78.9046 76.4872L71.2363 54.7633Z" fill="url(#paint65_linear_0_151)"/>
<path fill-rule="evenodd" clip-rule="evenodd" d="M83.2236 84.4332L92.6422 105.457C92.8608 105.945 92.6305 106.517 92.1347 106.718C91.6364 106.919 91.0708 106.664 90.8919 106.157L83.2236 84.4332Z" fill="url(#paint66_linear_0_151)"/>
<path fill-rule="evenodd" clip-rule="evenodd" d="M96.709 117.812L106.128 138.836C106.346 139.324 106.116 139.896 105.62 140.096C105.122 140.298 104.556 140.043 104.377 139.536L96.709 117.812Z" fill="url(#paint67_linear_0_151)"/>
<path fill-rule="evenodd" clip-rule="evenodd" d="M109.82 150.263L119.239 171.288C119.457 171.776 119.227 172.347 118.731 172.548C118.233 172.749 117.667 172.494 117.489 171.987L109.82 150.263Z" fill="url(#paint68_linear_0_151)"/>
<path fill-rule="evenodd" clip-rule="evenodd" d="M70.3193 4.44276L79.7379 25.467C79.9565 25.955 79.7262 26.527 79.2304 26.7273C78.7321 26.9286 78.1665 26.6735 77.9876 26.1667L70.3193 4.44276Z" fill="url(#paint69_linear_0_151)"/>
<path fill-rule="evenodd" clip-rule="evenodd" d="M82.6806 35.0398L92.0992 56.0641C92.3178 56.5521 92.0875 57.124 91.5918 57.3243C91.0934 57.5257 90.5278 57.2706 90.3489 56.7637L82.6806 35.0398Z" fill="url(#paint70_linear_0_151)"/>
<path fill-rule="evenodd" clip-rule="evenodd" d="M94.6679 64.7097L104.087 85.734C104.305 86.222 104.075 86.7939 103.579 86.9942C103.081 87.1956 102.515 86.9404 102.336 86.4336L94.6679 64.7097Z" fill="url(#paint71_linear_0_151)"/>
<path fill-rule="evenodd" clip-rule="evenodd" d="M108.154 98.0883L117.573 119.113C117.791 119.601 117.561 120.173 117.065 120.373C116.567 120.574 116.001 120.319 115.823 119.812L108.154 98.0883Z" fill="url(#paint72_linear_0_151)"/>
<path fill-rule="evenodd" clip-rule="evenodd" d="M121.266 130.54L130.684 151.564C130.903 152.052 130.672 152.624 130.177 152.824C129.678 153.026 129.113 152.771 128.934 152.264L121.266 130.54Z" fill="url(#paint73_linear_0_151)"/>
<path fill-rule="evenodd" clip-rule="evenodd" d="M89.6308 4.19013L99.0494 25.2144C99.268 25.7024 99.0377 26.2743 98.5419 26.4746C98.0436 26.676 97.478 26.4209 97.2991 25.914L89.6308 4.19013Z" fill="url(#paint74_linear_0_151)"/>
<path fill-rule="evenodd" clip-rule="evenodd" d="M102.367 35.7144L111.786 56.7387C112.004 57.2266 111.774 57.7986 111.278 57.9989C110.78 58.2002 110.214 57.9451 110.035 57.4383L102.367 35.7144Z" fill="url(#paint75_linear_0_151)"/>
<path fill-rule="evenodd" clip-rule="evenodd" d="M114.729 66.3114L124.148 87.3357C124.367 87.8237 124.136 88.3957 123.641 88.596C123.142 88.7973 122.577 88.5422 122.398 88.0353L114.729 66.3114Z" fill="url(#paint76_linear_0_151)"/>
<path fill-rule="evenodd" clip-rule="evenodd" d="M126.717 95.9813L136.135 117.006C136.354 117.494 136.124 118.066 135.628 118.266C135.13 118.467 134.564 118.212 134.385 117.705L126.717 95.9813Z" fill="url(#paint77_linear_0_151)"/>
<path fill-rule="evenodd" clip-rule="evenodd" d="M140.202 129.36L149.621 150.384C149.839 150.872 149.609 151.444 149.113 151.644C148.615 151.846 148.049 151.591 147.87 151.084L140.202 129.36Z" fill="url(#paint78_linear_0_151)"/>
<path fill-rule="evenodd" clip-rule="evenodd" d="M153.313 161.811L162.732 182.836C162.951 183.324 162.72 183.896 162.225 184.096C161.726 184.297 161.161 184.042 160.982 183.535L153.313 161.811Z" fill="url(#paint79_linear_0_151)"/>
<path fill-rule="evenodd" clip-rule="evenodd" d="M99.7549 -21.4711L109.173 -0.4468C109.392 0.0411856 109.162 0.613129 108.666 0.813437C108.168 1.01478 107.602 0.759653 107.423 0.252825L99.7549 -21.4711Z" fill="url(#paint80_linear_0_151)"/>
<path fill-rule="evenodd" clip-rule="evenodd" d="M112.491 10.0532L121.91 31.0775C122.128 31.5654 121.898 32.1374 121.402 32.3377C120.904 32.539 120.338 32.2839 120.159 31.7771L112.491 10.0532Z" fill="url(#paint81_linear_0_151)"/>
<path fill-rule="evenodd" clip-rule="evenodd" d="M124.853 40.6502L134.272 61.6745C134.491 62.1625 134.26 62.7344 133.765 62.9348C133.266 63.1361 132.701 62.881 132.522 62.3741L124.853 40.6502Z" fill="url(#paint82_linear_0_151)"/>
<path fill-rule="evenodd" clip-rule="evenodd" d="M136.841 70.3201L146.259 91.3444C146.478 91.8324 146.248 92.4043 145.752 92.6046C145.254 92.806 144.688 92.5509 144.509 92.044L136.841 70.3201Z" fill="url(#paint83_linear_0_151)"/>
<path fill-rule="evenodd" clip-rule="evenodd" d="M150.327 103.699L159.746 124.723C159.964 125.211 159.734 125.783 159.238 125.983C158.74 126.185 158.174 125.929 157.995 125.423L150.327 103.699Z" fill="url(#paint84_linear_0_151)"/>
<path fill-rule="evenodd" clip-rule="evenodd" d="M163.438 136.15L172.857 157.174C173.076 157.662 172.845 158.234 172.35 158.435C171.851 158.636 171.286 158.381 171.107 157.874L163.438 136.15Z" fill="url(#paint85_linear_0_151)"/>
<path fill-rule="evenodd" clip-rule="evenodd" d="M122.241 -16.5352L131.66 4.48906C131.878 4.97705 131.648 5.54899 131.152 5.7493C130.654 5.95064 130.088 5.69551 129.909 5.18869L122.241 -16.5352Z" fill="url(#paint86_linear_0_151)"/>
<path fill-rule="evenodd" clip-rule="evenodd" d="M134.978 14.989L144.396 36.0133C144.615 36.5013 144.384 37.0732 143.889 37.2736C143.39 37.4749 142.825 37.2198 142.646 36.7129L134.978 14.989Z" fill="url(#paint87_linear_0_151)"/>
<path fill-rule="evenodd" clip-rule="evenodd" d="M147.34 45.5861L156.758 66.6104C156.977 67.0984 156.747 67.6703 156.251 67.8706C155.753 68.072 155.187 67.8168 155.008 67.31L147.34 45.5861Z" fill="url(#paint88_linear_0_151)"/>
<path fill-rule="evenodd" clip-rule="evenodd" d="M159.327 75.256L168.746 96.2803C168.964 96.7682 168.734 97.3402 168.238 97.5405C167.74 97.7418 167.174 97.4867 166.995 96.9799L159.327 75.256Z" fill="url(#paint89_linear_0_151)"/>
<path fill-rule="evenodd" clip-rule="evenodd" d="M172.813 108.635L182.232 129.659C182.451 130.147 182.22 130.719 181.725 130.919C181.226 131.12 180.661 130.865 180.482 130.359L172.813 108.635Z" fill="url(#paint90_linear_0_151)"/>
<path fill-rule="evenodd" clip-rule="evenodd" d="M185.925 141.086L195.343 162.11C195.562 162.598 195.332 163.17 194.836 163.371C194.338 163.572 193.772 163.317 193.593 162.81L185.925 141.086Z" fill="url(#paint91_linear_0_151)"/>
<path fill-rule="evenodd" clip-rule="evenodd" d="M145.674 -6.58882L155.092 14.4355C155.311 14.9234 155.081 15.4954 154.585 15.6957C154.087 15.897 153.521 15.6419 153.342 15.1351L145.674 -6.58882Z" fill="url(#paint92_linear_0_151)"/>
<path fill-rule="evenodd" clip-rule="evenodd" d="M158.035 24.0082L167.454 45.0325C167.672 45.5205 167.442 46.0924 166.946 46.2928C166.448 46.4941 165.882 46.239 165.703 45.7321L158.035 24.0082Z" fill="url(#paint93_linear_0_151)"/>
<path fill-rule="evenodd" clip-rule="evenodd" d="M170.022 53.6781L179.441 74.7024C179.66 75.1904 179.429 75.7623 178.934 75.9626C178.435 76.164 177.87 75.9089 177.691 75.402L170.022 53.6781Z" fill="url(#paint94_linear_0_151)"/>
<path fill-rule="evenodd" clip-rule="evenodd" d="M183.509 87.0568L192.927 108.081C193.146 108.569 192.916 109.141 192.42 109.341C191.922 109.543 191.356 109.287 191.177 108.781L183.509 87.0568Z" fill="url(#paint95_linear_0_151)"/>
<path fill-rule="evenodd" clip-rule="evenodd" d="M196.62 119.508L206.039 140.532C206.257 141.02 206.027 141.592 205.531 141.793C205.033 141.994 204.467 141.739 204.288 141.232L196.62 119.508Z" fill="url(#paint96_linear_0_151)"/>
<path fill-rule="evenodd" clip-rule="evenodd" d="M167.607 -0.351163L177.026 20.6731C177.245 21.1611 177.014 21.733 176.519 21.9333C176.02 22.1347 175.455 21.8796 175.276 21.3727L167.607 -0.351163Z" fill="url(#paint97_linear_0_151)"/>
<path fill-rule="evenodd" clip-rule="evenodd" d="M179.97 30.2459L189.388 51.2702C189.607 51.7582 189.377 52.3301 188.881 52.5304C188.382 52.7318 187.817 52.4766 187.638 51.9698L179.97 30.2459Z" fill="url(#paint98_linear_0_151)"/>
<path fill-rule="evenodd" clip-rule="evenodd" d="M191.957 59.9158L201.376 80.9401C201.594 81.428 201.364 82 200.868 82.2003C200.37 82.4016 199.804 82.1465 199.625 81.6397L191.957 59.9158Z" fill="url(#paint99_linear_0_151)"/>
<path fill-rule="evenodd" clip-rule="evenodd" d="M205.442 93.2944L214.861 114.319C215.08 114.807 214.849 115.379 214.353 115.579C213.855 115.78 213.29 115.525 213.111 115.018L205.442 93.2944Z" fill="url(#paint100_linear_0_151)"/>
<path fill-rule="evenodd" clip-rule="evenodd" d="M218.554 125.746L227.972 146.77C228.191 147.258 227.961 147.83 227.465 148.03C226.966 148.232 226.401 147.977 226.222 147.47L218.554 125.746Z" fill="url(#paint101_linear_0_151)"/>
<path fill-rule="evenodd" clip-rule="evenodd" d="M190.843 6.43907L200.261 27.4633C200.48 27.9513 200.25 28.5233 199.754 28.7236C199.256 28.9249 198.69 28.6698 198.511 28.163L190.843 6.43907Z" fill="url(#paint102_linear_0_151)"/>
<path fill-rule="evenodd" clip-rule="evenodd" d="M202.83 36.109L212.249 57.1332C212.467 57.6212 212.237 58.1932 211.741 58.3935C211.243 58.5948 210.677 58.3397 210.498 57.8329L202.83 36.109Z" fill="url(#paint103_linear_0_151)"/>
<path fill-rule="evenodd" clip-rule="evenodd" d="M216.316 69.4876L225.735 90.5118C225.954 90.9998 225.723 91.5718 225.227 91.7721C224.729 91.9734 224.164 91.7183 223.985 91.2115L216.316 69.4876Z" fill="url(#paint104_linear_0_151)"/>
<path fill-rule="evenodd" clip-rule="evenodd" d="M229.428 101.939L238.846 122.963C239.065 123.451 238.835 124.023 238.339 124.224C237.84 124.425 237.275 124.17 237.096 123.663L229.428 101.939Z" fill="url(#paint105_linear_0_151)"/>
</g>
<g style="mix-blend-mode:multiply" opacity="0.8">
<path fill-rule="evenodd" clip-rule="evenodd" d="M198.081 -13.9092L207.5 7.1151C207.718 7.60309 207.488 8.17503 206.992 8.37534C206.494 8.57668 205.928 8.32156 205.749 7.81473L198.081 -13.9092Z" fill="url(#paint106_linear_0_151)"/>
<path fill-rule="evenodd" clip-rule="evenodd" d="M210.817 17.6151L220.236 38.6394C220.455 39.1273 220.224 39.6993 219.728 39.8996C219.23 40.1009 218.665 39.8458 218.486 39.339L210.817 17.6151Z" fill="url(#paint107_linear_0_151)"/>
<path fill-rule="evenodd" clip-rule="evenodd" d="M223.18 48.2121L232.598 69.2364C232.817 69.7244 232.587 70.2964 232.091 70.4967C231.592 70.698 231.027 70.4429 230.848 69.936L223.18 48.2121Z" fill="url(#paint108_linear_0_151)"/>
<path fill-rule="evenodd" clip-rule="evenodd" d="M235.167 77.882L244.586 98.9063C244.804 99.3943 244.574 99.9662 244.078 100.167C243.58 100.368 243.014 100.113 242.835 99.6059L235.167 77.882Z" fill="url(#paint109_linear_0_151)"/>
<path fill-rule="evenodd" clip-rule="evenodd" d="M248.653 111.261L258.072 132.285C258.291 132.773 258.06 133.345 257.564 133.545C257.066 133.747 256.5 133.491 256.322 132.985L248.653 111.261Z" fill="url(#paint110_linear_0_151)"/>
<path fill-rule="evenodd" clip-rule="evenodd" d="M261.764 143.712L271.182 164.736C271.401 165.224 271.171 165.796 270.675 165.997C270.176 166.198 269.611 165.943 269.432 165.436L261.764 143.712Z" fill="url(#paint111_linear_0_151)"/>
<path fill-rule="evenodd" clip-rule="evenodd" d="M224.51 3.45469L233.928 24.479C234.147 24.967 233.917 25.5389 233.421 25.7392C232.923 25.9405 232.357 25.6854 232.178 25.1786L224.51 3.45469Z" fill="url(#paint112_linear_0_151)"/>
<path fill-rule="evenodd" clip-rule="evenodd" d="M237.247 34.9789L246.666 56.0032C246.884 56.4912 246.654 57.0631 246.158 57.2635C245.66 57.4648 245.094 57.2097 244.915 56.7028L237.247 34.9789Z" fill="url(#paint113_linear_0_151)"/>
<path fill-rule="evenodd" clip-rule="evenodd" d="M249.608 65.576L259.027 86.6003C259.246 87.0883 259.015 87.6602 258.519 87.8605C258.021 88.0619 257.456 87.8067 257.277 87.2999L249.608 65.576Z" fill="url(#paint114_linear_0_151)"/>
<path fill-rule="evenodd" clip-rule="evenodd" d="M261.596 95.2459L271.014 116.27C271.233 116.758 271.003 117.33 270.507 117.53C270.008 117.732 269.443 117.477 269.264 116.97L261.596 95.2459Z" fill="url(#paint115_linear_0_151)"/>
<path fill-rule="evenodd" clip-rule="evenodd" d="M275.082 128.625L284.501 149.649C284.719 150.137 284.489 150.709 283.993 150.909C283.495 151.11 282.929 150.855 282.75 150.348L275.082 128.625Z" fill="url(#paint116_linear_0_151)"/>
<path fill-rule="evenodd" clip-rule="evenodd" d="M288.193 161.076L297.612 182.1C297.831 182.588 297.6 183.16 297.104 183.36C296.606 183.562 296.041 183.307 295.862 182.8L288.193 161.076Z" fill="url(#paint117_linear_0_151)"/>
<path fill-rule="evenodd" clip-rule="evenodd" d="M233.707 -21.8319L243.126 -0.807628C243.344 -0.319643 243.114 0.2523 242.618 0.452609C242.12 0.653952 241.554 0.398825 241.375 -0.108004L233.707 -21.8319Z" fill="url(#paint118_linear_0_151)"/>
<path fill-rule="evenodd" clip-rule="evenodd" d="M246.444 9.69235L255.863 30.7166C256.082 31.2046 255.851 31.7766 255.355 31.9769C254.857 32.1782 254.291 31.9231 254.113 31.4162L246.444 9.69235Z" fill="url(#paint119_linear_0_151)"/>
<path fill-rule="evenodd" clip-rule="evenodd" d="M258.806 40.2894L268.224 61.3137C268.443 61.8017 268.213 62.3736 267.717 62.5739C267.218 62.7753 266.653 62.5201 266.474 62.0133L258.806 40.2894Z" fill="url(#paint120_linear_0_151)"/>
<path fill-rule="evenodd" clip-rule="evenodd" d="M270.793 69.9593L280.212 90.9836C280.43 91.4716 280.2 92.0435 279.704 92.2438C279.206 92.4452 278.64 92.19 278.461 91.6832L270.793 69.9593Z" fill="url(#paint121_linear_0_151)"/>
<path fill-rule="evenodd" clip-rule="evenodd" d="M284.279 103.338L293.698 124.362C293.916 124.85 293.686 125.422 293.19 125.622C292.692 125.824 292.126 125.569 291.948 125.062L284.279 103.338Z" fill="url(#paint122_linear_0_151)"/>
<path fill-rule="evenodd" clip-rule="evenodd" d="M297.391 135.789L306.809 156.814C307.028 157.302 306.797 157.874 306.302 158.074C305.803 158.275 305.238 158.02 305.059 157.513L297.391 135.789Z" fill="url(#paint123_linear_0_151)"/>
<path fill-rule="evenodd" clip-rule="evenodd" d="M267.235 7.76332L276.654 28.7876C276.873 29.2756 276.642 29.8475 276.146 30.0478C275.648 30.2492 275.082 29.994 274.904 29.4872L267.235 7.76332Z" fill="url(#paint124_linear_0_151)"/>
<path fill-rule="evenodd" clip-rule="evenodd" d="M279.223 37.4332L288.641 58.4575C288.86 58.9455 288.63 59.5174 288.134 59.7177C287.635 59.9191 287.07 59.6639 286.891 59.1571L279.223 37.4332Z" fill="url(#paint125_linear_0_151)"/>
<path fill-rule="evenodd" clip-rule="evenodd" d="M292.708 70.8118L302.127 91.8361C302.345 92.3241 302.115 92.896 301.619 93.0963C301.121 93.2977 300.555 93.0425 300.376 92.5357L292.708 70.8118Z" fill="url(#paint126_linear_0_151)"/>
<path fill-rule="evenodd" clip-rule="evenodd" d="M305.819 103.263L315.238 124.288C315.457 124.776 315.226 125.347 314.73 125.548C314.232 125.749 313.666 125.494 313.488 124.987L305.819 103.263Z" fill="url(#paint127_linear_0_151)"/>
<path fill-rule="evenodd" clip-rule="evenodd" d="M278.68 -11.9602L288.098 9.0641C288.317 9.55209 288.087 10.124 287.591 10.3243C287.092 10.5257 286.527 10.2706 286.348 9.76373L278.68 -11.9602Z" fill="url(#paint128_linear_0_151)"/>
<path fill-rule="evenodd" clip-rule="evenodd" d="M290.667 17.7097L300.086 38.734C300.304 39.222 300.074 39.7939 299.578 39.9942C299.08 40.1956 298.514 39.9404 298.335 39.4336L290.667 17.7097Z" fill="url(#paint129_linear_0_151)"/>
<path fill-rule="evenodd" clip-rule="evenodd" d="M304.153 51.0883L313.572 72.1126C313.791 72.6006 313.56 73.1725 313.064 73.3728C312.566 73.5742 312 73.3191 311.822 72.8122L304.153 51.0883Z" fill="url(#paint130_linear_0_151)"/>
<path fill-rule="evenodd" clip-rule="evenodd" d="M317.265 83.5398L326.683 104.564C326.902 105.052 326.672 105.624 326.176 105.824C325.677 106.026 325.112 105.77 324.933 105.264L317.265 83.5398Z" fill="url(#paint131_linear_0_151)"/>
<path fill-rule="evenodd" clip-rule="evenodd" d="M298.366 -11.2856L307.785 9.73865C308.003 10.2266 307.773 10.7986 307.277 10.9989C306.779 11.2002 306.213 10.9451 306.034 10.4383L298.366 -11.2856Z" fill="url(#paint132_linear_0_151)"/>
<path fill-rule="evenodd" clip-rule="evenodd" d="M310.728 19.3114L320.147 40.3357C320.366 40.8237 320.135 41.3957 319.64 41.596C319.141 41.7973 318.576 41.5422 318.397 41.0353L310.728 19.3114Z" fill="url(#paint133_linear_0_151)"/>
<path fill-rule="evenodd" clip-rule="evenodd" d="M322.716 48.9813L332.134 70.0056C332.353 70.4936 332.123 71.0655 331.627 71.2658C331.129 71.4672 330.563 71.2121 330.384 70.7052L322.716 48.9813Z" fill="url(#paint134_linear_0_151)"/>
<path fill-rule="evenodd" clip-rule="evenodd" d="M336.201 82.3599L345.62 103.384C345.838 103.872 345.608 104.444 345.112 104.644C344.614 104.846 344.048 104.591 343.869 104.084L336.201 82.3599Z" fill="url(#paint135_linear_0_151)"/>
<path fill-rule="evenodd" clip-rule="evenodd" d="M349.312 114.811L358.731 135.836C358.95 136.324 358.719 136.896 358.224 137.096C357.725 137.297 357.16 137.042 356.981 136.535L349.312 114.811Z" fill="url(#paint136_linear_0_151)"/>
<path fill-rule="evenodd" clip-rule="evenodd" d="M320.853 -6.34975L330.271 14.6745C330.49 15.1625 330.259 15.7344 329.764 15.9348C329.265 16.1361 328.7 15.881 328.521 15.3741L320.853 -6.34975Z" fill="url(#paint137_linear_0_151)"/>
<path fill-rule="evenodd" clip-rule="evenodd" d="M332.84 23.3201L342.258 44.3444C342.477 44.8324 342.247 45.4043 341.751 45.6046C341.253 45.806 340.687 45.5509 340.508 45.044L332.84 23.3201Z" fill="url(#paint138_linear_0_151)"/>
<path fill-rule="evenodd" clip-rule="evenodd" d="M346.326 56.6987L355.745 77.723C355.963 78.211 355.733 78.7829 355.237 78.9833C354.739 79.1846 354.173 78.9295 353.994 78.4226L346.326 56.6987Z" fill="url(#paint139_linear_0_151)"/>
<path fill-rule="evenodd" clip-rule="evenodd" d="M359.437 89.1502L368.856 110.174C369.075 110.662 368.844 111.234 368.349 111.435C367.85 111.636 367.285 111.381 367.106 110.874L359.437 89.1502Z" fill="url(#paint140_linear_0_151)"/>
<path fill-rule="evenodd" clip-rule="evenodd" d="M343.339 -1.41389L352.757 19.6104C352.976 20.0984 352.746 20.6703 352.25 20.8706C351.752 21.072 351.186 20.8168 351.007 20.31L343.339 -1.41389Z" fill="url(#paint141_linear_0_151)"/>
<path fill-rule="evenodd" clip-rule="evenodd" d="M355.326 28.256L364.745 49.2803C364.963 49.7683 364.733 50.3402 364.237 50.5405C363.739 50.7418 363.173 50.4867 362.994 49.9799L355.326 28.256Z" fill="url(#paint142_linear_0_151)"/>
<path fill-rule="evenodd" clip-rule="evenodd" d="M368.812 61.6346L378.231 82.6589C378.45 83.1469 378.219 83.7188 377.724 83.9191C377.225 84.1205 376.66 83.8653 376.481 83.3585L368.812 61.6346Z" fill="url(#paint143_linear_0_151)"/>
<path fill-rule="evenodd" clip-rule="evenodd" d="M366.021 6.67813L375.44 27.7024C375.659 28.1904 375.428 28.7623 374.933 28.9626C374.434 29.164 373.869 28.9089 373.69 28.402L366.021 6.67813Z" fill="url(#paint144_linear_0_151)"/>
<path fill-rule="evenodd" clip-rule="evenodd" d="M375.969 -16.7541L385.387 4.27018C385.606 4.75816 385.376 5.33011 384.88 5.53041C384.381 5.73176 383.816 5.47663 383.637 4.9698L375.969 -16.7541Z" fill="url(#paint145_linear_0_151)"/>
</g>
<g style="mix-blend-mode:multiply" opacity="0.8">
<path fill-rule="evenodd" clip-rule="evenodd" d="M-0.0761998 227.086L9.3424 248.11C9.56101 248.598 9.3307 249.17 8.83492 249.371C8.33658 249.572 7.77097 249.317 7.59207 248.81L-0.0761998 227.086Z" fill="url(#paint146_linear_0_151)"/>
<path fill-rule="evenodd" clip-rule="evenodd" d="M-2.49222 173.057L6.92638 194.081C7.145 194.569 6.91468 195.141 6.4189 195.341C5.92056 195.543 5.35496 195.287 5.17606 194.781L-2.49222 173.057Z" fill="url(#paint147_linear_0_151)"/>
<path fill-rule="evenodd" clip-rule="evenodd" d="M10.6191 205.508L20.0377 226.532C20.2563 227.02 20.026 227.592 19.5302 227.793C19.0319 227.994 18.4663 227.739 18.2874 227.232L10.6191 205.508Z" fill="url(#paint148_linear_0_151)"/>
<path fill-rule="evenodd" clip-rule="evenodd" d="M-6.03128 116.246L3.38732 137.27C3.60593 137.758 3.37562 138.33 2.87984 138.53C2.3815 138.732 1.8159 138.477 1.63699 137.97L-6.03128 116.246Z" fill="url(#paint149_linear_0_151)"/>
<path fill-rule="evenodd" clip-rule="evenodd" d="M5.95603 145.916L15.3746 166.94C15.5932 167.428 15.3629 168 14.8671 168.2C14.3688 168.402 13.8032 168.147 13.6243 167.64L5.95603 145.916Z" fill="url(#paint150_linear_0_151)"/>
<path fill-rule="evenodd" clip-rule="evenodd" d="M19.4414 179.294L28.86 200.319C29.0786 200.807 28.8483 201.379 28.3525 201.579C27.8542 201.78 27.2886 201.525 27.1096 201.018L19.4414 179.294Z" fill="url(#paint151_linear_0_151)"/>
<path fill-rule="evenodd" clip-rule="evenodd" d="M32.5527 211.746L41.9713 232.77C42.1899 233.258 41.9596 233.83 41.4638 234.03C40.9655 234.232 40.3999 233.977 40.221 233.47L32.5527 211.746Z" fill="url(#paint152_linear_0_151)"/>
<path fill-rule="evenodd" clip-rule="evenodd" d="M-7.52054 61.842L1.89806 82.8663C2.11667 83.3543 1.88636 83.9262 1.39058 84.1265C0.892239 84.3279 0.326639 84.0727 0.147735 83.5659L-7.52054 61.842Z" fill="url(#paint153_linear_0_151)"/>
<path fill-rule="evenodd" clip-rule="evenodd" d="M4.84177 92.4391L14.2604 113.463C14.479 113.951 14.2487 114.523 13.7529 114.724C13.2545 114.925 12.6889 114.67 12.51 114.163L4.84177 92.4391Z" fill="url(#paint154_linear_0_151)"/>
<path fill-rule="evenodd" clip-rule="evenodd" d="M16.8291 122.109L26.2477 143.133C26.4663 143.621 26.236 144.193 25.7402 144.393C25.2418 144.595 24.6762 144.34 24.4973 143.833L16.8291 122.109Z" fill="url(#paint155_linear_0_151)"/>
<path fill-rule="evenodd" clip-rule="evenodd" d="M30.3154 155.488L39.734 176.512C39.9526 177 39.7223 177.572 39.2265 177.772C38.7282 177.973 38.1626 177.718 37.9837 177.211L30.3154 155.488Z" fill="url(#paint156_linear_0_151)"/>
<path fill-rule="evenodd" clip-rule="evenodd" d="M43.4267 187.939L52.8453 208.963C53.0639 209.451 52.8336 210.023 52.3378 210.224C51.8395 210.425 51.2739 210.17 51.095 209.663L43.4267 187.939Z" fill="url(#paint157_linear_0_151)"/>
</g>
<path fill-rule="evenodd" clip-rule="evenodd" d="M190.16 -40C195.261 -40 199.847 -37.8585 203.012 -34.452C206.879 -37.8981 212.025 -40 217.674 -40C229.685 -40 239.422 -30.4974 239.422 -18.7754C239.422 -18.2095 239.4 -17.6488 239.355 -17.0941C246.82 -13.7318 252 -6.36271 252 2.18716C252 13.9092 242.263 23.4118 230.251 23.4118C223.245 23.4118 217.012 20.1783 213.034 15.157C209.109 20.1446 202.558 23.4118 195.139 23.4118C185.925 23.4118 178.049 18.3724 174.881 11.2564C174.219 11.3238 173.547 11.3583 172.866 11.3583C162.447 11.3583 154 3.2635 154 -6.72192C154 -16.7074 162.447 -24.8021 172.866 -24.8021L172.941 -24.802C173.759 -33.3267 181.156 -40 190.16 -40Z" fill="url(#paint158_linear_0_151)"/>
<path fill-rule="evenodd" clip-rule="evenodd" d="M69.7968 -59C60.7399 -59 52.5989 -55.1977 46.9787 -49.1495C40.1134 -55.2681 30.9765 -59 20.9465 -59C-0.379944 -59 -17.6685 -42.1281 -17.6685 -21.3155C-17.6685 -20.3108 -17.6282 -19.3152 -17.5491 -18.3303C-30.8025 -12.3606 -40 0.723362 -40 15.9037C-40 36.7163 -22.7115 53.5882 -1.38503 53.5882C11.0553 53.5882 22.1216 47.8472 29.1838 38.9318C36.153 47.7874 47.7849 53.5882 60.9572 53.5882C77.3166 53.5882 91.3 44.6408 96.9261 32.0063C98.1012 32.1259 99.2945 32.1872 100.503 32.1872C119.003 32.1872 134 17.8148 134 0.0855637C134 -17.6437 119.003 -32.016 100.503 -32.016L100.37 -32.0158C98.9184 -47.1515 85.7845 -59 69.7968 -59Z" fill="url(#paint159_linear_0_151)"/>
<path fill-rule="evenodd" clip-rule="evenodd" d="M335 -37C344.734 -37 353.483 -32.9136 359.523 -26.4135C366.901 -32.9893 376.721 -37 387.5 -37C410.42 -37 429 -18.8675 429 3.5C429 4.5798 428.957 5.64973 428.872 6.70823C443.115 13.124 453 27.1855 453 43.5C453 65.8675 434.42 84 411.5 84C398.13 84 386.237 77.83 378.647 68.2486C371.157 77.7658 358.656 84 344.5 84C326.918 84 311.89 74.3841 305.844 60.8057C304.581 60.9341 303.298 61 302 61C282.118 61 266 45.5538 266 26.5C266 7.44617 282.118 -8 302 -8L302.143 -7.99973C303.703 -24.2662 317.818 -37 335 -37Z" fill="url(#paint160_linear_0_151)"/>
</g>
<defs>
<linearGradient id="paint0_linear_0_151" x1="65.0478" y1="181.205" x2="65.0478" y2="399.178" gradientUnits="userSpaceOnUse">
<stop stop-color="#DAE0E6"/>
<stop offset="1" stop-color="#EFF1F3"/>
</linearGradient>
<linearGradient id="paint1_linear_0_151" x1="92.6365" y1="399.845" x2="91.2507" y2="344.014" gradientUnits="userSpaceOnUse">
<stop stop-color="#536DB5" stop-opacity="0.01"/>
<stop offset="1" stop-color="#0E284B"/>
</linearGradient>
<linearGradient id="paint2_linear_0_151" x1="155.307" y1="361.475" x2="125.004" y2="336.679" gradientUnits="userSpaceOnUse">
<stop stop-color="#536DB5" stop-opacity="0.01"/>
<stop offset="1" stop-color="#0E284B"/>
</linearGradient>
<linearGradient id="paint3_linear_0_151" x1="-20.4639" y1="108.51" x2="-2.48275" y2="153.015" gradientUnits="userSpaceOnUse">
<stop stop-color="#E1E6EA" stop-opacity="0.01"/>
<stop offset="1" stop-color="#D6DBE2" stop-opacity="0.678952"/>
</linearGradient>
<linearGradient id="paint4_linear_0_151" x1="6.50781" y1="175.267" x2="24.4889" y2="219.772" gradientUnits="userSpaceOnUse">
<stop stop-color="#E1E6EA" stop-opacity="0.01"/>
<stop offset="1" stop-color="#D6DBE2" stop-opacity="0.678952"/>
</linearGradient>
<linearGradient id="paint5_linear_0_151" x1="32.7305" y1="240.17" x2="50.7116" y2="284.675" gradientUnits="userSpaceOnUse">
<stop stop-color="#E1E6EA" stop-opacity="0.01"/>
<stop offset="1" stop-color="#D6DBE2" stop-opacity="0.678952"/>
</linearGradient>
<linearGradient id="paint6_linear_0_151" x1="-16.3047" y1="22.7039" x2="1.67643" y2="67.2087" gradientUnits="userSpaceOnUse">
<stop stop-color="#E1E6EA" stop-opacity="0.01"/>
<stop offset="1" stop-color="#D6DBE2" stop-opacity="0.678952"/>
</linearGradient>
<linearGradient id="paint7_linear_0_151" x1="8.41992" y1="83.898" x2="26.401" y2="128.403" gradientUnits="userSpaceOnUse">
<stop stop-color="#E1E6EA" stop-opacity="0.01"/>
<stop offset="1" stop-color="#D6DBE2" stop-opacity="0.678952"/>
</linearGradient>
<linearGradient id="paint8_linear_0_151" x1="32.3945" y1="143.238" x2="50.3756" y2="187.743" gradientUnits="userSpaceOnUse">
<stop stop-color="#E1E6EA" stop-opacity="0.01"/>
<stop offset="1" stop-color="#D6DBE2" stop-opacity="0.678952"/>
</linearGradient>
<linearGradient id="paint9_linear_0_151" x1="59.3662" y1="209.995" x2="77.3473" y2="254.5" gradientUnits="userSpaceOnUse">
<stop stop-color="#E1E6EA" stop-opacity="0.01"/>
<stop offset="1" stop-color="#D6DBE2" stop-opacity="0.678952"/>
</linearGradient>
<linearGradient id="paint10_linear_0_151" x1="85.5889" y1="274.898" x2="103.57" y2="319.403" gradientUnits="userSpaceOnUse">
<stop stop-color="#E1E6EA" stop-opacity="0.01"/>
<stop offset="1" stop-color="#D6DBE2" stop-opacity="0.678952"/>
</linearGradient>
<linearGradient id="paint11_linear_0_151" x1="2.08984" y1="-27.8693" x2="20.071" y2="16.6355" gradientUnits="userSpaceOnUse">
<stop stop-color="#E1E6EA" stop-opacity="0.01"/>
<stop offset="1" stop-color="#D6DBE2" stop-opacity="0.678952"/>
</linearGradient>
<linearGradient id="paint12_linear_0_151" x1="26.8135" y1="33.3248" x2="44.7946" y2="77.8296" gradientUnits="userSpaceOnUse">
<stop stop-color="#E1E6EA" stop-opacity="0.01"/>
<stop offset="1" stop-color="#D6DBE2" stop-opacity="0.678952"/>
</linearGradient>
<linearGradient id="paint13_linear_0_151" x1="50.7891" y1="92.6646" x2="68.7702" y2="137.169" gradientUnits="userSpaceOnUse">
<stop stop-color="#E1E6EA" stop-opacity="0.01"/>
<stop offset="1" stop-color="#D6DBE2" stop-opacity="0.678952"/>
</linearGradient>
<linearGradient id="paint14_linear_0_151" x1="77.7607" y1="159.422" x2="95.7419" y2="203.927" gradientUnits="userSpaceOnUse">
<stop stop-color="#E1E6EA" stop-opacity="0.01"/>
<stop offset="1" stop-color="#D6DBE2" stop-opacity="0.678952"/>
</linearGradient>
<linearGradient id="paint15_linear_0_151" x1="103.983" y1="224.325" x2="121.965" y2="268.83" gradientUnits="userSpaceOnUse">
<stop stop-color="#E1E6EA" stop-opacity="0.01"/>
<stop offset="1" stop-color="#D6DBE2" stop-opacity="0.678952"/>
</linearGradient>
<linearGradient id="paint16_linear_0_151" x1="43.6729" y1="-31.7274" x2="61.654" y2="12.7775" gradientUnits="userSpaceOnUse">
<stop stop-color="#E1E6EA" stop-opacity="0.01"/>
<stop offset="1" stop-color="#D6DBE2" stop-opacity="0.678952"/>
</linearGradient>
<linearGradient id="paint17_linear_0_151" x1="67.6475" y1="27.6124" x2="85.6286" y2="72.1172" gradientUnits="userSpaceOnUse">
<stop stop-color="#E1E6EA" stop-opacity="0.01"/>
<stop offset="1" stop-color="#D6DBE2" stop-opacity="0.678952"/>
</linearGradient>
<linearGradient id="paint18_linear_0_151" x1="94.6191" y1="94.3696" x2="112.6" y2="138.874" gradientUnits="userSpaceOnUse">
<stop stop-color="#E1E6EA" stop-opacity="0.01"/>
<stop offset="1" stop-color="#D6DBE2" stop-opacity="0.678952"/>
</linearGradient>
<linearGradient id="paint19_linear_0_151" x1="120.842" y1="159.273" x2="138.823" y2="203.777" gradientUnits="userSpaceOnUse">
<stop stop-color="#E1E6EA" stop-opacity="0.01"/>
<stop offset="1" stop-color="#D6DBE2" stop-opacity="0.678952"/>
</linearGradient>
<linearGradient id="paint20_linear_0_151" x1="90.5371" y1="-11.8346" x2="108.518" y2="32.6702" gradientUnits="userSpaceOnUse">
<stop stop-color="#E1E6EA" stop-opacity="0.01"/>
<stop offset="1" stop-color="#D6DBE2" stop-opacity="0.678952"/>
</linearGradient>
<linearGradient id="paint21_linear_0_151" x1="117.509" y1="54.9226" x2="135.49" y2="99.4275" gradientUnits="userSpaceOnUse">
<stop stop-color="#E1E6EA" stop-opacity="0.01"/>
<stop offset="1" stop-color="#D6DBE2" stop-opacity="0.678952"/>
</linearGradient>
<linearGradient id="paint22_linear_0_151" x1="143.731" y1="119.826" x2="161.713" y2="164.33" gradientUnits="userSpaceOnUse">
<stop stop-color="#E1E6EA" stop-opacity="0.01"/>
<stop offset="1" stop-color="#D6DBE2" stop-opacity="0.678952"/>
</linearGradient>
<linearGradient id="paint23_linear_0_151" x1="130.658" y1="-8.63112" x2="148.639" y2="35.8737" gradientUnits="userSpaceOnUse">
<stop stop-color="#E1E6EA" stop-opacity="0.01"/>
<stop offset="1" stop-color="#D6DBE2" stop-opacity="0.678952"/>
</linearGradient>
<linearGradient id="paint24_linear_0_151" x1="154.634" y1="50.7086" x2="172.615" y2="95.2135" gradientUnits="userSpaceOnUse">
<stop stop-color="#E1E6EA" stop-opacity="0.01"/>
<stop offset="1" stop-color="#D6DBE2" stop-opacity="0.678952"/>
</linearGradient>
<linearGradient id="paint25_linear_0_151" x1="181.605" y1="117.466" x2="199.587" y2="161.971" gradientUnits="userSpaceOnUse">
<stop stop-color="#E1E6EA" stop-opacity="0.01"/>
<stop offset="1" stop-color="#D6DBE2" stop-opacity="0.678952"/>
</linearGradient>
<linearGradient id="paint26_linear_0_151" x1="207.827" y1="182.369" x2="225.808" y2="226.874" gradientUnits="userSpaceOnUse">
<stop stop-color="#E1E6EA" stop-opacity="0.01"/>
<stop offset="1" stop-color="#D6DBE2" stop-opacity="0.678952"/>
</linearGradient>
<linearGradient id="paint27_linear_0_151" x1="174.882" y1="-0.613758" x2="192.863" y2="43.8911" gradientUnits="userSpaceOnUse">
<stop stop-color="#E1E6EA" stop-opacity="0.01"/>
<stop offset="1" stop-color="#D6DBE2" stop-opacity="0.678952"/>
</linearGradient>
<linearGradient id="paint28_linear_0_151" x1="201.854" y1="66.1435" x2="219.835" y2="110.648" gradientUnits="userSpaceOnUse">
<stop stop-color="#E1E6EA" stop-opacity="0.01"/>
<stop offset="1" stop-color="#D6DBE2" stop-opacity="0.678952"/>
</linearGradient>
<linearGradient id="paint29_linear_0_151" x1="228.076" y1="131.046" x2="246.057" y2="175.551" gradientUnits="userSpaceOnUse">
<stop stop-color="#E1E6EA" stop-opacity="0.01"/>
<stop offset="1" stop-color="#D6DBE2" stop-opacity="0.678952"/>
</linearGradient>
<linearGradient id="paint30_linear_0_151" x1="219.854" y1="9.25797" x2="237.836" y2="53.7628" gradientUnits="userSpaceOnUse">
<stop stop-color="#E1E6EA" stop-opacity="0.01"/>
<stop offset="1" stop-color="#D6DBE2" stop-opacity="0.678952"/>
</linearGradient>
<linearGradient id="paint31_linear_0_151" x1="246.826" y1="76.0152" x2="264.807" y2="120.52" gradientUnits="userSpaceOnUse">
<stop stop-color="#E1E6EA" stop-opacity="0.01"/>
<stop offset="1" stop-color="#D6DBE2" stop-opacity="0.678952"/>
</linearGradient>
<linearGradient id="paint32_linear_0_151" x1="273.049" y1="140.918" x2="291.03" y2="185.423" gradientUnits="userSpaceOnUse">
<stop stop-color="#E1E6EA" stop-opacity="0.01"/>
<stop offset="1" stop-color="#D6DBE2" stop-opacity="0.678952"/>
</linearGradient>
<linearGradient id="paint33_linear_0_151" x1="241.246" y1="-33.8978" x2="259.227" y2="10.6071" gradientUnits="userSpaceOnUse">
<stop stop-color="#E1E6EA" stop-opacity="0.01"/>
<stop offset="1" stop-color="#D6DBE2" stop-opacity="0.678952"/>
</linearGradient>
<linearGradient id="paint34_linear_0_151" x1="268.218" y1="32.8595" x2="286.199" y2="77.3643" gradientUnits="userSpaceOnUse">
<stop stop-color="#E1E6EA" stop-opacity="0.01"/>
<stop offset="1" stop-color="#D6DBE2" stop-opacity="0.678952"/>
</linearGradient>
<linearGradient id="paint35_linear_0_151" x1="294.44" y1="97.7624" x2="312.422" y2="142.267" gradientUnits="userSpaceOnUse">
<stop stop-color="#E1E6EA" stop-opacity="0.01"/>
<stop offset="1" stop-color="#D6DBE2" stop-opacity="0.678952"/>
</linearGradient>
<linearGradient id="paint36_linear_0_151" x1="285.113" y1="-21.4224" x2="303.094" y2="23.0824" gradientUnits="userSpaceOnUse">
<stop stop-color="#E1E6EA" stop-opacity="0.01"/>
<stop offset="1" stop-color="#D6DBE2" stop-opacity="0.678952"/>
</linearGradient>
<linearGradient id="paint37_linear_0_151" x1="312.085" y1="45.3348" x2="330.066" y2="89.8396" gradientUnits="userSpaceOnUse">
<stop stop-color="#E1E6EA" stop-opacity="0.01"/>
<stop offset="1" stop-color="#D6DBE2" stop-opacity="0.678952"/>
</linearGradient>
<linearGradient id="paint38_linear_0_151" x1="338.308" y1="110.238" x2="356.289" y2="154.742" gradientUnits="userSpaceOnUse">
<stop stop-color="#E1E6EA" stop-opacity="0.01"/>
<stop offset="1" stop-color="#D6DBE2" stop-opacity="0.678952"/>
</linearGradient>
<linearGradient id="paint39_linear_0_151" x1="333.832" y1="-2.27887" x2="351.813" y2="42.226" gradientUnits="userSpaceOnUse">
<stop stop-color="#E1E6EA" stop-opacity="0.01"/>
<stop offset="1" stop-color="#D6DBE2" stop-opacity="0.678952"/>
</linearGradient>
<linearGradient id="paint40_linear_0_151" x1="360.055" y1="62.624" x2="378.036" y2="107.129" gradientUnits="userSpaceOnUse">
<stop stop-color="#E1E6EA" stop-opacity="0.01"/>
<stop offset="1" stop-color="#D6DBE2" stop-opacity="0.678952"/>
</linearGradient>
<linearGradient id="paint41_linear_0_151" x1="-10.0547" y1="5.6383" x2="-1.06413" y2="27.8907" gradientUnits="userSpaceOnUse">
<stop stop-color="#E1E6EA" stop-opacity="0.01"/>
<stop offset="1" stop-color="#D6DBE2" stop-opacity="0.678952"/>
</linearGradient>
<linearGradient id="paint42_linear_0_151" x1="1.18359" y1="33.4538" x2="10.1742" y2="55.7062" gradientUnits="userSpaceOnUse">
<stop stop-color="#E1E6EA" stop-opacity="0.01"/>
<stop offset="1" stop-color="#D6DBE2" stop-opacity="0.678952"/>
</linearGradient>
<linearGradient id="paint43_linear_0_151" x1="13.9199" y1="64.9781" x2="22.9105" y2="87.2305" gradientUnits="userSpaceOnUse">
<stop stop-color="#E1E6EA" stop-opacity="0.01"/>
<stop offset="1" stop-color="#D6DBE2" stop-opacity="0.678952"/>
</linearGradient>
<linearGradient id="paint44_linear_0_151" x1="26.2822" y1="95.5751" x2="35.2728" y2="117.828" gradientUnits="userSpaceOnUse">
<stop stop-color="#E1E6EA" stop-opacity="0.01"/>
<stop offset="1" stop-color="#D6DBE2" stop-opacity="0.678952"/>
</linearGradient>
<linearGradient id="paint45_linear_0_151" x1="38.2695" y1="125.245" x2="47.2601" y2="147.497" gradientUnits="userSpaceOnUse">
<stop stop-color="#E1E6EA" stop-opacity="0.01"/>
<stop offset="1" stop-color="#D6DBE2" stop-opacity="0.678952"/>
</linearGradient>
<linearGradient id="paint46_linear_0_151" x1="51.7559" y1="158.624" x2="60.7464" y2="180.876" gradientUnits="userSpaceOnUse">
<stop stop-color="#E1E6EA" stop-opacity="0.01"/>
<stop offset="1" stop-color="#D6DBE2" stop-opacity="0.678952"/>
</linearGradient>
<linearGradient id="paint47_linear_0_151" x1="64.8662" y1="191.075" x2="73.8568" y2="213.327" gradientUnits="userSpaceOnUse">
<stop stop-color="#E1E6EA" stop-opacity="0.01"/>
<stop offset="1" stop-color="#D6DBE2" stop-opacity="0.678952"/>
</linearGradient>
<linearGradient id="paint48_linear_0_151" x1="5.13672" y1="-4.81336" x2="14.1273" y2="17.4391" gradientUnits="userSpaceOnUse">
<stop stop-color="#E1E6EA" stop-opacity="0.01"/>
<stop offset="1" stop-color="#D6DBE2" stop-opacity="0.678952"/>
</linearGradient>
<linearGradient id="paint49_linear_0_151" x1="16.374" y1="23.0022" x2="25.3646" y2="45.2546" gradientUnits="userSpaceOnUse">
<stop stop-color="#E1E6EA" stop-opacity="0.01"/>
<stop offset="1" stop-color="#D6DBE2" stop-opacity="0.678952"/>
</linearGradient>
<linearGradient id="paint50_linear_0_151" x1="27.6123" y1="50.8177" x2="36.6029" y2="73.0701" gradientUnits="userSpaceOnUse">
<stop stop-color="#E1E6EA" stop-opacity="0.01"/>
<stop offset="1" stop-color="#D6DBE2" stop-opacity="0.678952"/>
</linearGradient>
<linearGradient id="paint51_linear_0_151" x1="40.3496" y1="82.3419" x2="49.3402" y2="104.594" gradientUnits="userSpaceOnUse">
<stop stop-color="#E1E6EA" stop-opacity="0.01"/>
<stop offset="1" stop-color="#D6DBE2" stop-opacity="0.678952"/>
</linearGradient>
<linearGradient id="paint52_linear_0_151" x1="52.7109" y1="112.939" x2="61.7015" y2="135.191" gradientUnits="userSpaceOnUse">
<stop stop-color="#E1E6EA" stop-opacity="0.01"/>
<stop offset="1" stop-color="#D6DBE2" stop-opacity="0.678952"/>
</linearGradient>
<linearGradient id="paint53_linear_0_151" x1="64.6982" y1="142.609" x2="73.6888" y2="164.861" gradientUnits="userSpaceOnUse">
<stop stop-color="#E1E6EA" stop-opacity="0.01"/>
<stop offset="1" stop-color="#D6DBE2" stop-opacity="0.678952"/>
</linearGradient>
<linearGradient id="paint54_linear_0_151" x1="78.1846" y1="175.988" x2="87.1751" y2="198.24" gradientUnits="userSpaceOnUse">
<stop stop-color="#E1E6EA" stop-opacity="0.01"/>
<stop offset="1" stop-color="#D6DBE2" stop-opacity="0.678952"/>
</linearGradient>
<linearGradient id="paint55_linear_0_151" x1="91.2959" y1="208.439" x2="100.286" y2="230.691" gradientUnits="userSpaceOnUse">
<stop stop-color="#E1E6EA" stop-opacity="0.01"/>
<stop offset="1" stop-color="#D6DBE2" stop-opacity="0.678952"/>
</linearGradient>
<linearGradient id="paint56_linear_0_151" x1="25.5713" y1="-2.28444" x2="34.5618" y2="19.968" gradientUnits="userSpaceOnUse">
<stop stop-color="#E1E6EA" stop-opacity="0.01"/>
<stop offset="1" stop-color="#D6DBE2" stop-opacity="0.678952"/>
</linearGradient>
<linearGradient id="paint57_linear_0_151" x1="36.8096" y1="25.5311" x2="45.8001" y2="47.7835" gradientUnits="userSpaceOnUse">
<stop stop-color="#E1E6EA" stop-opacity="0.01"/>
<stop offset="1" stop-color="#D6DBE2" stop-opacity="0.678952"/>
</linearGradient>
<linearGradient id="paint58_linear_0_151" x1="49.5469" y1="57.0553" x2="58.5374" y2="79.3077" gradientUnits="userSpaceOnUse">
<stop stop-color="#E1E6EA" stop-opacity="0.01"/>
<stop offset="1" stop-color="#D6DBE2" stop-opacity="0.678952"/>
</linearGradient>
<linearGradient id="paint59_linear_0_151" x1="61.9082" y1="87.6524" x2="70.8988" y2="109.905" gradientUnits="userSpaceOnUse">
<stop stop-color="#E1E6EA" stop-opacity="0.01"/>
<stop offset="1" stop-color="#D6DBE2" stop-opacity="0.678952"/>
</linearGradient>
<linearGradient id="paint60_linear_0_151" x1="73.8955" y1="117.322" x2="82.8861" y2="139.575" gradientUnits="userSpaceOnUse">
<stop stop-color="#E1E6EA" stop-opacity="0.01"/>
<stop offset="1" stop-color="#D6DBE2" stop-opacity="0.678952"/>
</linearGradient>
<linearGradient id="paint61_linear_0_151" x1="87.3818" y1="150.701" x2="96.3724" y2="172.953" gradientUnits="userSpaceOnUse">
<stop stop-color="#E1E6EA" stop-opacity="0.01"/>
<stop offset="1" stop-color="#D6DBE2" stop-opacity="0.678952"/>
</linearGradient>
<linearGradient id="paint62_linear_0_151" x1="100.493" y1="183.152" x2="109.484" y2="205.405" gradientUnits="userSpaceOnUse">
<stop stop-color="#E1E6EA" stop-opacity="0.01"/>
<stop offset="1" stop-color="#D6DBE2" stop-opacity="0.678952"/>
</linearGradient>
<linearGradient id="paint63_linear_0_151" x1="45.2393" y1="-6.99502" x2="54.2298" y2="15.2574" gradientUnits="userSpaceOnUse">
<stop stop-color="#E1E6EA" stop-opacity="0.01"/>
<stop offset="1" stop-color="#D6DBE2" stop-opacity="0.678952"/>
</linearGradient>
<linearGradient id="paint64_linear_0_151" x1="57.9756" y1="24.5292" x2="66.9661" y2="46.7816" gradientUnits="userSpaceOnUse">
<stop stop-color="#E1E6EA" stop-opacity="0.01"/>
<stop offset="1" stop-color="#D6DBE2" stop-opacity="0.678952"/>
</linearGradient>
<linearGradient id="paint65_linear_0_151" x1="70.3379" y1="55.1263" x2="79.3284" y2="77.3787" gradientUnits="userSpaceOnUse">
<stop stop-color="#E1E6EA" stop-opacity="0.01"/>
<stop offset="1" stop-color="#D6DBE2" stop-opacity="0.678952"/>
</linearGradient>
<linearGradient id="paint66_linear_0_151" x1="82.3252" y1="84.7962" x2="91.3158" y2="107.049" gradientUnits="userSpaceOnUse">
<stop stop-color="#E1E6EA" stop-opacity="0.01"/>
<stop offset="1" stop-color="#D6DBE2" stop-opacity="0.678952"/>
</linearGradient>
<linearGradient id="paint67_linear_0_151" x1="95.8105" y1="118.175" x2="104.801" y2="140.427" gradientUnits="userSpaceOnUse">
<stop stop-color="#E1E6EA" stop-opacity="0.01"/>
<stop offset="1" stop-color="#D6DBE2" stop-opacity="0.678952"/>
</linearGradient>
<linearGradient id="paint68_linear_0_151" x1="108.922" y1="150.626" x2="117.912" y2="172.879" gradientUnits="userSpaceOnUse">
<stop stop-color="#E1E6EA" stop-opacity="0.01"/>
<stop offset="1" stop-color="#D6DBE2" stop-opacity="0.678952"/>
</linearGradient>
<linearGradient id="paint69_linear_0_151" x1="69.4209" y1="4.80574" x2="78.4115" y2="27.0582" gradientUnits="userSpaceOnUse">
<stop stop-color="#E1E6EA" stop-opacity="0.01"/>
<stop offset="1" stop-color="#D6DBE2" stop-opacity="0.678952"/>
</linearGradient>
<linearGradient id="paint70_linear_0_151" x1="81.7822" y1="35.4028" x2="90.7728" y2="57.6552" gradientUnits="userSpaceOnUse">
<stop stop-color="#E1E6EA" stop-opacity="0.01"/>
<stop offset="1" stop-color="#D6DBE2" stop-opacity="0.678952"/>
</linearGradient>
<linearGradient id="paint71_linear_0_151" x1="93.7695" y1="65.0727" x2="102.76" y2="87.3251" gradientUnits="userSpaceOnUse">
<stop stop-color="#E1E6EA" stop-opacity="0.01"/>
<stop offset="1" stop-color="#D6DBE2" stop-opacity="0.678952"/>
</linearGradient>
<linearGradient id="paint72_linear_0_151" x1="107.256" y1="98.4513" x2="116.246" y2="120.704" gradientUnits="userSpaceOnUse">
<stop stop-color="#E1E6EA" stop-opacity="0.01"/>
<stop offset="1" stop-color="#D6DBE2" stop-opacity="0.678952"/>
</linearGradient>
<linearGradient id="paint73_linear_0_151" x1="120.367" y1="130.903" x2="129.358" y2="153.155" gradientUnits="userSpaceOnUse">
<stop stop-color="#E1E6EA" stop-opacity="0.01"/>
<stop offset="1" stop-color="#D6DBE2" stop-opacity="0.678952"/>
</linearGradient>
<linearGradient id="paint74_linear_0_151" x1="88.7324" y1="4.55311" x2="97.723" y2="26.8055" gradientUnits="userSpaceOnUse">
<stop stop-color="#E1E6EA" stop-opacity="0.01"/>
<stop offset="1" stop-color="#D6DBE2" stop-opacity="0.678952"/>
</linearGradient>
<linearGradient id="paint75_linear_0_151" x1="101.469" y1="36.0774" x2="110.459" y2="58.3298" gradientUnits="userSpaceOnUse">
<stop stop-color="#E1E6EA" stop-opacity="0.01"/>
<stop offset="1" stop-color="#D6DBE2" stop-opacity="0.678952"/>
</linearGradient>
<linearGradient id="paint76_linear_0_151" x1="113.831" y1="66.6744" x2="122.822" y2="88.9268" gradientUnits="userSpaceOnUse">
<stop stop-color="#E1E6EA" stop-opacity="0.01"/>
<stop offset="1" stop-color="#D6DBE2" stop-opacity="0.678952"/>
</linearGradient>
<linearGradient id="paint77_linear_0_151" x1="125.818" y1="96.3443" x2="134.809" y2="118.597" gradientUnits="userSpaceOnUse">
<stop stop-color="#E1E6EA" stop-opacity="0.01"/>
<stop offset="1" stop-color="#D6DBE2" stop-opacity="0.678952"/>
</linearGradient>
<linearGradient id="paint78_linear_0_151" x1="139.304" y1="129.723" x2="148.294" y2="151.975" gradientUnits="userSpaceOnUse">
<stop stop-color="#E1E6EA" stop-opacity="0.01"/>
<stop offset="1" stop-color="#D6DBE2" stop-opacity="0.678952"/>
</linearGradient>
<linearGradient id="paint79_linear_0_151" x1="152.415" y1="162.174" x2="161.406" y2="184.427" gradientUnits="userSpaceOnUse">
<stop stop-color="#E1E6EA" stop-opacity="0.01"/>
<stop offset="1" stop-color="#D6DBE2" stop-opacity="0.678952"/>
</linearGradient>
<linearGradient id="paint80_linear_0_151" x1="98.8564" y1="-21.1081" x2="107.847" y2="1.14432" gradientUnits="userSpaceOnUse">
<stop stop-color="#E1E6EA" stop-opacity="0.01"/>
<stop offset="1" stop-color="#D6DBE2" stop-opacity="0.678952"/>
</linearGradient>
<linearGradient id="paint81_linear_0_151" x1="111.593" y1="10.4162" x2="120.583" y2="32.6686" gradientUnits="userSpaceOnUse">
<stop stop-color="#E1E6EA" stop-opacity="0.01"/>
<stop offset="1" stop-color="#D6DBE2" stop-opacity="0.678952"/>
</linearGradient>
<linearGradient id="paint82_linear_0_151" x1="123.955" y1="41.0132" x2="132.946" y2="63.2656" gradientUnits="userSpaceOnUse">
<stop stop-color="#E1E6EA" stop-opacity="0.01"/>
<stop offset="1" stop-color="#D6DBE2" stop-opacity="0.678952"/>
</linearGradient>
<linearGradient id="paint83_linear_0_151" x1="135.942" y1="70.6831" x2="144.933" y2="92.9355" gradientUnits="userSpaceOnUse">
<stop stop-color="#E1E6EA" stop-opacity="0.01"/>
<stop offset="1" stop-color="#D6DBE2" stop-opacity="0.678952"/>
</linearGradient>
<linearGradient id="paint84_linear_0_151" x1="149.429" y1="104.062" x2="158.419" y2="126.314" gradientUnits="userSpaceOnUse">
<stop stop-color="#E1E6EA" stop-opacity="0.01"/>
<stop offset="1" stop-color="#D6DBE2" stop-opacity="0.678952"/>
</linearGradient>
<linearGradient id="paint85_linear_0_151" x1="162.54" y1="136.513" x2="171.531" y2="158.766" gradientUnits="userSpaceOnUse">
<stop stop-color="#E1E6EA" stop-opacity="0.01"/>
<stop offset="1" stop-color="#D6DBE2" stop-opacity="0.678952"/>
</linearGradient>
<linearGradient id="paint86_linear_0_151" x1="121.343" y1="-16.1722" x2="130.333" y2="6.08018" gradientUnits="userSpaceOnUse">
<stop stop-color="#E1E6EA" stop-opacity="0.01"/>
<stop offset="1" stop-color="#D6DBE2" stop-opacity="0.678952"/>
</linearGradient>
<linearGradient id="paint87_linear_0_151" x1="134.079" y1="15.352" x2="143.07" y2="37.6044" gradientUnits="userSpaceOnUse">
<stop stop-color="#E1E6EA" stop-opacity="0.01"/>
<stop offset="1" stop-color="#D6DBE2" stop-opacity="0.678952"/>
</linearGradient>
<linearGradient id="paint88_linear_0_151" x1="146.441" y1="45.9491" x2="155.432" y2="68.2015" gradientUnits="userSpaceOnUse">
<stop stop-color="#E1E6EA" stop-opacity="0.01"/>
<stop offset="1" stop-color="#D6DBE2" stop-opacity="0.678952"/>
</linearGradient>
<linearGradient id="paint89_linear_0_151" x1="158.429" y1="75.619" x2="167.419" y2="97.8714" gradientUnits="userSpaceOnUse">
<stop stop-color="#E1E6EA" stop-opacity="0.01"/>
<stop offset="1" stop-color="#D6DBE2" stop-opacity="0.678952"/>
</linearGradient>
<linearGradient id="paint90_linear_0_151" x1="171.915" y1="108.998" x2="180.906" y2="131.25" gradientUnits="userSpaceOnUse">
<stop stop-color="#E1E6EA" stop-opacity="0.01"/>
<stop offset="1" stop-color="#D6DBE2" stop-opacity="0.678952"/>
</linearGradient>
<linearGradient id="paint91_linear_0_151" x1="185.026" y1="141.449" x2="194.017" y2="163.701" gradientUnits="userSpaceOnUse">
<stop stop-color="#E1E6EA" stop-opacity="0.01"/>
<stop offset="1" stop-color="#D6DBE2" stop-opacity="0.678952"/>
</linearGradient>
<linearGradient id="paint92_linear_0_151" x1="144.775" y1="-6.22584" x2="153.766" y2="16.0266" gradientUnits="userSpaceOnUse">
<stop stop-color="#E1E6EA" stop-opacity="0.01"/>
<stop offset="1" stop-color="#D6DBE2" stop-opacity="0.678952"/>
</linearGradient>
<linearGradient id="paint93_linear_0_151" x1="157.137" y1="24.3712" x2="166.127" y2="46.6236" gradientUnits="userSpaceOnUse">
<stop stop-color="#E1E6EA" stop-opacity="0.01"/>
<stop offset="1" stop-color="#D6DBE2" stop-opacity="0.678952"/>
</linearGradient>
<linearGradient id="paint94_linear_0_151" x1="169.124" y1="54.0411" x2="178.115" y2="76.2935" gradientUnits="userSpaceOnUse">
<stop stop-color="#E1E6EA" stop-opacity="0.01"/>
<stop offset="1" stop-color="#D6DBE2" stop-opacity="0.678952"/>
</linearGradient>
<linearGradient id="paint95_linear_0_151" x1="182.61" y1="87.4197" x2="191.601" y2="109.672" gradientUnits="userSpaceOnUse">
<stop stop-color="#E1E6EA" stop-opacity="0.01"/>
<stop offset="1" stop-color="#D6DBE2" stop-opacity="0.678952"/>
</linearGradient>
<linearGradient id="paint96_linear_0_151" x1="195.722" y1="119.871" x2="204.712" y2="142.124" gradientUnits="userSpaceOnUse">
<stop stop-color="#E1E6EA" stop-opacity="0.01"/>
<stop offset="1" stop-color="#D6DBE2" stop-opacity="0.678952"/>
</linearGradient>
<linearGradient id="paint97_linear_0_151" x1="166.709" y1="0.0118179" x2="175.7" y2="22.2642" gradientUnits="userSpaceOnUse">
<stop stop-color="#E1E6EA" stop-opacity="0.01"/>
<stop offset="1" stop-color="#D6DBE2" stop-opacity="0.678952"/>
</linearGradient>
<linearGradient id="paint98_linear_0_151" x1="179.071" y1="30.6089" x2="188.062" y2="52.8613" gradientUnits="userSpaceOnUse">
<stop stop-color="#E1E6EA" stop-opacity="0.01"/>
<stop offset="1" stop-color="#D6DBE2" stop-opacity="0.678952"/>
</linearGradient>
<linearGradient id="paint99_linear_0_151" x1="191.059" y1="60.2788" x2="200.049" y2="82.5312" gradientUnits="userSpaceOnUse">
<stop stop-color="#E1E6EA" stop-opacity="0.01"/>
<stop offset="1" stop-color="#D6DBE2" stop-opacity="0.678952"/>
</linearGradient>
<linearGradient id="paint100_linear_0_151" x1="204.544" y1="93.6574" x2="213.535" y2="115.91" gradientUnits="userSpaceOnUse">
<stop stop-color="#E1E6EA" stop-opacity="0.01"/>
<stop offset="1" stop-color="#D6DBE2" stop-opacity="0.678952"/>
</linearGradient>
<linearGradient id="paint101_linear_0_151" x1="217.655" y1="126.109" x2="226.646" y2="148.361" gradientUnits="userSpaceOnUse">
<stop stop-color="#E1E6EA" stop-opacity="0.01"/>
<stop offset="1" stop-color="#D6DBE2" stop-opacity="0.678952"/>
</linearGradient>
<linearGradient id="paint102_linear_0_151" x1="189.944" y1="6.80205" x2="198.935" y2="29.0545" gradientUnits="userSpaceOnUse">
<stop stop-color="#E1E6EA" stop-opacity="0.01"/>
<stop offset="1" stop-color="#D6DBE2" stop-opacity="0.678952"/>
</linearGradient>
<linearGradient id="paint103_linear_0_151" x1="201.932" y1="36.4719" x2="210.922" y2="58.7243" gradientUnits="userSpaceOnUse">
<stop stop-color="#E1E6EA" stop-opacity="0.01"/>
<stop offset="1" stop-color="#D6DBE2" stop-opacity="0.678952"/>
</linearGradient>
<linearGradient id="paint104_linear_0_151" x1="215.418" y1="69.8506" x2="224.409" y2="92.103" gradientUnits="userSpaceOnUse">
<stop stop-color="#E1E6EA" stop-opacity="0.01"/>
<stop offset="1" stop-color="#D6DBE2" stop-opacity="0.678952"/>
</linearGradient>
<linearGradient id="paint105_linear_0_151" x1="228.529" y1="102.302" x2="237.52" y2="124.554" gradientUnits="userSpaceOnUse">
<stop stop-color="#E1E6EA" stop-opacity="0.01"/>
<stop offset="1" stop-color="#D6DBE2" stop-opacity="0.678952"/>
</linearGradient>
<linearGradient id="paint106_linear_0_151" x1="197.183" y1="-13.5462" x2="206.173" y2="8.70623" gradientUnits="userSpaceOnUse">
<stop stop-color="#E1E6EA" stop-opacity="0.01"/>
<stop offset="1" stop-color="#D6DBE2" stop-opacity="0.678952"/>
</linearGradient>
<linearGradient id="paint107_linear_0_151" x1="209.919" y1="17.9781" x2="218.91" y2="40.2305" gradientUnits="userSpaceOnUse">
<stop stop-color="#E1E6EA" stop-opacity="0.01"/>
<stop offset="1" stop-color="#D6DBE2" stop-opacity="0.678952"/>
</linearGradient>
<linearGradient id="paint108_linear_0_151" x1="222.281" y1="48.5751" x2="231.272" y2="70.8275" gradientUnits="userSpaceOnUse">
<stop stop-color="#E1E6EA" stop-opacity="0.01"/>
<stop offset="1" stop-color="#D6DBE2" stop-opacity="0.678952"/>
</linearGradient>
<linearGradient id="paint109_linear_0_151" x1="234.269" y1="78.245" x2="243.259" y2="100.497" gradientUnits="userSpaceOnUse">
<stop stop-color="#E1E6EA" stop-opacity="0.01"/>
<stop offset="1" stop-color="#D6DBE2" stop-opacity="0.678952"/>
</linearGradient>
<linearGradient id="paint110_linear_0_151" x1="247.755" y1="111.624" x2="256.745" y2="133.876" gradientUnits="userSpaceOnUse">
<stop stop-color="#E1E6EA" stop-opacity="0.01"/>
<stop offset="1" stop-color="#D6DBE2" stop-opacity="0.678952"/>
</linearGradient>
<linearGradient id="paint111_linear_0_151" x1="260.865" y1="144.075" x2="269.856" y2="166.327" gradientUnits="userSpaceOnUse">
<stop stop-color="#E1E6EA" stop-opacity="0.01"/>
<stop offset="1" stop-color="#D6DBE2" stop-opacity="0.678952"/>
</linearGradient>
<linearGradient id="paint112_linear_0_151" x1="223.611" y1="3.81767" x2="232.602" y2="26.0701" gradientUnits="userSpaceOnUse">
<stop stop-color="#E1E6EA" stop-opacity="0.01"/>
<stop offset="1" stop-color="#D6DBE2" stop-opacity="0.678952"/>
</linearGradient>
<linearGradient id="paint113_linear_0_151" x1="236.349" y1="35.3419" x2="245.339" y2="57.5943" gradientUnits="userSpaceOnUse">
<stop stop-color="#E1E6EA" stop-opacity="0.01"/>
<stop offset="1" stop-color="#D6DBE2" stop-opacity="0.678952"/>
</linearGradient>
<linearGradient id="paint114_linear_0_151" x1="248.71" y1="65.939" x2="257.701" y2="88.1914" gradientUnits="userSpaceOnUse">
<stop stop-color="#E1E6EA" stop-opacity="0.01"/>
<stop offset="1" stop-color="#D6DBE2" stop-opacity="0.678952"/>
</linearGradient>
<linearGradient id="paint115_linear_0_151" x1="260.697" y1="95.6089" x2="269.688" y2="117.861" gradientUnits="userSpaceOnUse">
<stop stop-color="#E1E6EA" stop-opacity="0.01"/>
<stop offset="1" stop-color="#D6DBE2" stop-opacity="0.678952"/>
</linearGradient>
<linearGradient id="paint116_linear_0_151" x1="274.184" y1="128.988" x2="283.174" y2="151.24" gradientUnits="userSpaceOnUse">
<stop stop-color="#E1E6EA" stop-opacity="0.01"/>
<stop offset="1" stop-color="#D6DBE2" stop-opacity="0.678952"/>
</linearGradient>
<linearGradient id="paint117_linear_0_151" x1="287.295" y1="161.439" x2="296.285" y2="183.691" gradientUnits="userSpaceOnUse">
<stop stop-color="#E1E6EA" stop-opacity="0.01"/>
<stop offset="1" stop-color="#D6DBE2" stop-opacity="0.678952"/>
</linearGradient>
<linearGradient id="paint118_linear_0_151" x1="232.809" y1="-21.4689" x2="241.799" y2="0.783493" gradientUnits="userSpaceOnUse">
<stop stop-color="#E1E6EA" stop-opacity="0.01"/>
<stop offset="1" stop-color="#D6DBE2" stop-opacity="0.678952"/>
</linearGradient>
<linearGradient id="paint119_linear_0_151" x1="245.546" y1="10.0553" x2="254.536" y2="32.3077" gradientUnits="userSpaceOnUse">
<stop stop-color="#E1E6EA" stop-opacity="0.01"/>
<stop offset="1" stop-color="#D6DBE2" stop-opacity="0.678952"/>
</linearGradient>
<linearGradient id="paint120_linear_0_151" x1="257.907" y1="40.6524" x2="266.898" y2="62.9048" gradientUnits="userSpaceOnUse">
<stop stop-color="#E1E6EA" stop-opacity="0.01"/>
<stop offset="1" stop-color="#D6DBE2" stop-opacity="0.678952"/>
</linearGradient>
<linearGradient id="paint121_linear_0_151" x1="269.895" y1="70.3223" x2="278.885" y2="92.5747" gradientUnits="userSpaceOnUse">
<stop stop-color="#E1E6EA" stop-opacity="0.01"/>
<stop offset="1" stop-color="#D6DBE2" stop-opacity="0.678952"/>
</linearGradient>
<linearGradient id="paint122_linear_0_151" x1="283.381" y1="103.701" x2="292.371" y2="125.953" gradientUnits="userSpaceOnUse">
<stop stop-color="#E1E6EA" stop-opacity="0.01"/>
<stop offset="1" stop-color="#D6DBE2" stop-opacity="0.678952"/>
</linearGradient>
<linearGradient id="paint123_linear_0_151" x1="296.492" y1="136.152" x2="305.483" y2="158.405" gradientUnits="userSpaceOnUse">
<stop stop-color="#E1E6EA" stop-opacity="0.01"/>
<stop offset="1" stop-color="#D6DBE2" stop-opacity="0.678952"/>
</linearGradient>
<linearGradient id="paint124_linear_0_151" x1="266.337" y1="8.1263" x2="275.327" y2="30.3787" gradientUnits="userSpaceOnUse">
<stop stop-color="#E1E6EA" stop-opacity="0.01"/>
<stop offset="1" stop-color="#D6DBE2" stop-opacity="0.678952"/>
</linearGradient>
<linearGradient id="paint125_linear_0_151" x1="278.324" y1="37.7962" x2="287.315" y2="60.0486" gradientUnits="userSpaceOnUse">
<stop stop-color="#E1E6EA" stop-opacity="0.01"/>
<stop offset="1" stop-color="#D6DBE2" stop-opacity="0.678952"/>
</linearGradient>
<linearGradient id="paint126_linear_0_151" x1="291.81" y1="71.1748" x2="300.8" y2="93.4272" gradientUnits="userSpaceOnUse">
<stop stop-color="#E1E6EA" stop-opacity="0.01"/>
<stop offset="1" stop-color="#D6DBE2" stop-opacity="0.678952"/>
</linearGradient>
<linearGradient id="paint127_linear_0_151" x1="304.921" y1="103.626" x2="313.911" y2="125.879" gradientUnits="userSpaceOnUse">
<stop stop-color="#E1E6EA" stop-opacity="0.01"/>
<stop offset="1" stop-color="#D6DBE2" stop-opacity="0.678952"/>
</linearGradient>
<linearGradient id="paint128_linear_0_151" x1="277.781" y1="-11.5972" x2="286.772" y2="10.6552" gradientUnits="userSpaceOnUse">
<stop stop-color="#E1E6EA" stop-opacity="0.01"/>
<stop offset="1" stop-color="#D6DBE2" stop-opacity="0.678952"/>
</linearGradient>
<linearGradient id="paint129_linear_0_151" x1="289.769" y1="18.0727" x2="298.759" y2="40.3251" gradientUnits="userSpaceOnUse">
<stop stop-color="#E1E6EA" stop-opacity="0.01"/>
<stop offset="1" stop-color="#D6DBE2" stop-opacity="0.678952"/>
</linearGradient>
<linearGradient id="paint130_linear_0_151" x1="303.255" y1="51.4513" x2="312.245" y2="73.7037" gradientUnits="userSpaceOnUse">
<stop stop-color="#E1E6EA" stop-opacity="0.01"/>
<stop offset="1" stop-color="#D6DBE2" stop-opacity="0.678952"/>
</linearGradient>
<linearGradient id="paint131_linear_0_151" x1="316.366" y1="83.9027" x2="325.357" y2="106.155" gradientUnits="userSpaceOnUse">
<stop stop-color="#E1E6EA" stop-opacity="0.01"/>
<stop offset="1" stop-color="#D6DBE2" stop-opacity="0.678952"/>
</linearGradient>
<linearGradient id="paint132_linear_0_151" x1="297.468" y1="-10.9226" x2="306.458" y2="11.3298" gradientUnits="userSpaceOnUse">
<stop stop-color="#E1E6EA" stop-opacity="0.01"/>
<stop offset="1" stop-color="#D6DBE2" stop-opacity="0.678952"/>
</linearGradient>
<linearGradient id="paint133_linear_0_151" x1="309.83" y1="19.6744" x2="318.821" y2="41.9268" gradientUnits="userSpaceOnUse">
<stop stop-color="#E1E6EA" stop-opacity="0.01"/>
<stop offset="1" stop-color="#D6DBE2" stop-opacity="0.678952"/>
</linearGradient>
<linearGradient id="paint134_linear_0_151" x1="321.817" y1="49.3443" x2="330.808" y2="71.5967" gradientUnits="userSpaceOnUse">
<stop stop-color="#E1E6EA" stop-opacity="0.01"/>
<stop offset="1" stop-color="#D6DBE2" stop-opacity="0.678952"/>
</linearGradient>
<linearGradient id="paint135_linear_0_151" x1="335.303" y1="82.7229" x2="344.293" y2="104.975" gradientUnits="userSpaceOnUse">
<stop stop-color="#E1E6EA" stop-opacity="0.01"/>
<stop offset="1" stop-color="#D6DBE2" stop-opacity="0.678952"/>
</linearGradient>
<linearGradient id="paint136_linear_0_151" x1="348.414" y1="115.174" x2="357.405" y2="137.427" gradientUnits="userSpaceOnUse">
<stop stop-color="#E1E6EA" stop-opacity="0.01"/>
<stop offset="1" stop-color="#D6DBE2" stop-opacity="0.678952"/>
</linearGradient>
<linearGradient id="paint137_linear_0_151" x1="319.954" y1="-5.98677" x2="328.945" y2="16.2656" gradientUnits="userSpaceOnUse">
<stop stop-color="#E1E6EA" stop-opacity="0.01"/>
<stop offset="1" stop-color="#D6DBE2" stop-opacity="0.678952"/>
</linearGradient>
<linearGradient id="paint138_linear_0_151" x1="331.941" y1="23.6831" x2="340.932" y2="45.9355" gradientUnits="userSpaceOnUse">
<stop stop-color="#E1E6EA" stop-opacity="0.01"/>
<stop offset="1" stop-color="#D6DBE2" stop-opacity="0.678952"/>
</linearGradient>
<linearGradient id="paint139_linear_0_151" x1="345.428" y1="57.0617" x2="354.418" y2="79.3141" gradientUnits="userSpaceOnUse">
<stop stop-color="#E1E6EA" stop-opacity="0.01"/>
<stop offset="1" stop-color="#D6DBE2" stop-opacity="0.678952"/>
</linearGradient>
<linearGradient id="paint140_linear_0_151" x1="358.539" y1="89.5132" x2="367.53" y2="111.766" gradientUnits="userSpaceOnUse">
<stop stop-color="#E1E6EA" stop-opacity="0.01"/>
<stop offset="1" stop-color="#D6DBE2" stop-opacity="0.678952"/>
</linearGradient>
<linearGradient id="paint141_linear_0_151" x1="342.44" y1="-1.05091" x2="351.431" y2="21.2015" gradientUnits="userSpaceOnUse">
<stop stop-color="#E1E6EA" stop-opacity="0.01"/>
<stop offset="1" stop-color="#D6DBE2" stop-opacity="0.678952"/>
</linearGradient>
<linearGradient id="paint142_linear_0_151" x1="354.428" y1="28.619" x2="363.418" y2="50.8714" gradientUnits="userSpaceOnUse">
<stop stop-color="#E1E6EA" stop-opacity="0.01"/>
<stop offset="1" stop-color="#D6DBE2" stop-opacity="0.678952"/>
</linearGradient>
<linearGradient id="paint143_linear_0_151" x1="367.914" y1="61.9976" x2="376.905" y2="84.25" gradientUnits="userSpaceOnUse">
<stop stop-color="#E1E6EA" stop-opacity="0.01"/>
<stop offset="1" stop-color="#D6DBE2" stop-opacity="0.678952"/>
</linearGradient>
<linearGradient id="paint144_linear_0_151" x1="365.123" y1="7.04111" x2="374.114" y2="29.2935" gradientUnits="userSpaceOnUse">
<stop stop-color="#E1E6EA" stop-opacity="0.01"/>
<stop offset="1" stop-color="#D6DBE2" stop-opacity="0.678952"/>
</linearGradient>
<linearGradient id="paint145_linear_0_151" x1="375.07" y1="-16.3911" x2="384.061" y2="5.8613" gradientUnits="userSpaceOnUse">
<stop stop-color="#E1E6EA" stop-opacity="0.01"/>
<stop offset="1" stop-color="#D6DBE2" stop-opacity="0.678952"/>
</linearGradient>
<linearGradient id="paint146_linear_0_151" x1="-0.974609" y1="227.449" x2="8.01595" y2="249.701" gradientUnits="userSpaceOnUse">
<stop stop-color="#E1E6EA" stop-opacity="0.01"/>
<stop offset="1" stop-color="#D6DBE2" stop-opacity="0.678952"/>
</linearGradient>
<linearGradient id="paint147_linear_0_151" x1="-3.39062" y1="173.42" x2="5.59993" y2="195.672" gradientUnits="userSpaceOnUse">
<stop stop-color="#E1E6EA" stop-opacity="0.01"/>
<stop offset="1" stop-color="#D6DBE2" stop-opacity="0.678952"/>
</linearGradient>
<linearGradient id="paint148_linear_0_151" x1="9.7207" y1="205.871" x2="18.7113" y2="228.124" gradientUnits="userSpaceOnUse">
<stop stop-color="#E1E6EA" stop-opacity="0.01"/>
<stop offset="1" stop-color="#D6DBE2" stop-opacity="0.678952"/>
</linearGradient>
<linearGradient id="paint149_linear_0_151" x1="-6.92969" y1="116.609" x2="2.06087" y2="138.861" gradientUnits="userSpaceOnUse">
<stop stop-color="#E1E6EA" stop-opacity="0.01"/>
<stop offset="1" stop-color="#D6DBE2" stop-opacity="0.678952"/>
</linearGradient>
<linearGradient id="paint150_linear_0_151" x1="5.05762" y1="146.279" x2="14.0482" y2="168.531" gradientUnits="userSpaceOnUse">
<stop stop-color="#E1E6EA" stop-opacity="0.01"/>
<stop offset="1" stop-color="#D6DBE2" stop-opacity="0.678952"/>
</linearGradient>
<linearGradient id="paint151_linear_0_151" x1="18.543" y1="179.657" x2="27.5335" y2="201.91" gradientUnits="userSpaceOnUse">
<stop stop-color="#E1E6EA" stop-opacity="0.01"/>
<stop offset="1" stop-color="#D6DBE2" stop-opacity="0.678952"/>
</linearGradient>
<linearGradient id="paint152_linear_0_151" x1="31.6543" y1="212.109" x2="40.6449" y2="234.361" gradientUnits="userSpaceOnUse">
<stop stop-color="#E1E6EA" stop-opacity="0.01"/>
<stop offset="1" stop-color="#D6DBE2" stop-opacity="0.678952"/>
</linearGradient>
<linearGradient id="paint153_linear_0_151" x1="-8.41895" y1="62.205" x2="0.571613" y2="84.4574" gradientUnits="userSpaceOnUse">
<stop stop-color="#E1E6EA" stop-opacity="0.01"/>
<stop offset="1" stop-color="#D6DBE2" stop-opacity="0.678952"/>
</linearGradient>
<linearGradient id="paint154_linear_0_151" x1="3.94336" y1="92.802" x2="12.9339" y2="115.054" gradientUnits="userSpaceOnUse">
<stop stop-color="#E1E6EA" stop-opacity="0.01"/>
<stop offset="1" stop-color="#D6DBE2" stop-opacity="0.678952"/>
</linearGradient>
<linearGradient id="paint155_linear_0_151" x1="15.9307" y1="122.472" x2="24.9212" y2="144.724" gradientUnits="userSpaceOnUse">
<stop stop-color="#E1E6EA" stop-opacity="0.01"/>
<stop offset="1" stop-color="#D6DBE2" stop-opacity="0.678952"/>
</linearGradient>
<linearGradient id="paint156_linear_0_151" x1="29.417" y1="155.851" x2="38.4076" y2="178.103" gradientUnits="userSpaceOnUse">
<stop stop-color="#E1E6EA" stop-opacity="0.01"/>
<stop offset="1" stop-color="#D6DBE2" stop-opacity="0.678952"/>
</linearGradient>
<linearGradient id="paint157_linear_0_151" x1="42.5283" y1="188.302" x2="51.5189" y2="210.554" gradientUnits="userSpaceOnUse">
<stop stop-color="#E1E6EA" stop-opacity="0.01"/>
<stop offset="1" stop-color="#D6DBE2" stop-opacity="0.678952"/>
</linearGradient>
<linearGradient id="paint158_linear_0_151" x1="171.48" y1="-17.3791" x2="171.48" y2="23.4118" gradientUnits="userSpaceOnUse">
<stop stop-color="#D6D9E4"/>
<stop offset="1" stop-color="#D0D5E0" stop-opacity="0.01"/>
</linearGradient>
<linearGradient id="paint159_linear_0_151" x1="102.964" y1="-18.8364" x2="102.964" y2="53.5882" gradientUnits="userSpaceOnUse">
<stop stop-color="#D6D9E4"/>
<stop offset="1" stop-color="#D0D5E0" stop-opacity="0.01"/>
</linearGradient>
<linearGradient id="paint160_linear_0_151" x1="299.354" y1="6.16436" x2="299.354" y2="84" gradientUnits="userSpaceOnUse">
<stop stop-color="#D6D9E4"/>
<stop offset="1" stop-color="#D0D5E0" stop-opacity="0.01"/>
</linearGradient>
<clipPath id="clip0_0_151">
<rect width="375" height="667" fill="white"/>
</clipPath>
</defs>
</svg>
