<svg width="169" height="152" xmlns="http://www.w3.org/2000/svg">
<path d="M70.535 149.817C28.6103 143.872 -5.46072 106.754 0.729204 65.4989C6.00991 30.3146 38.9525 2.93362 78.457 0.347968C81.3175 0.160271 84.211 0.10217 87.1313 0.181521C109.169 0.777618 128.75 9.03181 143.232 21.5224C157.646 33.953 167.01 50.5795 168.716 68.0227C173.256 114.432 122.68 157.212 70.535 149.817Z" fill="#F4F7FA"/>
<path d="M31.1893 147.685C21.3851 146.505 8.95447 143.406 3.96197 134.667C2.7742 132.588 1.58251 128.549 4.58021 127.028C7.32037 125.638 10.864 127.107 12.9007 128.916C14.3981 130.246 15.5667 133.214 17.2492 134.153C19.7118 135.527 21.0375 131.778 20.9858 130.231C20.8699 126.772 16.3256 125.355 13.3054 124.604C8.29236 123.357 2.45558 122.289 2.76968 116.998C3.08378 111.708 8.59191 108.535 12.8293 110.85C16.3205 112.757 15.829 116.827 18.2146 119.269C20.3339 121.438 21.0714 117.917 20.9299 116.191C20.6225 112.441 17.1013 109.728 14.5105 107.215C11.5812 104.374 8.34493 98.6581 11.4673 94.9014C13.264 92.7397 17.8285 92.2333 20.5262 92.5981C33.7316 94.3835 24.9751 110.386 27.3761 112.171C29.7771 113.957 32.0487 110.831 32.0428 106.079C32.0368 101.327 32.8136 97.822 38.1099 99.3429C43.4061 100.864 44.4144 113.277 38.3668 118.047C32.3193 122.817 38.7464 128.022 40.3699 124.603C41.542 122.135 42.5724 115.67 45.9599 114.961C51.6043 113.782 51.5206 124.574 49.8962 127.086C47.619 130.607 42.4701 131.372 39.5947 134.41C38.7593 135.292 36.8733 137.478 37.606 138.768C38.6277 140.567 41.4785 138.642 42.5258 137.809C44.8804 135.934 48.1394 129.564 51.4565 133.794C55.5522 139.018 48.7024 146.762 31.1893 147.685Z" fill="#C3EAD8"/>
<g opacity="0.8">
<path d="M29.777 146.906C30.0073 146.906 30.1961 146.66 30.2004 146.443C30.2042 146.256 30.477 127.4 21.7005 105.018C21.6197 104.812 21.376 104.688 21.1567 104.764C20.937 104.839 20.8243 105.058 20.905 105.264C29.6275 127.507 29.357 146.247 29.3533 146.433C29.3489 146.652 29.5349 146.906 29.7688 146.906C29.7716 146.906 29.7744 146.906 29.777 146.906Z" fill="white"/>
</g>
<path d="M23.3883 146.134C23.7169 144.205 27.6574 143.654 29.2454 143.373C30.1663 143.211 31.477 143.043 31.9501 142.152C32.4471 141.216 31.6912 140.493 30.7225 140.327C28.9882 140.031 27.1221 141.062 25.5103 141.532C23.7789 142.036 21.9826 142.274 20.2655 141.577C18.8963 141.022 17.4945 139.703 17.1965 138.315C16.372 134.473 20.4829 134.693 23.1618 135.233C24.4617 135.495 27.0177 135.692 27.2469 133.972C27.4908 132.142 25.0039 131.22 23.4678 131.165C21.4602 131.093 19.4869 131.507 17.4953 131.642C15.6996 131.764 13.5736 131.581 13.0755 129.646C12.6908 128.151 13.59 126.433 14.8878 125.546C17.8885 123.496 21.8422 126.992 25.0453 126.985C26.1777 126.982 28.0468 126.204 28.3603 125.066C28.6782 123.906 27.069 123.124 26.1869 122.701C23.572 121.447 11.5617 119.842 15.8639 114.986C16.9467 113.764 19.0389 112.736 20.7275 112.693C23.9131 112.611 27.4928 114.636 29.9471 116.383C33.8077 119.13 37.1851 122.911 39.3781 126.962C44.2249 135.916 41.8771 141.919 41.8771 141.919C40.4718 144.089 38.2974 146.345 35.9025 147.568C33.0872 149.005 28.7272 149.636 25.6652 148.519C24.6748 148.157 23.1846 147.329 23.3883 146.134Z" fill="#00CF7F"/>
<path opacity="0.7" d="M154.483 92.7767L150.414 93.0337C149.947 91.3336 149.334 89.6912 148.573 88.1255L151.948 86.0042C152.87 85.4254 153.106 84.2541 152.477 83.3877L148.54 77.9633C147.91 77.0949 146.65 76.8587 145.726 77.4362L142.305 79.5741C141.006 78.3276 139.595 77.1844 138.085 76.1605L139.889 72.6922C140.375 71.757 139.949 70.6212 138.938 70.1551L132.599 67.2342C131.583 66.7662 130.363 67.1459 129.874 68.0829L128.057 71.5623C126.281 71.0783 124.442 70.7391 122.561 70.5433L122.245 66.6413C122.16 65.5938 121.175 64.7952 120.044 64.8576L112.959 65.2489C111.824 65.3116 110.972 66.2142 111.057 67.2648L111.374 71.1783C109.529 71.5867 107.746 72.1339 106.045 72.8195L103.656 69.5569C103.011 68.677 101.722 68.4353 100.775 69.0174L94.8452 72.6641C93.8951 73.2483 93.6494 74.4368 94.297 75.3179L96.6948 78.5812C95.3329 79.7862 94.0888 81.1006 92.9738 82.5072L89.1371 80.7717C88.0983 80.3018 86.8494 80.6906 86.348 81.6405L83.209 87.5876C82.7063 88.5396 83.1437 89.6914 84.1854 90.1595L87.9939 91.8711C87.4742 93.5426 87.1182 95.2734 86.9213 97.0444L82.7043 97.3108C81.55 97.3837 80.6832 98.3019 80.7691 99.3617L81.3061 105.989C81.392 107.048 82.3978 107.846 83.5519 107.77L87.7343 107.494C88.206 109.232 88.833 110.908 89.6113 112.506L86.1705 114.656C85.2152 115.253 84.968 116.449 85.6189 117.327L89.6842 122.809C90.3336 123.685 91.6321 123.909 92.5844 123.311L95.9982 121.165C97.338 122.436 98.7966 123.593 100.354 124.627L98.5699 128.045C98.0711 129 98.5059 130.145 99.5403 130.601L105.997 133.448C107.027 133.903 108.264 133.498 108.76 132.544L110.521 129.159C112.343 129.631 114.227 129.95 116.15 130.12L116.454 133.862C116.539 134.913 117.528 135.697 118.661 135.613L125.736 135.09C126.865 135.007 127.711 134.09 127.626 133.042L127.323 129.311C129.185 128.868 130.979 128.286 132.684 127.563L134.943 130.636C135.578 131.501 136.847 131.72 137.776 131.126L143.578 127.422C144.505 126.831 144.743 125.652 144.111 124.789L141.845 121.697C143.187 120.471 144.411 119.14 145.502 117.718L149.122 119.345C150.129 119.798 151.338 119.402 151.822 118.462L154.843 112.588C155.326 111.65 154.903 110.521 153.898 110.067L150.271 108.426C150.765 106.77 151.101 105.057 151.279 103.305L155.315 103.039C156.425 102.966 157.257 102.065 157.173 101.026L156.646 94.5304C156.562 93.4917 155.594 92.7066 154.483 92.7767ZM117.806 81.1049C129.209 80.4267 139.096 88.4215 139.95 98.9582C140.803 109.495 132.309 118.676 120.915 119.47C109.452 120.268 99.4084 112.284 98.5451 101.631C97.6819 90.979 106.333 81.7872 117.806 81.1049Z" fill="#D8DEE8"/>
<path opacity="0.7" d="M141.624 35.148L139.387 35.2893C139.131 34.3546 138.793 33.4517 138.375 32.5909L140.231 31.4247C140.737 31.1065 140.867 30.4626 140.521 29.9862L138.357 27.004C138.01 26.5266 137.318 26.3968 136.81 26.7143L134.929 27.8896C134.215 27.2043 133.439 26.5758 132.609 26.0129L133.601 24.1062C133.868 23.592 133.634 22.9676 133.078 22.7113L129.593 21.1055C129.035 20.8483 128.364 21.057 128.095 21.5721L127.096 23.4851C126.12 23.219 125.109 23.0325 124.075 22.9249L123.901 20.7796C123.854 20.2037 123.313 19.7647 122.691 19.799L118.796 20.0141C118.171 20.0486 117.703 20.5448 117.75 21.1224L117.924 23.2739C116.91 23.4985 115.93 23.7993 114.995 24.1762L113.681 22.3824C113.327 21.8987 112.618 21.7659 112.097 22.0858L108.837 24.0907C108.315 24.4119 108.18 25.0653 108.536 25.5497L109.854 27.3438C109.105 28.0062 108.421 28.7289 107.808 29.5022L105.699 28.548C105.128 28.2897 104.441 28.5034 104.166 29.0256L102.44 32.2952C102.164 32.8186 102.404 33.4518 102.977 33.7091L105.07 34.6502C104.785 35.569 104.589 36.5206 104.481 37.4943L102.162 37.6407C101.528 37.6808 101.051 38.1856 101.098 38.7682L101.394 42.4116C101.441 42.9942 101.994 43.4325 102.628 43.3907L104.928 43.2391C105.187 44.1946 105.532 45.1163 105.96 45.9946L104.068 47.1768C103.543 47.5051 103.407 48.1625 103.765 48.6449L106 51.6589C106.357 52.1403 107.071 52.2636 107.594 51.9346L109.471 50.7552C110.208 51.4536 111.01 52.09 111.866 52.6585L110.885 54.5374C110.611 55.0625 110.85 55.6918 111.418 55.9425L114.968 57.5079C115.534 57.7578 116.215 57.5352 116.487 57.0111L117.455 55.1497C118.457 55.4094 119.492 55.5846 120.55 55.678L120.717 57.7356C120.764 58.3132 121.307 58.7441 121.93 58.6981L125.82 58.4107C126.441 58.3649 126.906 57.8608 126.859 57.285L126.693 55.2335C127.716 54.9902 128.702 54.67 129.64 54.2723L130.882 55.9621C131.231 56.4374 131.928 56.5579 132.439 56.2316L135.629 54.1949C136.138 53.8698 136.269 53.2219 135.922 52.7475L134.677 51.0474C135.414 50.3736 136.087 49.6421 136.687 48.8599L138.677 49.7544C139.231 50.0033 139.895 49.7859 140.161 49.269L141.822 46.0399C142.088 45.5241 141.855 44.9036 141.303 44.6537L139.309 43.7516C139.58 42.8409 139.765 41.8994 139.863 40.9364L142.082 40.7902C142.692 40.7499 143.149 40.2544 143.103 39.6834L142.814 36.1123C142.767 35.5411 142.235 35.1095 141.624 35.148ZM121.46 28.7312C127.73 28.3584 133.165 32.7537 133.634 38.5465C134.104 44.3392 129.434 49.3869 123.169 49.8233C116.867 50.2622 111.346 45.8725 110.871 40.0161C110.397 34.1597 115.153 29.1064 121.46 28.7312Z" fill="#D8DEE8"/>
<path d="M145.327 143.283C146.55 144.209 146.619 144.867 146.58 145.187C146.516 145.704 146.1 145.904 145.105 146.879C143.759 148.198 143.965 148.375 143.279 148.852C141.766 149.905 139.626 149.835 139.497 149.477C139.406 149.226 140.374 149.021 141.475 147.826C142.492 146.724 142.836 145.632 142.928 145.311C143.095 144.729 143.138 144.225 143.146 143.876L145.327 143.283Z" fill="#00CF7F"/>
<path d="M141.231 140.463L143.64 144.393C144.22 144.633 144.774 144.512 145.289 143.811L144.349 139.034L141.231 140.463Z" fill="url(#paint0_linear_6490_1948)"/>
<path d="M138.312 90.0632C135.966 93.7717 132.161 100.929 131.391 110.608C130.631 120.161 133.204 127.442 134.282 130.157C136.302 135.244 139.815 140.586 141.855 143.132C143.231 142.593 144.041 141.748 145.418 141.209C145.211 140.508 144.573 138.193 144.171 136.813C143.86 135.745 143.286 133.768 143.168 133.345C142.18 129.807 142.96 127.152 142.688 122.776C142.371 117.673 141.122 118.266 141.31 115.202C141.591 110.627 144.359 109.559 147.537 102.937C149.713 98.4042 151.998 93.6435 149.897 91.0406C147.254 87.7644 139.21 89.8242 138.312 90.0632Z" fill="#00CF7F"/>
<path d="M155.289 146.878C156.023 147.314 156.466 148.353 156.132 149.007C155.803 149.649 154.966 149.446 152.932 150.032C150.753 150.659 150.322 151.292 148.716 151.291C148.067 151.29 146.891 151.186 146.792 150.777C146.723 150.49 147.223 150.204 148.867 149.169C151.201 147.701 151.177 147.66 151.698 147.435C153.007 146.869 154.321 146.301 155.289 146.878Z" fill="#00CF7F"/>
<path d="M151.805 143.765L152.699 147.59C152.824 147.761 154.097 148.171 154.989 147.59L154.66 143.765H151.805Z" fill="url(#paint1_linear_6490_1948)"/>
<path opacity="0.3" d="M149.898 91.0406C147.254 87.7644 139.21 89.8242 138.313 90.0632C137.348 91.5869 136.139 93.702 134.994 96.326C137.845 95.801 139.082 96.2776 139.659 96.9107C141.897 99.368 134.89 104.794 136.331 113.027C136.894 116.247 138.365 117.697 138.096 121.63C137.896 124.556 136.925 126.038 136.254 128.18C135.851 129.466 135.539 131.047 135.524 132.957C137.54 137.106 140.188 141.052 141.855 143.132C143.232 142.593 144.042 141.748 145.418 141.209C145.211 140.508 144.573 138.193 144.171 136.813C143.86 135.745 143.286 133.768 143.168 133.345C142.18 129.807 142.96 127.152 142.688 122.776C142.371 117.673 141.123 118.266 141.31 115.202C141.591 110.627 144.359 109.559 147.537 102.937C149.713 98.4043 151.998 93.6434 149.898 91.0406Z" fill="#C3EAD8"/>
<path d="M144.595 92.0732C144.368 100.607 144.712 110.496 146.211 121.396C147.432 130.27 149.208 138.276 151.163 145.3C151.434 145.443 152.383 145.903 153.598 145.688C154.458 145.535 155.034 145.118 155.29 144.906C155.076 143.471 154.86 141.3 155.037 138.676C155.341 134.166 156.475 133.248 156.962 128.58C157.389 124.488 156.939 121.144 156.721 119.594C156.05 114.822 155.139 114.724 155.121 111.866C155.093 107.465 157.242 105.889 158.423 101.697C159.211 98.8997 159.629 94.724 157.648 88.9979C153.297 90.0229 148.946 91.0482 144.595 92.0732Z" fill="#00CF7F"/>
<path d="M139.945 58.022C138.347 58.8622 136.128 60.2542 134.059 62.4725C129.288 67.5886 126.337 76.0072 129.404 78.7617C131.49 80.6356 136.438 80.068 138.142 77.844C139.396 76.2083 138.494 74.1992 138.061 71.3437C137.595 68.271 137.612 63.8149 139.945 58.022Z" fill="#C3EAD8"/>
<path d="M158.472 91.0564C156.705 69.2512 151.073 60.325 151.565 57.6754C150.856 57.1981 148.056 56.4395 141.711 57.2216C141.168 57.4081 139.721 57.955 138.287 59.1829C138.287 59.1829 137.953 59.4677 137.497 59.9678C141.954 60.756 146.495 63.1327 148.129 66.4998C150.961 72.9383 145.703 80.1344 148.129 85.8155C149.405 88.801 151.445 91.4472 153.881 93.9211C156.665 93.2708 158.574 92.3132 158.472 91.0564Z" fill="#00CF7F"/>
<path opacity="0.3" d="M157.647 88.9979C156.374 89.298 155.1 89.5982 153.826 89.8982C154.493 92.0471 155.132 95.2722 154.363 98.9336C153.301 103.989 150.556 105.099 150.153 109.658C149.789 113.759 151.857 114.596 152.847 120.067C153.862 125.673 152.326 128.31 152.005 132.999C151.785 136.208 152.142 140.406 154.227 145.516C154.742 145.325 155.102 145.061 155.289 144.906C155.076 143.471 154.86 141.3 155.037 138.676C155.341 134.166 156.475 133.248 156.962 128.58C157.389 124.488 156.939 121.144 156.721 119.594C156.05 114.822 155.139 114.724 155.121 111.866C155.093 107.465 157.242 105.889 158.423 101.697C159.211 98.8997 159.629 94.724 157.647 88.9979Z" fill="#00CF7F"/>
<path d="M138.287 59.183C138.287 59.183 136.598 60.6215 135.614 62.7348C134.131 65.9186 135.728 68.6519 136.207 73.8512C136.733 79.5547 135.989 89.0561 134.276 92.46C134.246 92.5193 134.172 92.6885 134.202 92.9031C134.665 96.1929 158.828 95.4474 158.472 91.0563C156.705 69.2512 151.073 60.325 151.565 57.6754C150.856 57.1981 148.056 56.4395 141.711 57.2216C141.168 57.4081 139.721 57.9551 138.287 59.183Z" fill="#00CF7F"/>
<path d="M145.468 51.7457C145.468 51.7457 147.029 56.3319 147.534 56.8837C148.039 57.4356 145.506 58.8781 143.564 58.2277C141.78 57.6305 143.565 55.0851 143.565 55.0851L145.468 51.7457Z" fill="#C3EAD8"/>
<path d="M140.626 50.6749C140.015 49.7714 140.1 48.2808 140.97 47.4002C141.719 46.6425 142.798 46.6078 143.444 46.5869C145.315 46.5263 147.592 47.4277 148.268 49.087C148.669 50.0703 147.456 51.9591 147.263 52.3004C147.043 52.6865 146.696 52.7983 146.36 53.0773C145.894 53.4643 145.163 54.0803 143.969 55.1127C143.912 54.7771 143.817 54.36 143.649 53.9028C143.584 53.7269 143.323 53.0389 142.888 52.452C142.016 51.2758 141.206 51.5315 140.626 50.6749Z" fill="#00CF7F"/>
<path d="M145.617 54.2931C145.617 54.2931 144.237 56.0735 141.823 55.7424C139.661 55.446 139.736 50.8594 141.207 49.9959C141.698 49.7079 142.637 49.6438 143.374 49.8986C143.809 50.049 143.945 50.2337 144.661 50.4666C145.322 50.6815 145.518 50.6258 145.708 50.8017C145.946 51.0218 146.09 51.5281 145.55 52.8298C145.998 52.4681 146.509 52.3547 146.848 52.5372C146.902 52.5664 147.043 52.6728 147.114 52.823C147.373 53.3671 146.808 53.9943 145.617 54.2931Z" fill="#C3EAD8"/>
<path d="M140.919 53.5377C140.919 53.5377 141.369 53.8026 142.183 53.8212C142.223 53.8221 142.265 53.8362 142.269 53.8556C142.281 53.929 141.733 54.2127 141.265 54.0504C140.932 53.9351 140.693 53.6134 140.745 53.5402C140.768 53.5092 140.844 53.5193 140.919 53.5377Z" fill="#00CF7F"/>
<path opacity="0.3" d="M151.659 71.8025C149.022 72.6694 145.523 75.1052 145.289 78.2264C144.928 83.0202 152.552 85.6505 151.536 89.0093C151.259 89.9251 150.384 90.7512 144.676 92.6801C142.366 93.4607 140.221 94.0972 138.273 94.6239C145.257 95.5878 158.738 94.3441 158.472 91.056C157.796 82.7087 156.553 76.2544 155.304 71.3114C154.038 71.2648 152.808 71.4245 151.659 71.8025Z" fill="#C3EAD8"/>
<path d="M143.357 81.6112C147.646 85.6885 153.769 86.9728 158.477 84.933C165.015 82.1003 166.026 74.0685 164.501 69.0419C161.956 60.65 150.865 55.7562 147.371 57.9918C144.844 59.6084 144.869 65.8635 147.88 68.9945C150.587 71.8088 154.744 71.0979 155.875 73.965C156.722 76.1125 155.086 78.2764 154.945 78.4566C153.125 80.7901 149.157 81.5818 145.406 79.9794C144.723 80.5233 144.04 81.0672 143.357 81.6112Z" fill="#C3EAD8"/>
<path d="M134.865 74.5839C135.215 73.5334 136.349 72.9951 137.242 72.8787C138.116 72.7647 139.556 72.9506 140.129 74.0203C140.665 75.0206 140.243 76.4203 139.011 77.1791C138.837 76.7761 138.527 76.2459 137.979 76.0851C136.972 75.7894 136.1 77.0179 135.356 76.697C134.763 76.4411 134.609 75.355 134.865 74.5839Z" fill="#C3EAD8"/>
<path d="M138.983 80.9523L142.284 81.4897C142.923 81.5938 143.472 81.0589 143.336 80.4648L142.135 75.2364C142.048 74.8582 141.702 74.5813 141.289 74.5606L137.337 74.3627C136.685 74.33 136.207 74.9289 136.426 75.5052L138.277 80.3943C138.388 80.6861 138.658 80.8994 138.983 80.9523Z" fill="white"/>
<path d="M144.744 80.5061C144.473 78.6856 143.654 78.2091 143.357 78.0737C142.86 77.8467 142.615 78.023 140.878 77.9972C139.327 77.9742 138.96 77.8252 138.763 78.0737C138.392 78.5443 139.155 79.7811 140.021 80.5061C141.234 81.5226 142.738 81.6097 143.357 81.6111L144.744 80.5061Z" fill="#C3EAD8"/>
<path d="M96.6307 7.36962L110.913 141.877C111.126 143.88 109.653 145.631 107.635 145.769L38.0457 151.227C33.8035 151.366 31.5144 149.227 31.284 147.107L15.8092 4.7305C15.5768 2.59174 17.6961 0.698781 21.9815 0.780506L92.5188 3.56521C94.5683 3.63756 96.4162 5.3496 96.6307 7.36962Z" fill="#00CF7F"/>
<path d="M99.7945 7.1983L114.137 142.399C114.351 144.412 112.872 146.172 110.846 146.312L38.6993 151.264C36.4468 151.418 34.4094 149.802 34.178 147.671L18.6339 4.5402C18.4005 2.39002 20.0872 0.697128 22.3759 0.778119L95.6656 3.37383C97.7236 3.44679 99.5791 5.16778 99.7945 7.1983Z" fill="#1D191F"/>
<path d="M98.276 14.6583L111.578 139.969C111.778 141.85 110.394 143.492 108.497 143.618L40.6392 148.135C38.5446 148.274 36.6502 146.765 36.4348 144.781L22.088 12.5773C21.8708 10.5765 23.4372 8.99121 25.5629 9.05457L94.4162 11.1065C96.34 11.1639 98.0746 12.7622 98.276 14.6583Z" fill="#D8DEE8"/>
<path d="M61.7783 6.37066C61.8559 7.09393 61.3107 7.66103 60.5597 7.63735C59.808 7.61361 59.135 7.00695 59.0572 6.28238C58.9793 5.55771 59.5265 4.99055 60.2784 5.0157C61.0296 5.04079 61.7008 5.6474 61.7783 6.37066Z" fill="white"/>
<g opacity="0.3">
<path d="M55.0984 72.3651C47.9282 52.5267 60.4084 42.5324 53.3407 24.1575C49.4954 14.16 41.7978 6.71242 33.3296 1.16606L22.376 0.778123C20.0873 0.697076 18.4006 2.38996 18.6339 4.54014L34.178 147.671C34.4092 149.802 36.4468 151.418 38.6991 151.264L100.987 146.988C100.792 132.043 96.7369 121.407 92.2275 113.846C79.8358 93.0682 62.523 92.9074 55.0984 72.3651Z" fill="#F4F7FA"/>
</g>
<path d="M96.1402 24.7883C106.882 33.121 117.624 41.4537 128.366 49.7864C100.654 61.4555 103.879 97.1227 76.1667 108.792C65.4246 100.459 54.6825 92.1263 43.9404 83.7936C71.6527 72.1246 68.4278 36.4573 96.1402 24.7883Z" fill="#00CF7F"/>
<path d="M122.934 49.3599C99.4248 61.7644 100.311 93.0919 76.8019 105.496C67.6591 98.4043 58.5163 91.3121 49.3735 84.2201C72.8824 71.8156 71.9964 40.4881 95.5053 28.0836C104.648 35.1757 113.791 42.2678 122.934 49.3599Z" fill="white"/>
<path d="M54.248 80.5616C54.3688 80.6553 54.4749 80.7441 54.5844 80.8427C54.5938 80.8515 54.6028 80.8593 54.6123 80.8681C55.8629 81.9947 56.4495 83.4193 56.3049 84.7821C56.1803 85.9732 55.4909 87.1119 54.1842 87.9515C53.9936 88.074 53.7879 88.1884 53.5718 88.2973C52.7547 88.7091 51.817 88.9831 50.8231 89.1323C48.5289 87.3527 46.2347 85.573 43.9404 83.7934C46.8861 82.553 49.4822 81.0415 51.8031 79.3165C52.6387 79.5454 53.5241 80.0001 54.248 80.5616Z" fill="#C3EAD8"/>
<path d="M82.316 102.334C83.0699 102.919 83.5723 103.561 83.9927 104.342C81.6811 106.055 79.0968 107.558 76.1666 108.791C73.8191 106.97 71.4716 105.149 69.124 103.328C69.6684 102.83 70.3577 102.363 71.1746 101.952C71.3907 101.843 71.6117 101.74 71.8357 101.644C75.1808 100.207 79.2821 100.208 82.0176 102.115C82.0281 102.122 82.0385 102.13 82.0496 102.137C82.1393 102.199 82.2321 102.269 82.316 102.334Z" fill="#00CF7F"/>
<path d="M96.1401 24.7883C98.4343 26.5679 100.729 28.3476 103.023 30.1272C102.478 30.6252 101.789 31.0921 100.972 31.5038C100.756 31.6127 100.535 31.7154 100.311 31.8117C97 33.2333 92.9593 33.2557 90.2237 31.4063C90.0956 31.3207 89.9914 31.2464 89.8707 31.1526C89.1472 30.5914 88.5614 29.9046 88.2773 29.2651C90.5983 27.5401 93.1944 26.0286 96.1401 24.7883Z" fill="#C3EAD8"/>
<path d="M121.324 44.3232C123.672 46.1443 126.019 47.9652 128.367 49.7862C125.436 51.0201 122.852 52.5222 120.54 54.236C119.522 53.8998 118.693 53.5103 117.939 52.925C117.855 52.8599 117.766 52.7878 117.686 52.7184C117.676 52.7097 117.666 52.7017 117.657 52.6936C116.438 51.6408 115.812 50.3104 115.836 49.008C115.86 47.7 116.548 46.4268 117.973 45.5115C118.163 45.3891 118.364 45.271 118.58 45.162C119.397 44.7503 120.33 44.4726 121.324 44.3232Z" fill="#C3EAD8"/>
<path d="M91.77 56.3736C96.9141 60.3639 98.434 68.1571 95.4697 74.0165C92.5055 79.876 85.6476 81.1705 80.4574 77.1445C75.3133 73.154 73.7934 65.361 76.7576 59.5015C79.722 53.6419 86.5798 52.3474 91.77 56.3736Z" fill="#00CF7F"/>
<path d="M88.0003 63.3672C87.0948 63.5663 86.1581 64.1423 85.0758 65.3229C84.3132 64.7313 83.5506 64.1398 82.7879 63.5483C82.8178 63.4993 82.8476 63.4502 82.8775 63.4012C83.1768 62.9225 83.5124 62.4913 83.873 62.1307C84.0796 61.9235 84.3002 61.7288 84.5288 61.5562C84.7847 61.3634 84.7847 60.9458 84.535 60.7101C84.2206 60.4138 83.9061 60.1175 83.5917 59.8212C83.394 59.6363 83.1097 59.6307 82.9254 59.806C82.616 60.0975 82.3115 60.4248 82.0322 60.7459C81.653 61.1814 81.3038 61.6392 80.9728 62.1402C80.7062 61.9334 80.4396 61.7266 80.1731 61.5199C79.9397 61.3387 79.6335 61.3672 79.4777 61.6099C79.3207 61.8529 79.3942 62.1785 79.6294 62.3608C79.9015 62.5718 80.1737 62.783 80.4458 62.9941C79.7934 64.2556 79.5199 65.4362 79.6448 66.5041C79.7715 67.5796 80.2862 68.4684 81.1925 69.1712C82.0687 69.8512 82.9592 70.0895 83.8588 69.8869C84.7545 69.6853 85.6847 69.0416 86.6427 67.9628C87.4897 68.6236 88.3368 69.2845 89.1838 69.9453C88.8519 70.4869 88.4762 70.9847 88.0581 71.4381C87.7899 71.7287 87.5031 72 87.1996 72.2521C86.9396 72.4684 86.9356 72.907 87.1991 73.1507C87.6058 73.5268 88.0125 73.9028 88.4192 74.2789C88.6222 74.4665 88.9075 74.4606 89.092 74.273C89.3966 73.9626 89.6874 73.6265 89.9642 73.2664C90.3378 72.7809 90.6992 72.2316 91.0368 71.6465C91.0777 71.5746 91.1186 71.5028 91.1595 71.431C91.4495 71.656 91.7395 71.881 92.0295 72.1059C92.2648 72.2882 92.5674 72.2619 92.7021 72.0014C92.7035 71.9987 92.7049 71.996 92.7064 71.9933C92.841 71.7329 92.7652 71.4138 92.5309 71.2321C92.2369 71.0041 91.9429 70.776 91.6489 70.5479C92.0678 69.6103 92.2998 68.7137 92.3351 67.8762C92.3526 67.5136 92.3356 67.1534 92.2795 66.8082C92.0968 65.6741 91.5453 64.7632 90.6288 64.0521C89.7812 63.3946 88.9023 63.1703 88.0003 63.3672ZM87.3258 67.1946C87.69 66.8458 88.0523 66.6009 88.3689 66.5421C88.6845 66.4827 89.0005 66.5678 89.3084 66.8066C89.6475 67.0695 89.8439 67.3975 89.9084 67.7747C89.9725 68.1527 89.894 68.5553 89.66 69.0053C88.882 68.4016 88.1039 67.7981 87.3258 67.1946ZM83.4619 66.6847C83.1721 66.7504 82.8903 66.6774 82.6183 66.4666C82.3304 66.2434 82.1599 65.954 82.1058 65.5978C82.0519 65.2414 82.1377 64.8117 82.2978 64.4308C82.9981 64.974 83.6983 65.5171 84.3986 66.0603C84.0559 66.4258 83.7521 66.6182 83.4619 66.6847Z" fill="white"/>
<path opacity="0.2" d="M128.262 49.7052C128.297 49.7323 128.332 49.7594 128.367 49.7865C100.654 61.4556 103.879 97.1228 76.1671 108.792C65.6521 100.635 55.1371 92.4788 44.6221 84.3223C46.1518 84.1705 47.8031 84.0802 49.5843 84.1083C51.6409 84.1416 53.8701 84.3316 56.3053 84.7826C59.0097 85.2831 61.9682 86.1044 65.2463 87.4024C81.4421 93.8377 86.0963 88.4192 88.9033 79.2678C89.6743 76.8417 90.34 74.1712 91.1468 71.4562C91.5026 70.2623 91.8996 69.059 92.3418 67.8641C93.2099 65.5249 94.2543 63.2175 95.5153 61.0744C99.6401 53.7461 106.881 48.7867 115.836 49.0083C117.477 49.0295 119.15 49.2105 120.827 49.5513C121.264 49.6399 121.722 49.7072 122.205 49.7552C123.948 49.9318 125.974 49.8628 128.262 49.7052Z" fill="#C3EAD8"/>
<path d="M101.243 55.0388C102.204 55.3958 102.702 56.3492 102.349 57.1583L80.0861 108.42C79.7054 109.291 78.3709 109.918 77.3788 109.532L41.1109 95.4109C40.1398 95.0328 39.7374 93.7152 40.1371 92.8624L62.5868 42.4071C62.9563 41.6148 64.0279 41.2529 64.9691 41.6023L101.243 55.0388Z" fill="#C3EAD8"/>
<path d="M101.835 54.0237C102.804 54.3828 103.305 55.3439 102.948 56.1602L80.2728 108.075C79.8896 108.952 78.7585 109.352 77.7601 108.964L41.2653 94.7618C40.2882 94.3816 39.8185 93.3678 40.2205 92.5097L62.9118 41.3211C63.2843 40.5216 64.3638 40.1555 65.3116 40.507L101.835 54.0237Z" fill="#C3EAD8"/>
<g opacity="0.7">
<path d="M74.4434 89.543L70.6018 97.9681C70.4303 98.3441 69.9519 98.5457 69.5387 98.4158L67.2733 97.7038C66.8599 97.5738 66.6628 97.1598 66.8356 96.784L70.7049 88.3633C70.8751 87.9929 71.3497 87.7959 71.7596 87.9253L74.0057 88.6342C74.4154 88.7635 74.6124 89.1723 74.4434 89.543Z" fill="#F4F7FA"/>
<path d="M79.4986 78.4566L75.7273 86.7276C75.5589 87.0967 75.0864 87.2932 74.6773 87.164L72.4341 86.4555C72.0247 86.3262 71.8285 85.9184 71.998 85.5495L75.7965 77.2829C75.9636 76.9192 76.4324 76.7272 76.8384 76.856L79.0625 77.5614C79.4683 77.69 79.6645 78.0928 79.4986 78.4566Z" fill="#F4F7FA"/>
<path d="M84.4621 67.5709L80.7591 75.6919C80.5939 76.0543 80.1271 76.2458 79.722 76.1172L77.5007 75.4123C77.0953 75.2837 76.8998 74.8819 77.0663 74.5197L80.7958 66.4031C80.9599 66.046 81.4231 65.8588 81.825 65.9869L84.0277 66.6887C84.4295 66.8167 84.625 67.2137 84.4621 67.5709Z" fill="#F4F7FA"/>
<path d="M89.3359 56.8812L85.6995 64.8563C85.5373 65.2122 85.0762 65.3989 84.6749 65.2709L82.4751 64.5695C82.0736 64.4415 81.8788 64.0456 82.0423 63.69L85.7048 55.7191C85.866 55.3684 86.3236 55.186 86.7217 55.3134L88.9034 56.0117C89.3012 56.1391 89.4959 56.5302 89.3359 56.8812Z" fill="#F4F7FA"/>
</g>
<path d="M63.5935 90.1168L61.7817 94.1124C61.4521 94.8395 60.5019 95.1716 59.671 94.8499L55.1456 93.098C54.3172 92.7773 53.9121 91.9222 54.2448 91.1981L56.073 87.2189C56.4035 86.4994 57.3488 86.1712 58.1741 86.4888L62.6832 88.2242C63.5111 88.5429 63.921 89.3943 63.5935 90.1168Z" fill="#54C390"/>
<path d="M63.0312 90.2301L61.4741 93.6615C61.169 94.3338 60.2951 94.6392 59.5265 94.3418L55.6401 92.8378C54.8735 92.5411 54.5005 91.7544 54.808 91.0845L56.3775 87.6656C56.6833 86.9994 57.5534 86.6971 58.3175 86.9913L62.1915 88.4829C62.9577 88.7778 63.3346 89.5615 63.0312 90.2301ZM55.0008 91.159C54.7361 91.7359 55.0574 92.4133 55.7175 92.6687L59.6035 94.1723C60.2652 94.4284 61.0178 94.1655 61.2806 93.5866L62.838 90.1555C63.0994 89.5798 62.7748 88.9049 62.1151 88.6508L58.2407 87.159C57.5826 86.9056 56.8332 87.166 56.5699 87.7397L55.0008 91.159Z" fill="url(#paint2_linear_6490_1948)"/>
<path d="M56.1602 92.9393L58.7591 87.2596L56.1602 92.9393Z" fill="#F4F7FA"/>
<path d="M58.8552 87.2971L56.2566 92.9769L56.0635 92.9022L58.6627 87.2229L58.8552 87.2971Z" fill="url(#paint3_linear_6490_1948)"/>
<path d="M57.6211 93.5046L60.2155 87.8204L57.6211 93.5046Z" fill="#F4F7FA"/>
<path d="M60.3118 87.8575L57.7177 93.5419L57.5244 93.4671L60.1191 87.7833L60.3118 87.8575Z" fill="url(#paint4_linear_6490_1948)"/>
<path d="M59.083 94.0703L61.6729 88.3815L59.083 94.0703Z" fill="#F4F7FA"/>
<path d="M61.7694 88.4189L59.1798 94.108L58.9863 94.0331L61.5765 88.3447L61.7694 88.4189Z" fill="url(#paint5_linear_6490_1948)"/>
<path d="M61.8176 90.8411L61.0948 92.4316C60.9112 92.8358 60.3823 93.0204 59.9198 92.8416L56.5278 91.5306C56.0663 91.3522 55.8402 90.8763 56.0249 90.4732L56.752 88.8872C56.9364 88.4852 57.4639 88.3016 57.9246 88.4792L61.3109 89.7846C61.7727 89.9627 62.0007 90.438 61.8176 90.8411Z" fill="#FEC045"/>
<path d="M61.9138 90.8784L61.1912 92.4691C60.9858 92.921 60.398 93.1262 59.881 92.9264L56.4889 91.6151C55.973 91.4157 55.7216 90.8868 55.9283 90.4362L56.6555 88.8501C56.8615 88.4008 57.4479 88.1968 57.9629 88.3953L61.349 89.7005C61.8651 89.8995 62.1186 90.4278 61.9138 90.8784ZM56.1211 90.5106C55.9571 90.8683 56.1567 91.2881 56.5661 91.4464L59.958 92.7573C60.3683 92.9158 60.8349 92.753 60.9979 92.3944L61.7207 90.8039C61.8832 90.4462 61.6821 90.0268 61.2724 89.8689L57.8859 88.5634C57.4771 88.4058 57.0116 88.5677 56.8481 88.9244L56.1211 90.5106Z" fill="url(#paint6_linear_6490_1948)"/>
<path opacity="0.15" d="M78.4722 87.3222C77.15 91.8272 75.9788 94.5706 73.4695 97.2014C70.0235 100.814 65.73 102.461 63.0464 103.238L77.7601 108.964C78.7584 109.352 79.8895 108.952 80.2727 108.074L102.948 56.16C103.305 55.3437 102.804 54.3825 101.835 54.0234L95.988 51.8547C87.071 57.5453 83.7058 63.3502 82.3039 67.7018C80.6102 72.9596 81.6128 76.6214 78.4722 87.3222Z" fill="url(#paint7_linear_6490_1948)"/>
<g opacity="0.42">
<path d="M82.5944 89.6848L77.4736 101.305C77.3761 101.527 77.0894 101.628 76.8366 101.53L74.7547 100.724C74.5021 100.626 74.3757 100.365 74.4735 100.144L79.6134 88.5428C79.7097 88.3254 79.9937 88.2262 80.2445 88.3222L82.3122 89.1141C82.5633 89.2103 82.6904 89.467 82.5944 89.6848Z" fill="url(#paint8_linear_6490_1948)"/>
<path d="M92.4895 67.3946L85.6753 82.8529C85.5783 83.0732 85.2919 83.1746 85.039 83.0783L82.9569 82.285C82.7043 82.1888 82.5775 81.9302 82.6749 81.7102L89.5136 66.2765C89.6091 66.0611 89.8919 65.9618 90.1423 66.0558L92.2066 66.8311C92.4572 66.9253 92.5846 67.1789 92.4895 67.3946Z" fill="url(#paint9_linear_6490_1948)"/>
</g>
<path opacity="0.26" d="M71.3394 48.7536C73.85 49.6891 75.0061 52.4082 73.9278 54.8047C72.8597 57.1783 70.0006 58.3348 67.5357 57.4092C65.0743 56.485 63.9035 53.8209 64.926 51.4374C65.9585 49.0309 68.8324 47.8194 71.3394 48.7536Z" fill="url(#paint10_linear_6490_1948)"/>
<g opacity="0.53">
<path d="M61.9704 84.9644C62.1346 85.3382 61.9425 85.7717 61.539 85.9317C61.1338 86.0925 60.672 85.9153 60.5098 85.5372C60.3485 85.1608 60.5464 84.7297 60.9495 84.5733C61.3509 84.4177 61.8069 84.5923 61.9704 84.9644Z" fill="#F4F7FA"/>
<path d="M65.7816 83.9206C65.7545 83.9855 65.7006 84.0404 65.6266 84.0696C65.4781 84.1283 65.3048 84.062 65.2398 83.9218C64.2804 81.8499 61.7148 80.87 59.4481 81.7069C59.2947 81.7636 59.1219 81.6975 59.0626 81.5596C59.0033 81.4219 59.0796 81.2649 59.2326 81.2089C61.7923 80.2718 64.6864 81.3766 65.7766 83.7106C65.8093 83.7804 65.8088 83.8555 65.7816 83.9206Z" fill="#F4F7FA"/>
<path d="M64.7034 84.346C64.6754 84.4115 64.6207 84.4669 64.5458 84.4966C64.3955 84.556 64.2211 84.4893 64.1568 84.3478C63.4571 82.8097 61.5577 82.0837 59.8832 82.7125C59.7292 82.7703 59.5553 82.7038 59.4952 82.5641C59.435 82.4245 59.5113 82.2652 59.6649 82.208C61.6368 81.4737 63.8708 82.3274 64.7001 84.1339C64.7324 84.2045 64.7313 84.2803 64.7034 84.346Z" fill="#F4F7FA"/>
<path d="M63.6116 84.7772C63.5829 84.8434 63.5272 84.8994 63.4514 84.9294C63.2992 84.9895 63.1239 84.9224 63.0601 84.7796C62.6175 83.7888 61.3972 83.3218 60.3237 83.7318C60.1691 83.7909 59.9941 83.7239 59.9331 83.5823C59.8722 83.441 59.9484 83.2791 60.1026 83.2207C60.7714 82.9674 61.5002 82.9674 62.1587 83.2193C62.8174 83.4713 63.3324 83.9473 63.61 84.5632C63.6421 84.6343 63.6404 84.7109 63.6116 84.7772Z" fill="#F4F7FA"/>
</g>
<path d="M73.1028 80.0108C73.1028 89.2847 65.3586 96.5799 55.4607 96.2953C45.1599 95.9991 36.4966 87.6687 36.4966 77.6998C36.4966 67.7311 45.1599 60.4944 55.4607 61.4988C65.3586 62.4638 73.1028 70.7369 73.1028 80.0108Z" fill="url(#paint11_linear_6490_1948)"/>
<path d="M75.7771 79.2111C75.7771 88.485 68.033 95.7803 58.135 95.4956C47.8343 95.1994 39.1709 86.869 39.1709 76.9002C39.1709 66.9314 47.8342 59.6948 58.135 60.6991C68.033 61.6642 75.7771 69.9373 75.7771 79.2111Z" fill="url(#paint12_linear_6490_1948)"/>
<path d="M75.0006 79.1617C75.0006 88.0272 67.5908 94.9894 58.1353 94.7027C48.3129 94.4049 40.0659 86.4548 40.0659 76.9563C40.0659 67.4578 48.3129 60.5489 58.1353 61.4913C67.5908 62.3984 75.0006 70.2962 75.0006 79.1617Z" fill="url(#paint13_linear_6490_1948)"/>
<path d="M74.4441 79.1265C74.4441 87.6996 67.2743 94.4239 58.1353 94.1366C48.654 93.8385 40.7031 86.16 40.7031 76.9965C40.7031 67.833 48.654 61.1583 58.1353 62.0573C67.2742 62.9239 74.4441 70.5536 74.4441 79.1265Z" fill="#A19B01"/>
<path d="M58.0419 64.9742C58.5283 65.0175 58.9218 65.4275 58.9218 65.89V67.4684C59.8943 67.5701 60.8681 67.7284 61.8433 67.943C62.5623 68.1013 63.2765 68.2897 63.986 68.508C64.411 68.6389 64.7007 69.0408 64.6573 69.4553L64.4503 71.4346C64.3954 71.9597 63.841 72.2681 63.3192 72.0502C62.8519 71.855 62.3728 71.6879 61.8818 71.5487C61.0249 71.306 60.1214 71.1477 59.1705 71.0743L58.9219 71.0551V75.5756C61.4588 76.2402 63.322 77.1344 64.5261 78.259C65.7243 79.3782 66.3213 80.7731 66.3213 82.4477C66.3213 84.2586 65.6613 85.7087 64.3359 86.8023C63.0035 87.9017 61.1354 88.5201 58.7197 88.654V90.3961C58.7197 90.8588 58.3258 91.2192 57.839 91.2011L57.8235 91.2005C57.3358 91.1824 56.9397 90.7913 56.9397 90.327V88.6085L56.5477 88.5919C55.4152 88.5441 54.3305 88.4358 53.2941 88.2671C52.5265 88.1421 51.777 87.9807 51.0457 87.7828C50.6034 87.6632 50.2997 87.2687 50.3403 86.8448L50.5839 84.3005C50.6366 83.7504 51.2266 83.4304 51.7852 83.6367C52.4362 83.8771 53.0954 84.0797 53.7626 84.2445C54.8023 84.5012 55.8562 84.6659 56.9241 84.739L56.9398 79.7107C54.5046 79.1465 52.6814 78.3107 51.4835 77.2038C50.2801 76.0915 49.6763 74.6682 49.6763 72.9377C49.6763 71.1467 50.331 69.7643 51.6356 68.7941C52.9335 67.8287 54.7786 67.3485 57.1591 67.3498V65.7361C57.1589 65.2718 57.5546 64.9308 58.0419 64.9742ZM57.1589 71.0083C56.4063 71.0596 55.8194 71.2531 55.3993 71.5892C54.9786 71.9258 54.768 72.3783 54.768 72.9461C54.768 73.4841 54.9628 73.9337 55.3521 74.2947C55.7407 74.655 56.3435 74.9428 57.1589 75.1578V71.0083H57.1589ZM58.7196 80.1136V84.7248C59.5378 84.7263 60.1651 84.5434 60.6031 84.1766C61.0403 83.8104 61.2586 83.2931 61.2586 82.6244C61.2586 82.0146 61.0557 81.5089 60.6494 81.1067C60.2425 80.7039 59.5998 80.3729 58.7196 80.1136Z" fill="url(#paint14_linear_6490_1948)"/>
<path opacity="0.3" d="M55.1841 81.2263C55.7351 76.1302 60.7367 73.9729 60.084 69.2854C59.6816 66.3962 57.3432 63.9614 54.7344 62.0603C46.8218 62.8374 40.7031 68.9725 40.7031 76.9969C40.7031 86.1604 48.654 93.8389 58.1353 94.137C59.0559 94.1659 59.9549 94.1211 60.8292 94.0138C57.0638 90.5052 54.7107 85.6044 55.1841 81.2263Z" fill="url(#paint15_linear_6490_1948)"/>
<path d="M63.6651 43.0434C63.6651 49.2895 58.4492 54.2029 51.7828 54.0112C44.8451 53.8117 39.0103 48.201 39.0103 41.4869C39.0103 34.7728 44.8451 29.8988 51.7828 30.5753C58.4492 31.2253 63.6651 36.7973 63.6651 43.0434Z" fill="url(#paint16_linear_6490_1948)"/>
<path d="M65.4663 42.5048C65.4663 48.7509 60.2505 53.6644 53.5841 53.4727C46.6464 53.2732 40.8115 47.6625 40.8115 40.9484C40.8115 34.2343 46.6464 29.3603 53.5841 30.0368C60.2505 30.6868 65.4663 36.2588 65.4663 42.5048Z" fill="url(#paint17_linear_6490_1948)"/>
<path d="M64.943 42.4717C64.943 48.4428 59.9525 53.1319 53.5841 52.9389C46.9685 52.7383 41.4141 47.3837 41.4141 40.9864C41.4141 34.589 46.9685 29.9358 53.5841 30.5705C59.9525 31.1815 64.943 36.5007 64.943 42.4717Z" fill="#93D9B9"/>
<path d="M64.5683 42.4481C64.5683 48.2222 59.7393 52.7511 53.5841 52.5576C47.1983 52.3568 41.8433 47.1852 41.8433 41.0134C41.8433 34.8417 47.1983 30.3463 53.5841 30.9517C59.7393 31.5354 64.5683 36.6741 64.5683 42.4481Z" fill="#D7CE01"/>
<path d="M53.5214 32.916C53.8489 32.9452 54.114 33.2213 54.114 33.5328V34.5959C54.7689 34.6644 55.4248 34.771 56.0816 34.9155C56.566 35.0221 57.0469 35.1489 57.5247 35.296C57.811 35.3842 58.0061 35.6548 57.9769 35.934L57.8374 37.2671C57.8004 37.6208 57.4271 37.8285 57.0755 37.6817C56.7608 37.5503 56.4382 37.4377 56.1074 37.344C55.5303 37.1805 54.9218 37.0739 54.2814 37.0244L54.1139 37.0116V40.0561C55.8226 40.5038 57.0775 41.106 57.8884 41.8634C58.6954 42.6173 59.0975 43.5567 59.0975 44.6846C59.0975 45.9042 58.653 46.8809 57.7603 47.6175C56.8629 48.358 55.6047 48.7745 53.9777 48.8646V50.038C53.9777 50.3496 53.7125 50.5923 53.3846 50.5802L53.3741 50.5798C53.0456 50.5676 52.7788 50.3041 52.7788 49.9914V48.8339L52.5148 48.8228C51.752 48.7906 51.0214 48.7177 50.3234 48.604C49.8064 48.5198 49.3016 48.4111 48.809 48.2778C48.5111 48.1972 48.3066 47.9315 48.334 47.6461L48.498 45.9324C48.5334 45.562 48.9308 45.3464 49.307 45.4854C49.7455 45.6474 50.1895 45.7838 50.6389 45.8947C51.3391 46.0677 52.049 46.1786 52.7682 46.2279L52.7788 42.8412C51.1386 42.4612 49.9107 41.8983 49.1039 41.1527C48.2934 40.4036 47.8867 39.445 47.8867 38.2794C47.8867 37.0732 48.3277 36.1421 49.2064 35.4886C50.0805 34.8384 51.3233 34.515 52.9265 34.5158V33.429C52.9267 33.1164 53.1931 32.8868 53.5214 32.916ZM52.9267 36.98C52.4198 37.0146 52.0245 37.1449 51.7415 37.3712C51.4582 37.598 51.3163 37.9027 51.3163 38.2851C51.3163 38.6474 51.4475 38.9503 51.7097 39.1934C51.9715 39.4361 52.3775 39.6299 52.9267 39.7747V36.98ZM53.9778 43.1126V46.2183C54.5289 46.2193 54.9514 46.0961 55.2464 45.849C55.5408 45.6024 55.6879 45.254 55.6879 44.8036C55.6879 44.3929 55.5512 44.0523 55.2776 43.7815C55.0035 43.5101 54.5707 43.2872 53.9778 43.1126Z" fill="url(#paint18_linear_6490_1948)"/>
<path opacity="0.3" d="M51.5964 43.862C51.9675 40.4297 55.3361 38.9767 54.8965 35.8196C54.6256 33.8737 53.0506 32.2338 51.2935 30.9534C45.9642 31.4768 41.8433 35.6089 41.8433 41.0134C41.8433 47.1852 47.1983 52.3568 53.5841 52.5576C54.204 52.5771 54.8096 52.5469 55.3984 52.4746C52.8624 50.1115 51.2775 46.8107 51.5964 43.862Z" fill="url(#paint19_linear_6490_1948)"/>
<path d="M102.113 89.8151L106.088 133.282C106.191 134.404 105.828 135.457 105.064 136.211C104.411 136.86 103.535 137.299 102.511 137.38L43.9454 141.998C41.4642 142.194 39.3386 140.542 39.1623 138.327L35.4825 92.0825C35.3092 89.9059 37.153 88.0115 39.6201 87.9364L97.8217 86.1639C100.03 86.0966 101.925 87.7682 102.113 89.8151Z" fill="#1D191F"/>
<path opacity="0.2" d="M105.129 136.211C104.476 136.86 103.575 137.299 102.551 137.38L43.965 141.998C41.4837 142.194 39.3386 140.542 39.1623 138.327L35.4825 92.0827C35.3092 89.9061 37.153 88.0117 39.6201 87.9366L40.2977 87.916C40.5434 89.1096 40.873 90.4498 41.1879 91.7357C41.2317 91.9144 41.2764 92.1076 41.3194 92.2788C41.6847 93.7631 41.9979 94.9839 42.0535 95.141C43.8799 100.262 46.4617 106.146 51.9164 109.008C60.2516 113.386 70.805 112.6 79.5704 114.996C85.3429 116.575 91.269 118.709 95.8616 122.28C99.217 124.889 102.049 128.106 103.705 131.87C104.305 133.233 104.775 134.703 105.129 136.211Z" fill="#1D191F"/>
<g opacity="0.7">
<path d="M97.8262 135.488C97.8254 135.488 97.8243 135.488 97.8235 135.488L95.8059 135.605C95.5766 135.622 95.3737 135.444 95.3545 135.23C95.3353 135.016 95.5044 134.856 95.7337 134.839L97.7472 134.714C97.748 134.714 97.7488 134.714 97.7494 134.714C98.0946 134.714 98.4303 134.587 98.7526 134.487C98.9689 134.419 99.2047 134.511 99.277 134.714C99.3495 134.918 99.2352 135.165 99.0184 135.233C98.6337 135.352 98.2372 135.488 97.8262 135.488ZM92.6467 135.809L89.4713 136.053C89.2392 136.07 89.0355 135.91 89.0164 135.694C88.9973 135.479 89.1701 135.29 89.4022 135.272L92.5774 135.031C92.8081 135.014 93.0104 135.174 93.0296 135.388C93.0487 135.603 92.8773 135.792 92.6467 135.809ZM86.2769 136.297L83.0636 136.544C82.8287 136.562 82.6228 136.4 82.604 136.184C82.585 135.967 82.7602 135.777 82.995 135.759L86.2082 135.515C86.4415 135.497 86.6461 135.658 86.6651 135.874C86.6841 136.09 86.5103 136.28 86.2769 136.297ZM79.831 136.791L76.5793 137.041C76.3416 137.059 76.1335 136.897 76.1148 136.679C76.096 136.461 76.2735 136.269 76.5112 136.251L79.7627 136.004C79.9989 135.986 80.2055 136.148 80.2244 136.365C80.2433 136.582 80.0672 136.773 79.831 136.791ZM73.3077 137.291L70.0164 137.544C69.7758 137.562 69.5656 137.399 69.5469 137.18C69.5283 136.96 69.7083 136.767 69.9489 136.749L73.2399 136.499C73.4789 136.481 73.6878 136.644 73.7065 136.862C73.7253 137.081 73.5468 137.273 73.3077 137.291ZM66.7052 137.797L63.3739 138.053C63.1304 138.071 62.9179 137.908 62.8994 137.687C62.8809 137.466 63.0634 137.272 63.3069 137.253L66.6379 137.001C66.8798 136.982 67.091 137.146 67.1096 137.366C67.1281 137.586 66.9471 137.779 66.7052 137.797ZM60.0223 138.31L56.6502 138.568C56.4037 138.587 56.1889 138.422 56.1705 138.2C56.1522 137.978 56.3372 137.782 56.5837 137.764L59.9555 137.508C60.2003 137.489 60.4138 137.654 60.4322 137.875C60.4507 138.096 60.2672 138.291 60.0223 138.31ZM53.2575 138.828L49.8438 139.09C49.5943 139.109 49.3772 138.943 49.3589 138.719C49.3408 138.496 49.5284 138.299 49.7779 138.28L53.1912 138.021C53.4391 138.002 53.6548 138.168 53.6731 138.39C53.6914 138.613 53.5053 138.809 53.2575 138.828ZM46.4096 139.259C46.3795 139.261 46.3486 139.261 46.3173 139.258C45.0712 139.127 43.8963 138.616 43.0104 137.818C42.8334 137.659 42.8369 137.4 43.0179 137.241C43.1992 137.081 43.4889 137.081 43.6654 137.24C44.4078 137.909 45.3918 138.338 46.4355 138.448C46.6849 138.475 46.8606 138.677 46.828 138.9C46.7996 139.096 46.6211 139.243 46.4096 139.259ZM101.354 133.454C101.265 133.46 101.173 133.44 101.093 133.39C100.903 133.272 100.85 133.032 100.975 132.854C101.506 132.1 101.744 131.223 101.661 130.318C101.642 130.106 101.81 129.92 102.036 129.904C102.263 129.888 102.462 130.047 102.481 130.259C102.579 131.338 102.297 132.383 101.664 133.283C101.592 133.385 101.476 133.445 101.354 133.454ZM41.9164 135.191C41.6709 135.208 41.4468 135.059 41.4203 134.84C41.413 134.78 41.3999 134.728 41.395 134.667L41.1617 131.75C41.1437 131.526 41.295 131.327 41.5478 131.31C41.8003 131.293 41.9805 131.458 41.9984 131.682L42.232 134.596C42.2361 134.647 42.2877 134.692 42.2938 134.742C42.3207 134.966 42.1622 135.171 41.9095 135.189C41.9039 135.189 41.9217 135.19 41.9164 135.191ZM102.019 129.204C101.792 129.221 101.67 129.062 101.651 128.85L101.386 125.935C101.367 125.723 101.458 125.538 101.685 125.523C101.911 125.507 102.033 125.666 102.052 125.878L102.317 128.79C102.336 129.002 102.245 129.188 102.019 129.204ZM41.3662 129.044C41.1135 129.061 40.9331 128.895 40.9152 128.67L40.669 125.594C40.651 125.37 40.8023 125.173 41.0549 125.157C41.3073 125.141 41.4873 125.308 41.5053 125.532L41.7517 128.605C41.7697 128.829 41.6187 129.027 41.3662 129.044ZM101.49 123.381C101.264 123.396 101.142 123.236 101.122 123.024L100.858 120.116C100.839 119.904 100.93 119.721 101.156 119.707C101.383 119.693 101.504 119.853 101.524 120.064L101.788 122.97C101.807 123.182 101.716 123.366 101.49 123.381ZM40.8738 122.896C40.6213 122.911 40.441 122.744 40.4231 122.52L40.1774 119.45C40.1595 119.227 40.3108 119.032 40.5632 119.018C40.8154 119.003 40.9954 119.171 41.0133 119.394L41.2592 122.461C41.2771 122.685 41.1262 122.88 40.8738 122.896ZM100.962 117.569C100.736 117.583 100.614 117.422 100.595 117.211L100.331 114.308C100.312 114.097 100.403 113.915 100.629 113.903C100.855 113.89 100.977 114.051 100.996 114.262L101.26 117.162C101.279 117.373 101.188 117.555 100.962 117.569ZM40.3824 116.761C40.1301 116.775 39.9499 116.607 39.932 116.384L39.6869 113.32C39.669 113.097 39.8203 112.905 40.0725 112.892C40.3246 112.878 40.5045 113.047 40.5223 113.27L40.7677 116.331C40.7856 116.554 40.6347 116.747 40.3824 116.761ZM100.436 111.769C100.209 111.782 100.087 111.62 100.068 111.409L99.8053 108.513C99.7862 108.302 99.8773 108.122 100.103 108.11C100.329 108.099 100.451 108.261 100.47 108.471L100.733 111.365C100.752 111.576 100.661 111.757 100.436 111.769ZM39.8922 110.64C39.64 110.653 39.4598 110.483 39.442 110.26L39.1974 107.204C39.1796 106.981 39.3309 106.791 39.5829 106.779C39.8349 106.767 40.0146 106.937 40.0325 107.159L40.2773 110.213C40.2951 110.436 40.1442 110.627 39.8922 110.64ZM99.9099 105.981C99.6839 105.992 99.5618 105.83 99.5427 105.619L99.2804 102.729C99.2613 102.518 99.3525 102.34 99.5783 102.33C99.804 102.32 99.9259 102.483 99.945 102.693L100.207 105.581C100.226 105.791 100.136 105.97 99.9099 105.981ZM39.403 104.532C39.151 104.544 38.9709 104.373 38.9531 104.15L38.709 101.1C38.6912 100.878 38.8424 100.69 39.0943 100.679C39.346 100.669 39.5257 100.84 39.5435 101.062L39.7878 104.109C39.8057 104.331 39.6548 104.521 39.403 104.532ZM99.3854 100.205C99.1596 100.215 99.0375 100.052 99.0184 99.8412L98.7566 96.9569C98.7375 96.7469 98.8287 96.5706 99.0545 96.5615C99.2801 96.5524 99.4019 96.7165 99.421 96.9264L99.6829 99.8081C99.7019 100.018 99.611 100.195 99.3854 100.205ZM38.9148 98.4374C38.663 98.4474 38.4829 98.2755 38.4652 98.0536L38.2819 95.7637C38.26 95.4903 38.2715 95.2145 38.3002 94.9452C38.3238 94.7249 38.5514 94.5704 38.8018 94.5954C39.053 94.6226 39.1928 94.8237 39.1694 95.0436C39.1452 95.2694 39.0977 95.501 39.1161 95.7304L39.2996 98.0182C39.3174 98.2398 39.1665 98.4274 38.9148 98.4374ZM98.8619 94.4411C98.6362 94.4497 98.5141 94.2851 98.495 94.0752L98.4444 93.5176C98.3798 92.8059 98.0492 92.1173 97.604 91.5241C97.4719 91.3481 97.4838 91.1134 97.6682 90.9991C97.8528 90.885 98.0782 90.9359 98.2101 91.1118C98.7407 91.8194 99.0315 92.6422 99.1086 93.4901L99.1593 94.0473C99.1783 94.2569 99.0875 94.4324 98.8619 94.4411ZM40.2023 92.7186C40.0789 92.7229 39.9527 92.6834 39.8561 92.5998C39.6737 92.4425 39.6664 92.1889 39.8398 92.0334C40.7066 91.2562 41.8663 90.7619 43.1038 90.6408C43.3507 90.6207 43.5809 90.7746 43.617 90.9936C43.6528 91.2126 43.4814 91.4099 43.234 91.4344C42.1972 91.5366 41.2261 91.9515 40.4999 92.6032C40.4184 92.6764 40.3116 92.7148 40.2023 92.7186ZM95.4165 89.956C95.3674 89.9577 95.3167 89.9511 95.2666 89.9354C94.7619 89.7775 94.2375 89.7065 93.7078 89.7243L92.3076 89.7714C92.0795 89.7791 91.8792 89.6145 91.8603 89.4039C91.8414 89.1933 92.0111 89.0164 92.2392 89.0089L93.6392 88.9628C94.2704 88.942 94.8957 89.0272 95.4976 89.2159C95.7161 89.2844 95.8413 89.5008 95.7774 89.6993C95.7285 89.8525 95.5813 89.9504 95.4165 89.956ZM89.1681 89.8771L86.01 89.9834C85.7792 89.9912 85.5768 89.8257 85.558 89.6138C85.5392 89.4019 85.7113 89.224 85.9421 89.2164L89.0999 89.1123C89.3292 89.1048 89.5304 89.2698 89.5493 89.4809C89.5681 89.692 89.3974 89.8694 89.1681 89.8771ZM82.8334 90.0904L79.6379 90.1979C79.4044 90.2058 79.1999 90.0393 79.1812 89.8262C79.1626 89.613 79.3369 89.434 79.5705 89.4263L82.7657 89.321C82.9977 89.3134 83.2009 89.4793 83.2197 89.6916C83.2384 89.904 83.0654 90.0825 82.8334 90.0904ZM76.4236 90.3061L73.19 90.415C72.9537 90.4229 72.747 90.2555 72.7285 90.041C72.71 89.8266 72.8867 89.6465 73.1231 89.6387L76.3563 89.5321C76.5912 89.5244 76.7965 89.6913 76.8151 89.9049C76.8336 90.1186 76.6584 90.2982 76.4236 90.3061ZM69.9373 90.5244L66.6653 90.6346C66.4261 90.6426 66.2172 90.4742 66.1988 90.2585C66.1805 90.0428 66.3596 89.8615 66.5987 89.8536L69.8705 89.7458C70.1081 89.738 70.3157 89.9059 70.3341 90.1208C70.3526 90.3357 70.1749 90.5165 69.9373 90.5244ZM63.3731 90.7454L60.0616 90.8569C59.8196 90.865 59.6085 90.6956 59.5903 90.4786C59.572 90.2616 59.7536 90.0792 59.9957 90.0712L63.3069 89.9621C63.5473 89.9542 63.7571 90.123 63.7754 90.3393C63.7938 90.5555 63.6137 90.7373 63.3731 90.7454ZM56.73 90.969L53.3782 91.0818C53.1332 91.0901 52.9198 90.9197 52.9017 90.7013C52.8837 90.483 53.0678 90.2994 53.3127 90.2914L56.6643 90.1809C56.9077 90.1729 57.1197 90.3427 57.1379 90.5603C57.156 90.7778 56.9734 90.9608 56.73 90.969ZM50.006 91.1954L46.6132 91.3096C46.3652 91.3179 46.1496 91.1466 46.1316 90.9268C46.1137 90.7072 46.3003 90.5225 46.5483 90.5143L49.9408 90.4025C50.1872 90.3943 50.4014 90.5652 50.4194 90.784C50.4375 91.0029 50.2523 91.1871 50.006 91.1954Z" fill="white"/>
</g>
<path d="M104.472 101.786C104.116 101.582 103.688 101.55 103.315 101.701L91.4064 106.472C89.6981 107.164 88.5319 108.784 88.6866 110.526L89.0976 115.158C89.2622 117.012 90.8633 118.562 92.8254 118.967L105.15 121.494C105.539 121.574 105.961 121.478 106.258 121.235C106.553 120.992 106.726 120.63 106.692 120.258L105.082 102.725C105.047 102.341 104.829 101.99 104.472 101.786Z" fill="#546286"/>
<path d="M96.6051 112.316C96.7205 113.597 95.697 114.7 94.3155 114.779C92.9305 114.858 91.712 113.878 91.5971 112.591C91.4823 111.304 92.5141 110.202 93.8985 110.129C95.2793 110.056 96.4896 111.035 96.6051 112.316Z" fill="#1D191F"/>
<defs>
<linearGradient id="paint0_linear_6490_1948" x1="145.362" y1="138.903" x2="141.967" y2="144.86" gradientUnits="userSpaceOnUse">
<stop stop-color="#FFC444"/>
<stop offset="0.9964" stop-color="#F36F56"/>
</linearGradient>
<linearGradient id="paint1_linear_6490_1948" x1="151.934" y1="148.514" x2="155.206" y2="141.28" gradientUnits="userSpaceOnUse">
<stop stop-color="#FFC444"/>
<stop offset="0.9964" stop-color="#F36F56"/>
</linearGradient>
<linearGradient id="paint2_linear_6490_1948" x1="57.5491" y1="93.8227" x2="59.3093" y2="87.247" gradientUnits="userSpaceOnUse">
<stop stop-color="#FF9085"/>
<stop offset="1" stop-color="#FB6FBB"/>
</linearGradient>
<linearGradient id="paint3_linear_6490_1948" x1="56.2458" y1="92.974" x2="57.8439" y2="87.0037" gradientUnits="userSpaceOnUse">
<stop stop-color="#FF9085"/>
<stop offset="1" stop-color="#FB6FBB"/>
</linearGradient>
<linearGradient id="paint4_linear_6490_1948" x1="57.7039" y1="93.5382" x2="59.3029" y2="87.5648" gradientUnits="userSpaceOnUse">
<stop stop-color="#FF9085"/>
<stop offset="1" stop-color="#FB6FBB"/>
</linearGradient>
<linearGradient id="paint5_linear_6490_1948" x1="59.163" y1="94.1035" x2="60.7628" y2="88.1269" gradientUnits="userSpaceOnUse">
<stop stop-color="#FF9085"/>
<stop offset="1" stop-color="#FB6FBB"/>
</linearGradient>
<linearGradient id="paint6_linear_6490_1948" x1="58.1377" y1="92.4665" x2="59.1446" y2="88.705" gradientUnits="userSpaceOnUse">
<stop stop-color="#FF9085"/>
<stop offset="1" stop-color="#FB6FBB"/>
</linearGradient>
<linearGradient id="paint7_linear_6490_1948" x1="72.4878" y1="103.889" x2="100.84" y2="11.139" gradientUnits="userSpaceOnUse">
<stop stop-color="#FB6FBB"/>
<stop offset="1" stop-color="#FF9085"/>
</linearGradient>
<linearGradient id="paint8_linear_6490_1948" x1="75.7898" y1="101.253" x2="79.3183" y2="88.0711" gradientUnits="userSpaceOnUse">
<stop stop-color="#FB6FBB"/>
<stop offset="1" stop-color="#FF9085"/>
</linearGradient>
<linearGradient id="paint9_linear_6490_1948" x1="84.009" y1="82.8056" x2="88.6035" y2="65.6413" gradientUnits="userSpaceOnUse">
<stop stop-color="#FB6FBB"/>
<stop offset="1" stop-color="#FF9085"/>
</linearGradient>
<linearGradient id="paint10_linear_6490_1948" x1="68.1257" y1="57.607" x2="69.5476" y2="48.3727" gradientUnits="userSpaceOnUse">
<stop stop-color="#FF9085"/>
<stop offset="1" stop-color="#FB6FBB"/>
</linearGradient>
<linearGradient id="paint11_linear_6490_1948" x1="48.5262" y1="80.7361" x2="27.4541" y2="87.9581" gradientUnits="userSpaceOnUse">
<stop stop-color="#FCB148"/>
<stop offset="0.0521" stop-color="#FDBA46"/>
<stop offset="0.1424" stop-color="#FFC244"/>
<stop offset="0.3183" stop-color="#FFC444"/>
<stop offset="0.4849" stop-color="#FDB946"/>
<stop offset="0.7754" stop-color="#F99C4D"/>
<stop offset="0.8658" stop-color="#F8924F"/>
<stop offset="1" stop-color="#F8924F"/>
</linearGradient>
<linearGradient id="paint12_linear_6490_1948" x1="65.7956" y1="60.8375" x2="48.726" y2="101.054" gradientUnits="userSpaceOnUse">
<stop stop-color="#FFDB44"/>
<stop offset="1" stop-color="#FEEF06"/>
</linearGradient>
<linearGradient id="paint13_linear_6490_1948" x1="62.2901" y1="102.41" x2="59.0527" y2="83.523" gradientUnits="userSpaceOnUse">
<stop stop-color="#FCB148"/>
<stop offset="0.0521" stop-color="#FDBA46"/>
<stop offset="0.1424" stop-color="#FFC244"/>
<stop offset="0.3183" stop-color="#FFC444"/>
<stop offset="0.4849" stop-color="#FDB946"/>
<stop offset="0.7754" stop-color="#F99C4D"/>
<stop offset="0.8658" stop-color="#F8924F"/>
<stop offset="1" stop-color="#F8924F"/>
</linearGradient>
<linearGradient id="paint14_linear_6490_1948" x1="53.8896" y1="65.4791" x2="60.6267" y2="92.4434" gradientUnits="userSpaceOnUse">
<stop stop-color="#FFDB44"/>
<stop offset="1" stop-color="#FEEF06"/>
</linearGradient>
<linearGradient id="paint15_linear_6490_1948" x1="50.0347" y1="73.9111" x2="63.5998" y2="104.663" gradientUnits="userSpaceOnUse">
<stop stop-color="#FCB148"/>
<stop offset="0.0521" stop-color="#FDBA46"/>
<stop offset="0.1424" stop-color="#FFC244"/>
<stop offset="0.3183" stop-color="#FFC444"/>
<stop offset="0.4849" stop-color="#FDB946"/>
<stop offset="0.7754" stop-color="#F99C4D"/>
<stop offset="0.8658" stop-color="#F8924F"/>
<stop offset="1" stop-color="#F8924F"/>
</linearGradient>
<linearGradient id="paint16_linear_6490_1948" x1="47.1124" y1="43.5319" x2="32.9201" y2="48.396" gradientUnits="userSpaceOnUse">
<stop stop-color="#FCB148"/>
<stop offset="0.0521" stop-color="#FDBA46"/>
<stop offset="0.1424" stop-color="#FFC244"/>
<stop offset="0.3183" stop-color="#FFC444"/>
<stop offset="0.4849" stop-color="#FDB946"/>
<stop offset="0.7754" stop-color="#F99C4D"/>
<stop offset="0.8658" stop-color="#F8924F"/>
<stop offset="1" stop-color="#F8924F"/>
</linearGradient>
<linearGradient id="paint17_linear_6490_1948" x1="58.7436" y1="30.13" x2="47.247" y2="57.2164" gradientUnits="userSpaceOnUse">
<stop stop-color="#FFDB44"/>
<stop offset="1" stop-color="#FEEF06"/>
</linearGradient>
<linearGradient id="paint18_linear_6490_1948" x1="50.7248" y1="33.256" x2="55.2623" y2="51.4169" gradientUnits="userSpaceOnUse">
<stop stop-color="#FFDB44"/>
<stop offset="1" stop-color="#FEEF06"/>
</linearGradient>
<linearGradient id="paint19_linear_6490_1948" x1="48.1282" y1="38.9351" x2="57.2645" y2="59.647" gradientUnits="userSpaceOnUse">
<stop stop-color="#FCB148"/>
<stop offset="0.0521" stop-color="#FDBA46"/>
<stop offset="0.1424" stop-color="#FFC244"/>
<stop offset="0.3183" stop-color="#FFC444"/>
<stop offset="0.4849" stop-color="#FDB946"/>
<stop offset="0.7754" stop-color="#F99C4D"/>
<stop offset="0.8658" stop-color="#F8924F"/>
<stop offset="1" stop-color="#F8924F"/>
</linearGradient>
</defs>
</svg>
